<?xml version="1.0" encoding="UTF-8"?>
<svg width="512px" height="512px" viewBox="0 0 512 512" version="1.1" xmlns="http://www.w3.org/2000/svg" xmlns:xlink="http://www.w3.org/1999/xlink">
    <!-- Generator: Sketch 54.1 (76490) - https://sketchapp.com -->
    <title>favicon</title>
    <desc>Created with Sketch.</desc>
    <g id="favicon" stroke="none" stroke-width="1" fill="none" fill-rule="evenodd">
        <g id="Group">
            <rect id="Rectangle" fill="#0076FF" x="0" y="0" width="512" height="512" rx="70"></rect>
            <path d="M117.593496,255.16748 C117.593496,168.585366 184.195122,101.98374 273.691057,101.98374 C347.369106,101.98374 385.24878,144.026016 385.24878,144.026016 C374.652033,188.4271 363.413008,206.742547 351.531707,198.972358 C333.709756,187.317073 318.230894,168.585366 277.021138,168.585366 C219.993496,168.585366 192.936585,210.627642 192.936585,253.502439 C192.936585,297.626016 222.074797,342.998374 277.021138,342.998374 C321.977236,342.998374 356.110569,306.36748 356.110569,306.36748 L393.573984,359.64878 C393.573984,359.64878 351.531707,409.6 273.691057,409.6 C180.44878,409.6 117.593496,343.414634 117.593496,255.16748 Z" id="C" fill="#FFFFFF" fill-rule="nonzero"></path>
        </g>
    </g>
</svg>