
<svg width="120px" height="119px" viewBox="0 0 120 119" version="1.1" xmlns="http://www.w3.org/2000/svg" xmlns:xlink="http://www.w3.org/1999/xlink">
    <g id="2.0" stroke="none" stroke-width="1" fill="none" fill-rule="evenodd">
        <g id="Desktop-HD" transform="translate(-745.000000, -1934.000000)" fill="#FFFFFF">
            <g id="Members" transform="translate(47.000000, 1712.000000)">
                <g id="Card-3" transform="translate(505.000000, 199.000000)">
                    <g id="11893877_999305533445484_5172442191890195981_o" transform="translate(113.303226, 0.000000)">
                        <g id="Hover" transform="translate(-1.000000, 0.000000)">
                            <g id="Group-2" transform="translate(77.000000, 23.000000)">
                                <path d="M100.5,12.5 L95.5,12.5 L95.5,22.5 L85.5,22.5 L85.5,27.5 L95.5,27.5 L95.5,37.5 L100.5,37.5 L100.5,27.5 L110.5,27.5 L110.5,22.5 L100.5,22.5 L100.5,12.5 Z M98,0 C84.2,0 73,11.2 73,25 C73,38.8 84.2,50 98,50 C111.8,50 123,38.8 123,25 C123,11.2 111.8,0 98,0 Z M98,45 C86.975,45 78,36.025 78,25 C78,13.975 86.975,5 98,5 C109.025,5 118,13.975 118,25 C118,36.025 109.025,45 98,45 Z" id="Shape" fill-rule="nonzero"></path>
                                <text id="Add-to-your-team" transform="translate(60.043416, 63.336309) rotate(-315.000000) translate(-60.043416, -63.336309) " font-family="MuseoSans-700, Museo Sans" font-size="18" font-weight="500">
                                    <tspan x="-13.4565838" y="69.3363094">Add to your team</tspan>
                                </text>
                            </g>
                        </g>
                    </g>
                </g>
            </g>
        </g>
    </g>
</svg>
