<svg width="118px" height="118px" viewBox="0 0 118 118" version="1.1" xmlns="http://www.w3.org/2000/svg" xmlns:xlink="http://www.w3.org/1999/xlink">
    <g id="2.0" stroke="none" stroke-width="1" fill="none" fill-rule="evenodd">
        <g id="Desktop-HD" transform="translate(-745.000000, -1936.000000)" fill="#FFFFFF" fill-rule="nonzero">
            <g id="Members" transform="translate(47.000000, 1712.000000)">
                <g id="Card-3" transform="translate(505.000000, 199.000000)">
                    <g id="11893877_999305533445484_5172442191890195981_o" transform="translate(113.303226, 0.000000)">
                        <g id="Hover" transform="translate(0.000000, 0.000000)">
                            <g id="Group-2" transform="translate(76.000000, 25.000000)">
                                <path d="M103,10 L99,10 L99,18 L91,18 L91,22 L99,22 L99,30 L103,30 L103,22 L111,22 L111,18 L103,18 L103,10 Z M101,0 C89.96,0 81,8.96 81,20 C81,31.04 89.96,40 101,40 C112.04,40 121,31.04 121,20 C121,8.96 112.04,0 101,0 Z M101,36 C92.18,36 85,28.82 85,20 C85,11.18 92.18,4 101,4 C109.82,4 117,11.18 117,20 C117,28.82 109.82,36 101,36 Z" id="Shape"></path>
                                <path d="M-4.40258377,67.3363094 L-5.48258377,64.0603094 L-9.96458377,64.0603094 L-11.0445838,67.3363094 L-13.4385838,67.3363094 L-8.93858377,54.5563094 L-6.50858377,54.5563094 L-2.00858377,67.3363094 L-4.40258377,67.3363094 Z M-7.69658377,56.7703094 L-7.73258377,56.7703094 C-7.73258377,56.7703094 -8.02058377,58.0303094 -8.27258377,58.7503094 L-9.40658377,62.1703094 L-6.05858377,62.1703094 L-7.19258377,58.7503094 C-7.42658377,58.0303094 -7.69658377,56.7703094 -7.69658377,56.7703094 Z M-1.36058377,62.7463094 C-1.36058377,59.8303094 0.367416229,57.9403094 2.79741623,57.9403094 C4.81341623,57.9403094 5.44341623,59.1103094 5.44341623,59.1103094 L5.47941623,59.1103094 C5.47941623,59.1103094 5.46141623,58.8763094 5.46141623,58.5883094 L5.46141623,54.5563094 L7.74741623,54.5563094 L7.74741623,67.3363094 L5.58741623,67.3363094 L5.58741623,66.5803094 C5.58741623,66.2383094 5.62341623,65.9863094 5.62341623,65.9863094 L5.58741623,65.9863094 C5.58741623,65.9863094 4.81341623,67.5523094 2.70741623,67.5523094 C0.223416229,67.5523094 -1.36058377,65.5903094 -1.36058377,62.7463094 Z M0.943416229,62.7463094 C0.943416229,64.4923094 1.87941623,65.6263094 3.22941623,65.6263094 C4.41741623,65.6263094 5.53341623,64.7623094 5.53341623,62.7283094 C5.53341623,61.3063094 4.77741623,59.9023094 3.24741623,59.9023094 C1.98741623,59.9023094 0.943416229,60.9283094 0.943416229,62.7463094 Z M9.63741623,62.7463094 C9.63741623,59.8303094 11.3654162,57.9403094 13.7954162,57.9403094 C15.8114162,57.9403094 16.4414162,59.1103094 16.4414162,59.1103094 L16.4774162,59.1103094 C16.4774162,59.1103094 16.4594162,58.8763094 16.4594162,58.5883094 L16.4594162,54.5563094 L18.7454162,54.5563094 L18.7454162,67.3363094 L16.5854162,67.3363094 L16.5854162,66.5803094 C16.5854162,66.2383094 16.6214162,65.9863094 16.6214162,65.9863094 L16.5854162,65.9863094 C16.5854162,65.9863094 15.8114162,67.5523094 13.7054162,67.5523094 C11.2214162,67.5523094 9.63741623,65.5903094 9.63741623,62.7463094 Z M11.9414162,62.7463094 C11.9414162,64.4923094 12.8774162,65.6263094 14.2274162,65.6263094 C15.4154162,65.6263094 16.5314162,64.7623094 16.5314162,62.7283094 C16.5314162,61.3063094 15.7754162,59.9023094 14.2454162,59.9023094 C12.9854162,59.9023094 11.9414162,60.9283094 11.9414162,62.7463094 Z M26.0354162,63.9703094 L26.0354162,60.1183094 L24.8474162,60.1183094 L24.8474162,58.3003094 L26.0894162,58.3003094 L26.0894162,55.6543094 L28.3214162,55.6543094 L28.3214162,58.3003094 L30.4094162,58.3003094 L30.4094162,60.1183094 L28.3214162,60.1183094 L28.3214162,63.6823094 C28.3214162,65.1943094 29.5094162,65.4103094 30.1394162,65.4103094 C30.3914162,65.4103094 30.5534162,65.3743094 30.5534162,65.3743094 L30.5534162,67.3723094 C30.5534162,67.3723094 30.2834162,67.4263094 29.8514162,67.4263094 C28.5734162,67.4263094 26.0354162,67.0483094 26.0354162,63.9703094 Z M31.7414162,62.7463094 C31.7414162,59.9383094 33.9914162,57.9403094 36.7814162,57.9403094 C39.5894162,57.9403094 41.8394162,59.9383094 41.8394162,62.7463094 C41.8394162,65.5723094 39.5894162,67.5523094 36.7994162,67.5523094 C33.9914162,67.5523094 31.7414162,65.5723094 31.7414162,62.7463094 Z M34.0634162,62.7463094 C34.0634162,64.4563094 35.3054162,65.6083094 36.7994162,65.6083094 C38.2754162,65.6083094 39.5174162,64.4563094 39.5174162,62.7463094 C39.5174162,61.0543094 38.2754162,59.8843094 36.7994162,59.8843094 C35.3054162,59.8843094 34.0634162,61.0543094 34.0634162,62.7463094 Z M46.8074162,70.5223094 L47.5634162,68.8123094 C47.5634162,68.8123094 48.0674162,69.1903094 48.5894162,69.1903094 C49.2194162,69.1903094 49.8314162,68.8123094 50.1734162,68.0023094 L50.5154162,67.1923094 L46.6454162,58.1563094 L49.2194162,58.1563094 L51.1454162,63.4483094 C51.3254162,63.9343094 51.4874162,64.6903094 51.4874162,64.6903094 L51.5234162,64.6903094 C51.5234162,64.6903094 51.6674162,63.9703094 51.8294162,63.4843094 L53.6294162,58.1563094 L56.1314162,58.1563094 L52.0274162,68.7223094 C51.3794162,70.3963094 50.1014162,71.1163094 48.7154162,71.1163094 C47.6174162,71.1163094 46.8074162,70.5223094 46.8074162,70.5223094 Z M56.7434162,62.7463094 C56.7434162,59.9383094 58.9934162,57.9403094 61.7834162,57.9403094 C64.5914162,57.9403094 66.8414162,59.9383094 66.8414162,62.7463094 C66.8414162,65.5723094 64.5914162,67.5523094 61.8014162,67.5523094 C58.9934162,67.5523094 56.7434162,65.5723094 56.7434162,62.7463094 Z M59.0654162,62.7463094 C59.0654162,64.4563094 60.3074162,65.6083094 61.8014162,65.6083094 C63.2774162,65.6083094 64.5194162,64.4563094 64.5194162,62.7463094 C64.5194162,61.0543094 63.2774162,59.8843094 61.8014162,59.8843094 C60.3074162,59.8843094 59.0654162,61.0543094 59.0654162,62.7463094 Z M68.5514162,64.0603094 L68.5514162,58.1563094 L70.8374162,58.1563094 L70.8374162,63.5923094 C70.8374162,64.7083094 71.1254162,65.4643094 72.2594162,65.4643094 C73.9154162,65.4643094 74.8334162,64.0063094 74.8334162,62.3683094 L74.8334162,58.1563094 L77.1194162,58.1563094 L77.1194162,67.3363094 L74.9234162,67.3363094 L74.9234162,66.2923094 C74.9234162,65.9323094 74.9594162,65.6443094 74.9594162,65.6443094 L74.9234162,65.6443094 C74.4734162,66.5983094 73.3034162,67.5523094 71.7374162,67.5523094 C69.7754162,67.5523094 68.5514162,66.5623094 68.5514162,64.0603094 Z M79.6394162,67.3363094 L79.6394162,58.1563094 L81.8354162,58.1563094 L81.8354162,59.7403094 C81.8354162,60.0823094 81.7994162,60.3883094 81.7994162,60.3883094 L81.8354162,60.3883094 C82.2494162,59.0743094 83.3474162,58.0303094 84.7514162,58.0303094 C84.9674162,58.0303094 85.1654162,58.0663094 85.1654162,58.0663094 L85.1654162,60.3163094 C85.1654162,60.3163094 84.9314162,60.2803094 84.6254162,60.2803094 C83.6534162,60.2803094 82.5554162,60.8383094 82.1234162,62.2063094 C81.9794162,62.6563094 81.9254162,63.1603094 81.9254162,63.7003094 L81.9254162,67.3363094 L79.6394162,67.3363094 Z M91.4834162,63.9703094 L91.4834162,60.1183094 L90.2954162,60.1183094 L90.2954162,58.3003094 L91.5374162,58.3003094 L91.5374162,55.6543094 L93.7694162,55.6543094 L93.7694162,58.3003094 L95.8574162,58.3003094 L95.8574162,60.1183094 L93.7694162,60.1183094 L93.7694162,63.6823094 C93.7694162,65.1943094 94.9574162,65.4103094 95.5874162,65.4103094 C95.8394162,65.4103094 96.0014162,65.3743094 96.0014162,65.3743094 L96.0014162,67.3723094 C96.0014162,67.3723094 95.7314162,67.4263094 95.2994162,67.4263094 C94.0214162,67.4263094 91.4834162,67.0483094 91.4834162,63.9703094 Z M97.2254162,62.7463094 C97.2254162,59.9203094 99.1514162,57.9403094 101.887416,57.9403094 C104.533416,57.9403094 105.955416,59.8663094 105.955416,62.2963094 C105.955416,62.5663094 105.901416,63.1783094 105.901416,63.1783094 L99.5654162,63.1783094 C99.7094162,64.7803094 100.951416,65.6083094 102.319416,65.6083094 C103.795416,65.6083094 104.965416,64.6003094 104.965416,64.6003094 L105.847416,66.2383094 C105.847416,66.2383094 104.443416,67.5523094 102.157416,67.5523094 C99.1154162,67.5523094 97.2254162,65.3563094 97.2254162,62.7463094 Z M99.6374162,61.6123094 L103.651416,61.6123094 C103.615416,60.3703094 102.841416,59.7043094 101.833416,59.7043094 C100.663416,59.7043094 99.8534162,60.4243094 99.6374162,61.6123094 Z M107.071416,64.6903094 C107.071416,61.7743094 111.013416,61.5763094 112.507416,61.5763094 L112.813416,61.5763094 L112.813416,61.4503094 C112.813416,60.2443094 112.057416,59.8303094 111.049416,59.8303094 C109.735416,59.8303094 108.529416,60.7123094 108.529416,60.7123094 L107.665416,59.0743094 C107.665416,59.0743094 109.087416,57.9403094 111.265416,57.9403094 C113.677416,57.9403094 115.081416,59.2723094 115.081416,61.5943094 L115.081416,67.3363094 L112.975416,67.3363094 L112.975416,66.5803094 C112.975416,66.2203094 113.011416,65.9323094 113.011416,65.9323094 L112.975416,65.9323094 C112.993416,65.9323094 112.273416,67.5523094 110.185416,67.5523094 C108.547416,67.5523094 107.071416,66.5263094 107.071416,64.6903094 Z M109.375416,64.5823094 C109.375416,65.1943094 109.825416,65.7703094 110.761416,65.7703094 C111.967416,65.7703094 112.831416,64.4743094 112.831416,63.3583094 L112.831416,63.1423094 L112.435416,63.1423094 C111.265416,63.1423094 109.375416,63.3043094 109.375416,64.5823094 Z M117.457416,67.3363094 L117.457416,58.1563094 L119.653416,58.1563094 L119.653416,59.2183094 C119.653416,59.5603094 119.617416,59.8483094 119.617416,59.8483094 L119.653416,59.8483094 C120.103416,58.9483094 121.201416,57.9403094 122.641416,57.9403094 C124.045416,57.9403094 124.945416,58.5883094 125.323416,59.8303094 L125.359416,59.8303094 C125.863416,58.8403094 127.051416,57.9403094 128.491416,57.9403094 C130.399416,57.9403094 131.497416,59.0203094 131.497416,61.4323094 L131.497416,67.3363094 L129.211416,67.3363094 L129.211416,61.8643094 C129.211416,60.8203094 129.013416,60.0283094 127.951416,60.0283094 C126.781416,60.0283094 126.007416,60.9643094 125.737416,62.1163094 C125.647416,62.4763094 125.629416,62.8723094 125.629416,63.3043094 L125.629416,67.3363094 L123.343416,67.3363094 L123.343416,61.8643094 C123.343416,60.8743094 123.181416,60.0283094 122.101416,60.0283094 C120.913416,60.0283094 120.139416,60.9643094 119.851416,62.1343094 C119.761416,62.4763094 119.743416,62.8903094 119.743416,63.3043094 L119.743416,67.3363094 L117.457416,67.3363094 Z" id="Addtoyourteam" transform="translate(59.029416, 62.836309) rotate(-315.000000) translate(-59.029416, -62.836309) "></path>
                            </g>
                        </g>
                    </g>
                </g>
            </g>
        </g>
    </g>
</svg>
