<?xml version="1.0" encoding="UTF-8"?>
<svg width="1440px" preserveAspectRatio="none" height="922px" viewBox="0 0 1440 922" version="1.1" xmlns="http://www.w3.org/2000/svg" xmlns:xlink="http://www.w3.org/1999/xlink">
    <!-- Generator: Sketch 54.1 (76490) - https://sketchapp.com -->
    <title>Bitmap</title>
    <desc>Created with Sketch.</desc>
    <defs>
        <linearGradient x1="40.373085%" y1="45.2604598%" x2="54.713358%" y2="84.5701038%" id="linearGradient-1">
            <stop stop-color="#4735E2" offset="0%"></stop>
            <stop stop-color="#3D3398" offset="100%"></stop>
        </linearGradient>
        <ellipse id="path-2" cx="1005.5" cy="747.5" rx="1005.5" ry="747.5"></ellipse>
        <linearGradient x1="17.9229071%" y1="16.8539326%" x2="34.3792914%" y2="83.4670947%" id="linearGradient-4">
            <stop stop-color="#0076FF" stop-opacity="0.12" offset="0%"></stop>
            <stop stop-color="#4735E2" stop-opacity="0.499863418" offset="100%"></stop>
        </linearGradient>
        <path d="M54.2022559,386.658851 C37.2913576,375.941901 19.4038422,367.388951 0.539709518,361 L0,984 L499,984 C493.3459,971.840384 487.460496,959.861101 481.343789,948.062151 C474.199063,934.356821 463.456273,924.721871 449.11542,919.157301 C435.082973,913.747302 420.433714,910.887731 405.167645,910.578588 C384.710084,910.166398 364.303925,911.222636 343.949166,913.747302 C326.575659,915.499111 309.510558,918.539015 292.753863,922.867014 C277.744798,926.731299 262.992738,926.216061 248.497682,921.3213 C232.306397,915.705206 223.362639,904.266923 221.666409,887.006451 C220.432787,874.640739 218.967862,862.326552 217.271632,850.063888 C216.60342,845.323698 214.90719,841.021461 212.182942,837.157177 C202.41677,823.554894 188.82123,816.702229 171.396323,816.599181 C154.125618,816.496134 137.960033,812.528801 122.899567,804.697184 C115.189431,800.678328 109.586733,794.727329 106.091471,786.844188 C101.979398,777.724476 101.336887,768.244097 104.163937,758.403052 C108.32741,744.027912 113.030593,729.781582 118.273486,715.664062 C123.259374,702.164827 122.179955,689.386925 115.035229,677.330356 C105.680264,661.461026 105.937268,645.437125 115.806242,629.258653 C123.516378,616.583799 130.069994,603.264897 135.467089,589.301948 C142.663216,570.598809 145.695869,551.225861 144.565049,531.183104 C143.43423,511.140347 138.91095,492.025018 130.99521,473.837117 C123.130871,455.906835 112.619386,439.625315 99.460754,424.992557 C86.2507211,410.205227 71.164555,397.427325 54.2022559,386.658851 Z" id="path-5"></path>
        <filter x="-15.0%" y="-12.0%" width="130.1%" height="124.1%" filterUnits="objectBoundingBox" id="filter-6">
            <feOffset dx="0" dy="0" in="SourceAlpha" result="shadowOffsetOuter1"></feOffset>
            <feGaussianBlur stdDeviation="25" in="shadowOffsetOuter1" result="shadowBlurOuter1"></feGaussianBlur>
            <feColorMatrix values="0 0 0 0 0   0 0 0 0 0   0 0 0 0 0  0 0 0 0.02 0" type="matrix" in="shadowBlurOuter1"></feColorMatrix>
        </filter>
        <linearGradient x1="60.6838175%" y1="64.5919779%" x2="53.8009735%" y2="37.6210235%" id="linearGradient-7">
            <stop stop-color="#2D247F" offset="0%"></stop>
            <stop stop-color="#2D247F" stop-opacity="0.171164773" offset="100%"></stop>
        </linearGradient>
        <path d="M1440,261 C1439.34862,264.568902 1438.2494,267.840395 1436.70237,270.81448 C1436.13241,271.871932 1435.54209,272.929384 1434.93142,273.986837 C1429.80176,282.644728 1423.61361,288.923351 1416.36696,292.822707 C1404.92703,298.704785 1396.86615,310.402852 1392.18432,327.916907 C1388.23531,342.853421 1388.19459,357.955162 1392.06219,373.222131 C1394.74915,383.796654 1394.66772,394.338132 1391.81792,404.846565 C1389.66021,412.711367 1386.93254,419.320444 1383.6349,424.673797 C1377.6096,434.455231 1369.69121,440.039901 1359.87973,441.427807 C1346.48564,442.683532 1333.17298,443.608803 1319.94173,444.20362 C1306.66978,444.996709 1293.39782,446.450706 1280.12587,448.565611 C1279.27093,448.697792 1278.43634,448.829974 1277.62211,448.962155 C1264.71656,451.341423 1251.97385,453.918963 1239.394,456.694776 C1226.08133,459.701906 1214.11214,463.270808 1202.38723,467.698889 C1190.25519,472.193062 1179.22237,479.132593 1169.28876,488.517483 C1159.31444,497.902372 1152.92273,507.716852 1150.11364,517.960921 C1147.30454,528.1389 1147.24348,540.299602 1149.93044,554.443028 C1152.57668,568.520362 1158.68341,579.590566 1168.25062,587.65364 C1177.77711,595.716715 1187.12041,601.466612 1196.2805,604.903332 C1199.456,606.026875 1202.59078,607.513917 1205.68486,609.364459 C1211.50661,612.86727 1217.20622,617.559715 1222.7837,623.441794 C1231.2924,632.430138 1236.42206,640.823667 1238.17265,648.622378 C1239.92325,656.784588 1240.71712,663.691074 1240.67641,670.035788 C1240.59499,676.512683 1239.29222,684.410531 1236.7681,693.729329 C1235.18035,699.545317 1232.69695,705.129988 1229.3179,710.48334 C1227.28232,713.787879 1224.9007,716.993281 1222.17302,720.099548 C1215.0078,728.360894 1207.21154,735.399561 1198.78426,741.215549 C1190.31626,746.965446 1176.77968,752.88057 1158.17452,758.960921 C1151.90494,760.943645 1146.04249,763.157685 1140.58714,765.603044 C1129.79859,770.295489 1120.61814,775.781023 1113.0458,782.059646 C1101.56515,791.444536 1095.98767,801.159879 1096.31337,811.205677 C1096.59835,821.185383 1101.40231,828.984094 1110.72524,834.60181 C1120.00747,840.153435 1125.931,846.035514 1128.49582,852.248046 C1131.01994,858.526669 1130.69424,865.334019 1127.51875,872.670095 C1124.34325,880.00617 1115.73276,886.38393 1101.68729,891.803373 C1087.64181,897.156726 1074.43093,903.765803 1062.05462,911.630605 C1043.40875,923.725216 1026.16742,939.851364 1010.33064,960.00905 C1008.21364,962.718771 1006.58518,966.089401 1005.44526,970.120938 C1005.2417,970.781846 1005.0585,971.442753 1004.89565,972.103661 C1004,975.936926 1003.77609,979.902372 1004.22391,984 L1440,984 L1440,261 Z" id="path-8"></path>
        <filter x="-13.8%" y="-8.3%" width="127.5%" height="116.6%" filterUnits="objectBoundingBox" id="filter-9">
            <feOffset dx="0" dy="0" in="SourceAlpha" result="shadowOffsetOuter1"></feOffset>
            <feGaussianBlur stdDeviation="20" in="shadowOffsetOuter1" result="shadowBlurOuter1"></feGaussianBlur>
            <feColorMatrix values="0 0 0 0 0   0 0 0 0 0   0 0 0 0 0  0 0 0 0.1 0" type="matrix" in="shadowBlurOuter1"></feColorMatrix>
        </filter>
        <linearGradient x1="50%" y1="45.5199968%" x2="84.3660629%" y2="51.626498%" id="linearGradient-10">
            <stop stop-color="#2D247F" offset="0%"></stop>
            <stop stop-color="#5039CC" offset="100%"></stop>
        </linearGradient>
        <linearGradient x1="24.9575811%" y1="37.4965018%" x2="37.1774822%" y2="55.8063859%" id="linearGradient-11">
            <stop stop-color="#0076FF" stop-opacity="0.500027316" offset="0%"></stop>
            <stop stop-color="#0076FF" stop-opacity="0.0994591346" offset="100%"></stop>
        </linearGradient>
        <linearGradient x1="50%" y1="0%" x2="50%" y2="100%" id="linearGradient-12">
            <stop stop-color="#00AEFF" offset="0%"></stop>
            <stop stop-color="#0076FF" offset="100%"></stop>
        </linearGradient>
        <path d="M430.180625,774.366176 C430.413958,769.89951 429.713958,765.582843 428.080625,761.416176 C426.313958,756.882843 424.097292,752.616176 421.430625,748.616176 C419.763958,746.116176 417.830625,743.832843 415.630625,741.766176 C411.930625,738.266176 407.597292,736.082843 402.630625,735.216176 C397.830625,734.516176 393.413958,735.516176 389.380625,738.216176 C385.413958,740.84951 382.513958,744.532843 380.680625,749.266176 C379.013958,753.566176 376.930625,757.69951 374.430625,761.666176 C372.163958,765.366176 369.530625,768.79951 366.530625,771.966176 C363.230625,775.49951 359.680625,778.816176 355.880625,781.916176 C352.247292,784.84951 349.447292,788.432843 347.480625,792.666176 C345.380625,797.266176 344.613958,801.566176 345.180625,805.566176 C345.713958,809.532843 347.263958,813.032843 349.830625,816.066176 C352.363958,819.09951 355.630625,820.94951 359.630625,821.616176 C363.630625,822.24951 367.547292,822.432843 371.380625,822.166176 C375.180625,821.866176 379.413958,821.19951 384.080625,820.166176 C388.713958,819.132843 393.147292,817.54951 397.380625,815.416176 C401.580625,813.24951 405.597292,810.832843 409.430625,808.166176 C413.330625,805.532843 416.847292,802.466176 419.980625,798.966176 C423.047292,795.566176 425.447292,791.766176 427.180625,787.566176 C428.913958,783.366176 429.913958,778.966176 430.180625,774.366176 Z" id="path-13"></path>
        <filter x="-90.3%" y="-63.0%" width="280.7%" height="276.4%" filterUnits="objectBoundingBox" id="filter-14">
            <feOffset dx="0" dy="22" in="SourceAlpha" result="shadowOffsetOuter1"></feOffset>
            <feGaussianBlur stdDeviation="22" in="shadowOffsetOuter1" result="shadowBlurOuter1"></feGaussianBlur>
            <feColorMatrix values="0 0 0 0 0   0 0 0 0 0   0 0 0 0 0  0 0 0 0.1 0" type="matrix" in="shadowBlurOuter1"></feColorMatrix>
        </filter>
        <filter x="-76.9%" y="-49.8%" width="253.7%" height="250.1%" filterUnits="objectBoundingBox" id="filter-15">
            <feGaussianBlur stdDeviation="11.5" in="SourceAlpha" result="shadowBlurInner1"></feGaussianBlur>
            <feOffset dx="-20" dy="-9" in="shadowBlurInner1" result="shadowOffsetInner1"></feOffset>
            <feComposite in="shadowOffsetInner1" in2="SourceAlpha" operator="arithmetic" k2="-1" k3="1" result="shadowInnerInner1"></feComposite>
            <feColorMatrix values="0 0 0 0 1   0 0 0 0 1   0 0 0 0 1  0 0 0 0.1 0" type="matrix" in="shadowInnerInner1"></feColorMatrix>
        </filter>
        <linearGradient x1="59.4787634%" y1="22.7848101%" x2="37.6441838%" y2="94.6398312%" id="linearGradient-16">
            <stop stop-color="#F0834A" offset="0%"></stop>
            <stop stop-color="#F0834A" stop-opacity="0.229266827" offset="100%"></stop>
        </linearGradient>
        <path d="M1030.28537,549.093455 C1021.70768,541.045262 1011.74009,537.376233 1000.38259,538.086368 C988.230869,539.191022 976.992509,543.609637 966.667514,551.342215 C956.421942,559.074793 947.089734,567.517505 938.670892,576.670352 C930.25205,585.823199 922.94513,596.356863 916.750133,608.271345 C909.760905,621.606096 904.518984,635.966597 901.024371,651.352848 C898.085718,664.29308 896.417834,677.114956 896.020719,689.818476 C895.703027,705.283631 899.038795,718.381671 906.028022,729.112595 C913.176096,739.922423 922.190611,747.497192 933.071568,751.836904 C943.952524,756.176616 958.685498,757.123462 977.27049,754.677443 C995.776058,752.310327 1011.26355,744.775009 1023.73297,732.071489 C1036.28181,719.210161 1043.27104,707.137872 1044.70065,695.854621 C1046.20969,684.492466 1044.46238,672.8936 1039.45873,661.058022 C1034.37566,648.985732 1035.60671,635.927145 1043.1519,621.882259 C1050.69709,607.837373 1052.8018,594.147555 1049.46603,580.812804 C1046.44796,572.843515 1042.83421,565.742168 1038.62479,559.508764 C1036.16267,555.484667 1033.38287,552.012898 1030.28537,549.093455 Z" id="path-17"></path>
        <filter x="-35.5%" y="-15.1%" width="158.1%" height="141.3%" filterUnits="objectBoundingBox" id="filter-18">
            <feOffset dx="-10" dy="12" in="SourceAlpha" result="shadowOffsetOuter1"></feOffset>
            <feGaussianBlur stdDeviation="13" in="shadowOffsetOuter1" result="shadowBlurOuter1"></feGaussianBlur>
            <feColorMatrix values="0 0 0 0 0   0 0 0 0 0   0 0 0 0 0  0 0 0 0.08 0" type="matrix" in="shadowBlurOuter1"></feColorMatrix>
        </filter>
    </defs>
    <g id="2.0" stroke="none" stroke-width="1" fill="none" fill-rule="evenodd">
        <g id="Desktop-HD">
            <rect fill="#FFFFFF" x="0" y="0" width="1440" height="3780"></rect>
            <g id="Banner" transform="translate(-406.000000, -576.000000)">
                <mask id="mask-3" fill="white">
                    <use xlink:href="#path-2"></use>
                </mask>
                <use id="Oval" fill="url(#linearGradient-1)" xlink:href="#path-2"></use>
                <g id="Bitmap" mask="url(#mask-3)" fill-rule="nonzero">
                    <g transform="translate(406.000000, 512.000000)" id="Shape">
                        <g fill="none">
                            <use fill="black" fill-opacity="1" filter="url(#filter-6)" xlink:href="#path-5"></use>
                            <use fill="url(#linearGradient-4)" xlink:href="#path-5"></use>
                        </g>
                        <g fill="none">
                            <use fill="black" fill-opacity="1" filter="url(#filter-9)" xlink:href="#path-8"></use>
                            <use fill="url(#linearGradient-7)" xlink:href="#path-8"></use>
                        </g>
                        <path d="M986.385686,191.819456 C1021.05493,190.986255 1055.21345,188.419997 1088.86124,184.120681 C1111.81384,181.287799 1134.97674,179.088149 1158.34994,177.521732 C1183.40553,175.788675 1208.28087,176.121955 1232.97594,178.521573 C1256.04872,180.821207 1277.07859,185.737091 1296.06556,193.269225 C1312.2886,199.668206 1324.84644,207.883564 1333.73907,217.9153 C1343.41281,228.880221 1351.55437,240.228414 1358.16376,251.959879 C1362.97059,260.491854 1368.70874,268.840524 1375.37821,277.005891 C1385.41246,289.00398 1399.8029,299.035716 1418.54953,307.101099 C1425.09883,309.900653 1432.24899,312.200287 1440,314 L1440,0 L391,0 L391,63.9898105 C403.738093,73.0883617 419.420368,80.4871836 438.046825,86.1862761 C458.175416,92.2186488 479.085116,97.3345009 500.775926,101.533832 C518.260761,104.899963 536.226279,106.649684 554.67248,106.782996 C578.286021,106.916308 604.12272,105.549859 632.182576,102.683649 C660.182347,99.7841108 679.920383,98.817598 691.396684,99.7841108 C702.812899,100.717296 714.018816,101.833784 725.014434,103.133577 C735.949967,104.366714 750.941261,107.416229 769.988315,112.282121 C788.975284,117.148013 807.902168,123.397017 826.768966,131.029135 C836.442707,134.928515 845.575679,138.961206 854.167884,143.127209 C862.339491,147.059916 870.030415,151.109271 877.240656,155.275275 C888.957299,162.040864 900.854197,168.689805 912.931351,175.222098 C922.605092,180.454599 933.630753,184.503954 946.008334,187.370164 C954.05977,189.236533 962.501761,190.569655 971.334307,191.369527 C976.261305,191.736135 981.278432,191.886112 986.385686,191.819456 Z" fill="url(#linearGradient-10)" opacity="0.364285714"></path>
                        <path d="M1188.3,191.85 C1207.53333,191.016667 1226.48333,188.45 1245.15,184.15 C1257.88333,181.316667 1270.73333,179.116667 1283.7,177.55 C1297.6,175.816667 1311.4,176.15 1325.1,178.55 C1337.9,180.85 1349.56667,185.766667 1360.1,193.3 C1369.1,199.7 1376.06667,207.916667 1381,217.95 C1386.36667,228.916667 1390.88333,240.266667 1394.55,252 C1397.21667,260.533333 1400.4,268.883333 1404.1,277.05 C1409.66667,289.05 1417.65,299.083333 1428.05,307.15 C1431.68333,309.95 1435.65,312.25 1439.95,314.05 L1439.95,0 L858,0 L858,64 C865.066667,73.1 873.766667,80.5 884.1,86.2 C895.266667,92.2333333 906.866667,97.35 918.9,101.55 C928.6,104.916667 938.566667,106.666667 948.8,106.8 C961.9,106.933333 976.233333,105.566667 991.8,102.7 C1007.33333,99.8 1018.28333,98.8333333 1024.65,99.8 C1030.98333,100.733333 1037.2,101.85 1043.3,103.15 C1049.36667,104.383333 1057.68333,107.433333 1068.25,112.3 C1078.78333,117.166667 1089.28333,123.416667 1099.75,131.05 C1105.11667,134.95 1110.18333,138.983333 1114.95,143.15 C1119.48333,147.083333 1123.75,151.133333 1127.75,155.3 C1134.25,162.066667 1140.85,168.716667 1147.55,175.25 C1152.91667,180.483333 1159.03333,184.533333 1165.9,187.4 C1170.36667,189.266667 1175.05,190.6 1179.95,191.4 C1182.68333,191.766667 1185.46667,191.916667 1188.3,191.85 Z" fill="url(#linearGradient-11)"></path>
                        <g fill="none">
                            <use fill="black" fill-opacity="1" filter="url(#filter-14)" xlink:href="#path-13"></use>
                            <use fill="url(#linearGradient-12)" xlink:href="#path-13"></use>
                            <use fill="black" fill-opacity="1" filter="url(#filter-15)" xlink:href="#path-13"></use>
                        </g>
                        <g fill="none">
                            <use fill="black" fill-opacity="1" filter="url(#filter-18)" xlink:href="#path-17"></use>
                            <use fill="url(#linearGradient-16)" xlink:href="#path-17"></use>
                        </g>
                    </g>
                </g>
            </g>
        </g>
    </g>
</svg>
