<svg width="169" height="172" xmlns="http://www.w3.org/2000/svg" xmlns:xlink="http://www.w3.org/1999/xlink"><defs><linearGradient x1="50%" y1="0%" x2="50%" y2="100%" id="c"><stop stop-color="#00AEFF" offset="0%"/><stop stop-color="#0076FF" offset="100%"/></linearGradient><path d="M430.18 774.366a30.7 30.7 0 0 0-2.1-12.95 66.593 66.593 0 0 0-6.65-12.8 39.215 39.215 0 0 0-5.8-6.85c-3.7-3.5-8.033-5.683-13-6.55-4.8-.7-9.216.3-13.25 3-3.966 2.634-6.866 6.317-8.7 11.05a72.047 72.047 0 0 1-6.25 12.4 62.132 62.132 0 0 1-7.9 10.3c-3.3 3.534-6.85 6.85-10.65 9.95a29.748 29.748 0 0 0-8.4 10.75c-2.1 4.6-2.866 8.9-2.3 12.9.534 3.967 2.084 7.467 4.65 10.5 2.534 3.034 5.8 4.884 9.8 5.55 4 .634 7.917.817 11.75.55 3.8-.3 8.034-.966 12.7-2a57.022 57.022 0 0 0 13.3-4.75c4.2-2.166 8.217-4.583 12.05-7.25 3.9-2.633 7.417-5.7 10.55-9.2 3.067-3.4 5.467-7.2 7.2-11.4a40.5 40.5 0 0 0 3-13.2z" id="b"/><filter x="-90.3%" y="-63%" width="280.7%" height="276.4%" filterUnits="objectBoundingBox" id="a"><feOffset dy="22" in="SourceAlpha" result="shadowOffsetOuter1"/><feGaussianBlur stdDeviation="22" in="shadowOffsetOuter1" result="shadowBlurOuter1"/><feColorMatrix values="0 0 0 0 0 0 0 0 0 0 0 0 0 0 0 0 0 0 0.1 0" in="shadowBlurOuter1"/></filter><filter x="-76.9%" y="-49.8%" width="253.7%" height="250.1%" filterUnits="objectBoundingBox" id="d"><feGaussianBlur stdDeviation="11.5" in="SourceAlpha" result="shadowBlurInner1"/><feOffset dx="-20" dy="-9" in="shadowBlurInner1" result="shadowOffsetInner1"/><feComposite in="shadowOffsetInner1" in2="SourceAlpha" operator="arithmetic" k2="-1" k3="1" result="shadowInnerInner1"/><feColorMatrix values="0 0 0 0 1 0 0 0 0 1 0 0 0 0 1 0 0 0 0.1 0" in="shadowInnerInner1"/></filter></defs><g transform="translate(-303 -715)" fill-rule="nonzero" fill="none"><use fill="#000" filter="url(#a)" xlink:href="#b"/><use fill="url(#c)" xlink:href="#b"/><use fill="#000" filter="url(#d)" xlink:href="#b"/></g></svg>