<svg width="206" height="269" xmlns="http://www.w3.org/2000/svg" xmlns:xlink="http://www.w3.org/1999/xlink"><defs><linearGradient x1="59.479%" y1="22.785%" x2="37.644%" y2="94.64%" id="c"><stop stop-color="#F0834A" offset="0%"/><stop stop-color="#F0834A" stop-opacity=".229" offset="100%"/></linearGradient><path d="M1030.285 549.093c-8.577-8.048-18.545-11.717-29.902-11.007-12.152 1.105-23.39 5.524-33.715 13.256-10.246 7.733-19.578 16.176-27.997 25.328-8.419 9.153-15.726 19.687-21.92 31.601-6.99 13.335-12.232 27.696-15.727 43.082-2.938 12.94-4.606 25.762-5.003 38.465-.318 15.466 3.018 28.564 10.007 39.295 7.148 10.81 16.163 18.384 27.044 22.724 10.88 4.34 25.613 5.286 44.198 2.84 18.506-2.367 33.994-9.902 46.463-22.606 12.549-12.86 19.538-24.933 20.968-36.216 1.509-11.363-.239-22.961-5.242-34.797-5.083-12.072-3.852-25.13 3.693-39.176 7.545-14.045 9.65-27.734 6.314-41.07-3.018-7.968-6.632-15.07-10.841-21.303-2.462-4.024-5.242-7.496-8.34-10.416z" id="b"/><filter x="-35.5%" y="-15.1%" width="158.1%" height="141.3%" filterUnits="objectBoundingBox" id="a"><feOffset dx="-10" dy="12" in="SourceAlpha" result="shadowOffsetOuter1"/><feGaussianBlur stdDeviation="13" in="shadowOffsetOuter1" result="shadowBlurOuter1"/><feColorMatrix values="0 0 0 0 0 0 0 0 0 0 0 0 0 0 0 0 0 0 0.08 0" in="shadowBlurOuter1"/></filter></defs><g transform="translate(-860 -525)" fill-rule="nonzero" fill="none"><use fill="#000" filter="url(#a)" xlink:href="#b"/><use fill="url(#c)" xlink:href="#b"/></g></svg>
