
<svg width="6px" height="6px" viewBox="0 0 6 6" version="1.1" xmlns="http://www.w3.org/2000/svg" xmlns:xlink="http://www.w3.org/1999/xlink">
    <g id="Page-1" stroke="none" stroke-width="1" fill="none" fill-rule="evenodd">
        <g id="Group" transform="translate(0.853331, 0.853337)" fill="#4735E2">
            <path d="M4.200599,2.35035304 C4.450827,2.95401004 4.626469,3.37772304 4.45865,4.15744304 C4.45648858,4.16750214 4.45562638,4.17739584 4.45605551,4.18687214 C4.4564059,4.19449812 4.45769331,4.20244304 4.4599059,4.21056504 C4.46061062,4.21251386 4.46126417,4.21449811 4.46186259,4.21651386 L4.35611459,4.24794296 L4.46169359,4.21691536 L4.51238259,4.38745036 C4.513107,4.38938343 4.5137881,4.39134406 4.51441015,4.39333225 L4.51415424,4.39341492 L4.51420149,4.3935724 L4.51427629,4.39354878 C4.52674479,4.43337558 4.52197314,4.47463938 4.50413459,4.50922978 C4.48626059,4.54384398 4.45533149,4.57170218 4.41550069,4.58465498 L2.86583069,5.08884398 C2.86343699,5.08978493 2.86099211,5.090655 2.85849998,5.09144241 L2.84307868,5.04246601 L2.84293301,5.04259593 L2.85812201,5.09135973 L2.85768107,5.09149753 C2.81788577,5.10399363 2.77662197,5.09920619 2.74200807,5.08136363 C2.71102377,5.06537543 2.68546867,5.03892273 2.67114587,5.00498173 C2.66920099,5.00075338 2.66749233,4.99635968 2.66605926,4.99180453 L2.66606319,4.99180453 C2.66576004,4.99084784 2.66546083,4.98988327 2.6651813,4.98891083 L2.66556319,4.98880059 L2.63442539,4.88122959 C2.6336065,4.87909967 2.63284665,4.87693431 2.63215374,4.87472959 L2.63250808,4.87461936 L2.63244902,4.87440676 L2.63227186,4.87445794 C2.62783485,4.86030834 2.62062226,4.84741074 2.61123646,4.83646184 C2.60317347,4.82705633 2.59340966,4.81900124 2.58233486,4.81274134 C1.85848886,4.56655234 1.69427986,4.35571034 1.44347486,4.03351334 C1.31634486,3.87019434 1.16529786,3.67617834 0.895033855,3.43117034 C0.817581055,3.38129634 0.763777855,3.30667034 0.738462855,3.22320934 C0.712183355,3.13659514 0.716888055,3.04064634 0.757974655,2.95326834 C0.800813255,2.86219744 0.875533655,2.79587034 0.962797655,2.76184734 C1.04708506,2.72899304 1.14296266,2.72619384 1.23296266,2.76026073 C1.38810466,2.79531193 1.54995066,2.92946973 1.68028566,3.05907173 L1.03970666,1.09020173 C1.03889957,1.08815449 1.0381476,1.08607181 1.03745863,1.08394976 L1.03765548,1.08388677 L1.03765154,1.08387889 L1.09402164,1.06555209 L1.14236414,1.04982379 L1.03764714,1.08387099 C1.00624954,0.987343394 1.01688334,0.887323994 1.05947394,0.803653994 C1.10092674,0.722209094 1.17271794,0.656122994 1.26552494,0.623681994 C1.26802494,0.622662304 1.270584,0.621717424 1.27319423,0.620870974 L1.27325722,0.621067824 L1.27327297,0.621063887 L1.29419427,0.685429987 L1.30732417,0.725776487 L1.27328087,0.621059487 C1.36980447,0.589653987 1.46983587,0.600299687 1.55350487,0.642886287 C1.63719777,0.685488687 1.70468587,0.760130287 1.73609887,0.856689287 L1.97389787,1.58758729 C2.01615377,1.50589829 2.08859487,1.43969329 2.18199987,1.40707529 C2.18450381,1.40605167 2.18706286,1.40511072 2.18967704,1.40426033 L2.18974397,1.40445718 L2.1897479,1.40445718 L2.19755105,1.42847288 L2.22380695,1.50916578 L2.18976365,1.40444878 C2.28771245,1.37258268 2.38923565,1.38338188 2.47415765,1.42660628 C2.52186235,1.45088978 2.56437815,1.48542908 2.59813365,1.52839728 C2.64209035,1.45623978 2.71038965,1.39835828 2.79610965,1.36835828 C2.80128682,1.36621261 2.80666875,1.36446064 2.81221205,1.36311419 C2.90912145,1.33389369 3.00892105,1.34542519 3.09278305,1.38810239 C3.16927515,1.42703939 3.23261005,1.49195239 3.26850705,1.57555939 C3.31217245,1.50987039 3.37686105,1.45744139 3.45684605,1.42952439 C3.45933818,1.4285047 3.46188936,1.4275677 3.46449172,1.42672124 L3.46455472,1.42691809 L3.46457046,1.42691415 L3.48549176,1.49128025 L3.49862166,1.53162675 L3.46457836,1.42690975 C3.56172006,1.39530735 3.66277536,1.40577195 3.74787736,1.44837825 C3.83304666,1.49102395 3.90202336,1.56573225 3.93495636,1.66254325 C4.02459806,1.92577525 4.11693636,2.14852325 4.20060236,2.35035025 L4.200599,2.35035304 Z" id="Path" fill-rule="nonzero"></path>
            <path d="M0.318179378,0.2080294 C0.678687042,0.111591687 1.04876419,0.0347263357 1.420689,0.00899503779 C1.823799,-0.0188947622 2.224256,0.0153099978 2.606699,0.150538038 C2.61308483,0.152793948 2.6192344,0.155419928 2.6251399,0.158376618 L2.6104824,0.209679718 L2.6084824,0.209108852 L2.536695,0.460360852 C2.5244863,0.459069512 2.5122383,0.456352982 2.5001635,0.452081322 C2.1596005,0.331664322 1.8012775,0.303242322 1.4424935,0.328065322 C1.09413553,0.352170058 0.746174694,0.424802685 0.408057927,0.515004463 L0.408569,0.516793038 L0.406569,0.517363038 L0.466219,0.726133038 L2.22044605e-16,0.467123038 L0.258999,0.00090303779 L0.318179378,0.2080294 Z" id="Combined-Shape"></path>
        </g>
    </g>
</svg>