<?xml version="1.0" encoding="UTF-8"?>
<svg width="16px" height="16px" viewBox="0 0 16 16" version="1.1" xmlns="http://www.w3.org/2000/svg" xmlns:xlink="http://www.w3.org/1999/xlink">
    <!-- Generator: Sketch 54.1 (76490) - https://sketchapp.com -->
    <title>icon-linkedin</title>
    <desc>Created with Sketch.</desc>
    <g id="2.0" stroke="none" stroke-width="1" fill="none" fill-rule="evenodd">
        <g id="Desktop-HD" transform="translate(-1016.000000, -73.000000)" fill="#FFFFFF">
            <g id="Nav" transform="translate(264.000000, 55.000000)">
                <g id="Social" transform="translate(717.000000, 15.000000)">
                    <path d="M47.0109048,7.66 C49.261381,7.66 50.947619,9.112 50.947619,12.2344 L50.947619,18.0608 L47.529,18.0608 L47.529,12.624 C47.529,11.2576 47.034381,10.3256 45.7974286,10.3256 C44.8527143,10.3256 44.2917143,10.9544 44.044,11.5616 C43.9533333,11.7792 43.9306667,12.0824 43.9306667,12.3848 L43.9306667,18.0608 L40.5128571,18.0608 C40.5128571,18.0608 40.5581905,8.852 40.5128571,7.8992 L43.9306667,7.8992 L43.9306667,9.34 C43.923381,9.3504 43.9144762,9.3624 43.9088095,9.372 L43.9306667,9.372 L43.9306667,9.34 C44.384,8.648 45.1951429,7.66 47.0109048,7.66 Z M35.202381,7.8992 L38.6218095,7.8992 L38.6218095,18.0608 L35.202381,18.0608 L35.202381,7.8992 Z M36.9347619,3 C38.1037143,3 38.823381,3.7584 38.8460476,4.7544 C38.8460476,5.7312 38.1037143,6.5112 36.9129048,6.5112 L36.8894286,6.5112 C35.7431429,6.5112 35,5.7312 35,4.7544 C35,3.7584 35.7658095,3 36.9347619,3 Z" id="icon-linkedin"></path>
                </g>
            </g>
        </g>
    </g>
</svg>