<?xml version="1.0" encoding="UTF-8"?>
<svg width="18px" height="15px" viewBox="0 0 18 15" version="1.1" xmlns="http://www.w3.org/2000/svg" xmlns:xlink="http://www.w3.org/1999/xlink">
    <!-- Generator: Sketch 54.1 (76490) - https://sketchapp.com -->
    <title>icon-twitter</title>
    <desc>Created with Sketch.</desc>
    <g id="2.0" stroke="none" stroke-width="1" fill="none" fill-rule="evenodd">
        <g id="Desktop-HD" transform="translate(-981.000000, -73.000000)" fill="#FFFFFF">
            <g id="Nav" transform="translate(264.000000, 55.000000)">
                <g id="Social" transform="translate(717.000000, 15.000000)">
                    <path d="M18,4.75765489 C17.3377154,5.05577657 16.6259849,5.25726433 15.8789641,5.3478837 C16.6414573,4.88396065 17.2269725,4.1493824 17.5027104,3.27413027 C16.7892022,3.70363668 15.9988588,4.01559185 15.1576868,4.18373222 C14.4840119,3.45523536 13.524262,3 12.462131,3 C10.4226051,3 8.76909909,4.6782627 8.76909909,6.74827373 C8.76909909,7.04205156 8.80182157,7.32814413 8.86476462,7.60247489 C5.79556677,7.44616316 3.07446505,5.95388402 1.25306705,3.68612763 C0.935191485,4.23973445 0.75307802,4.8836265 0.75307802,5.57055607 C0.75307802,6.87097075 1.40509163,8.01828146 2.39598376,8.69044195 C1.79058488,8.67099487 1.22120048,8.50238671 0.723252496,8.22164042 C0.722989136,8.23727827 0.722989136,8.25298296 0.722989136,8.26875447 C0.722989136,10.0848842 1.99593987,11.5998851 3.68532865,11.9441852 C3.37541973,12.0298593 3.04918249,12.0756367 2.712345,12.0756367 C2.47439921,12.0756367 2.24303742,12.05218 2.01760123,12.0084073 C2.48750137,13.4976124 3.85131131,14.5813024 5.46728849,14.6115757 C4.20342368,15.616876 2.61108307,16.2161266 0.880939317,16.2161266 C0.582881598,16.2161266 0.288905959,16.1984171 0,16.1637999 C1.6342807,17.2273078 3.57544168,17.8478099 5.66092395,17.8478099 C12.453506,17.8478099 16.1679359,12.1361833 16.1679359,7.18292592 C16.1679359,7.02039915 16.1643806,6.85874114 16.1572698,6.69801874 C16.8787447,6.16953941 17.5048831,5.50934122 18,4.75765489" id="icon-twitter"></path>
                </g>
            </g>
        </g>
    </g>
</svg>