<?xml version="1.0" encoding="UTF-8"?>
<svg width="21px" height="21px" viewBox="0 0 21 21" version="1.1" xmlns="http://www.w3.org/2000/svg" xmlns:xlink="http://www.w3.org/1999/xlink">
    <!-- Generator: Sketch 54.1 (76490) - https://sketchapp.com -->
    <title>icon-github</title>
    <desc>Created with Sketch.</desc>
    <g id="2.0" stroke="none" stroke-width="1" fill="none" fill-rule="evenodd">
        <g id="Desktop-HD" transform="translate(-1049.000000, -70.000000)" fill="#FFFFFE">
            <g id="Nav" transform="translate(264.000000, 55.000000)">
                <g id="Social" transform="translate(717.000000, 15.000000)">
                    <path d="M68,10.5003223 C68,15.139415 71.0082875,19.0746186 75.1806992,20.463059 C75.7060376,20.5597471 75.89748,20.2355198 75.89748,19.9570582 C75.89748,19.7076031 75.8884558,19.047546 75.8832991,18.1715522 C72.9626753,18.8058258 72.3464502,16.7637742 72.3464502,16.7637742 C71.8688112,15.5506615 71.1803923,15.2277234 71.1803923,15.2277234 C70.2270481,14.5766905 71.252586,14.5895822 71.252586,14.5895822 C72.3064858,14.6637098 72.8608306,15.6718438 72.8608306,15.6718438 C73.7974155,17.2762209 75.3186408,16.8127628 75.9168176,16.54397 C76.0122165,15.8658645 76.2835876,15.403051 76.5833205,15.1407041 C74.2518494,14.8757789 71.800485,13.9746462 71.800485,9.95113417 C71.800485,8.80505847 72.2097977,7.86718438 72.8814574,7.13364437 C72.7731668,6.86807453 72.4128426,5.79999386 72.9845913,4.3548298 C72.9845913,4.3548298 73.8657417,4.07250069 75.8716965,5.43129009 C76.709015,5.1979496 77.6075693,5.08192394 78.5003223,5.07741183 C79.3924307,5.08192394 80.2903404,5.1979496 81.1289481,5.43129009 C83.1336137,4.07250069 84.0134749,4.3548298 84.0134749,4.3548298 C84.5865128,5.79999386 84.2261886,6.86807453 84.1185426,7.13364437 C84.7914915,7.86718438 85.1975813,8.80505847 85.1975813,9.95113417 C85.1975813,13.9849596 82.7423494,14.8725559 80.4037877,15.1323245 C80.7802265,15.4565518 81.1160564,16.0972712 81.1160564,17.0763989 C81.1160564,18.4803094 81.1031646,19.6128488 81.1031646,19.9570582 C81.1031646,20.2380982 81.2926732,20.5649038 81.8251021,20.4624144 C85.9942908,19.0707511 89,15.1381258 89,10.5003223 C89,4.70097302 84.2983824,0 78.4990331,0 C72.7016176,0 68,4.70097302 68,10.5003223 Z" id="icon-github"></path>
                </g>
            </g>
        </g>
    </g>
</svg>