<?xml version="1.0" encoding="UTF-8"?>
<svg width="20px" height="20px" viewBox="0 0 20 20" version="1.1" xmlns="http://www.w3.org/2000/svg" xmlns:xlink="http://www.w3.org/1999/xlink">
    <!-- Generator: Sketch 54.1 (76490) - https://sketchapp.com -->
    <title>icon-dribbble</title>
    <desc>Created with Sketch.</desc>
    <g id="2.0" stroke="none" stroke-width="1" fill="none" fill-rule="evenodd">
        <g id="Desktop-HD" transform="translate(-1087.000000, -70.000000)" fill="#FFFFFF">
            <g id="Nav" transform="translate(264.000000, 55.000000)">
                <g id="Social" transform="translate(717.000000, 15.000000)">
                    <path d="M119.465768,18.9812364 C118.367339,19.3943273 117.180518,19.6241455 115.937714,19.6241455 C113.726125,19.6241455 111.687786,18.9015273 110.03425,17.6896 C110.386054,17.1182545 111.13975,16.0215273 112.338946,14.8875636 C113.574089,13.7192727 115.278304,12.5172364 117.503446,11.8010182 C118.2595,13.8944 118.94425,16.2874182 119.465768,18.9812364 Z M107.090179,7.44669091 C106.781982,7.44669091 106.517393,7.44203636 106.296411,7.43505455 C107.009446,4.61847273 108.964107,2.28538182 111.548125,1.02283636 C112.238179,1.82749091 113.619464,3.5968 115.094446,6.35927273 C112.094982,7.24072727 109.073714,7.44785455 107.24575,7.44727273 C107.194482,7.44727273 107.142625,7.44727273 107.091946,7.44669091 L107.090179,7.44669091 Z M113.825714,0.233890909 C114.508696,0.0849454545 115.212893,-1.77635684e-14 115.937714,-1.77635684e-14 C118.282482,-1.77635684e-14 120.432196,0.809309091 122.134643,2.15621818 C120.831732,3.69629091 119.112196,4.81163636 117.254768,5.59883636 C115.9495,3.10690909 114.687839,1.32421818 113.825714,0.233890909 Z M116.684929,9.70938182 C114.32425,10.4884364 112.465054,11.7300364 111.09025,12.9669818 C109.766714,14.1573818 108.872179,15.3367273 108.349482,16.1239273 C106.887464,14.4145455 106.000589,12.2176 106,9.81178182 C106,9.76581818 106.001768,9.71869091 106.004125,9.6704 C106.287571,9.68087273 106.652339,9.6896 107.092536,9.6896 C109.089625,9.6768 112.577607,9.51214545 116.112732,8.41018182 C116.304839,8.82618182 116.495768,9.25905455 116.684929,9.70938182 Z M118.244768,7.62356364 C120.254232,6.75374545 122.181786,5.51505455 123.743393,3.75563636 C124.985607,5.31374545 125.763464,7.24305455 125.862464,9.34981818 C124.424018,9.04901818 123.065714,8.9024 121.79875,8.9024 L121.79875,8.90181818 L121.789321,8.90181818 C120.769857,8.90181818 119.812268,8.99316364 118.910071,9.15141818 C118.690857,8.6208 118.468696,8.11170909 118.244768,7.62356364 Z M121.795214,11.1453091 C122.980857,11.1453091 124.283179,11.2907636 125.695696,11.6078545 C125.207179,14.2021818 123.685054,16.4363636 121.562446,17.8821818 C121.058607,15.4455273 120.424536,13.2491636 119.728,11.2884364 C120.373857,11.1970909 121.051536,11.1453091 121.766339,11.1453091 L121.795214,11.1453091 Z" id="icon-dribbble"></path>
                </g>
            </g>
        </g>
    </g>
</svg>