<svg width="1076" height="1005" xmlns="http://www.w3.org/2000/svg" xmlns:xlink="http://www.w3.org/1999/xlink"><defs><path d="M212.36.43H14.96a14.9 14.9 0 0 0-14.9 14.9h212.3V.43" id="a"/><path id="c" d="M193.41.35H44.66L.97 128.23h148.75L193.41.35"/><path d="M82.14 18.61a63.74 63.74 0 0 0-63.66 63.67 63.74 63.74 0 0 0 63.66 63.66 63.74 63.74 0 0 0 63.67-63.66A63.74 63.74 0 0 0 82.14 18.6zm0 145.33C37.11 163.94.48 127.31.48 82.28.48 37.25 37.1.6 82.14.6c45.03 0 81.67 36.64 81.67 81.67s-36.64 81.66-81.67 81.66z" id="e"/><linearGradient x1="65.73%" y1="97.47%" x2="34.27%" y2="2.53%" id="f"><stop stop-color="#4092AA" offset="0%"/><stop stop-color="#54BBBA" offset="100%"/></linearGradient><path d="M218.18 205.53c1.28-.77 65-34.85 56.1-63.85-2.79-9.08-12.83-7.08-15.33-15.23-2.5-8.16 18.93-14.08 14.02-30.08-8.04-26.18-40.17-26-40.17-26s15.09-18.69-.45-39.34c-15.54-20.65-31.08-6.96-31.08-6.96s-28.03-42.39-96.63-13.29c-53.28 22.6-10.4 64.97-3.64 79 3.7 7.68 4.06 18.2-23.37 26.62-12.85 3.95-28.34 1.95-44.9 7.03-16.56 5.09-31.13 19.3-26.35 34.87 4.78 15.57 19.28 21.4 19.28 21.4s-32.05 6.59-23.7 33.78c8.35 27.18 55.9 25.3 88.04 15.42 32.13-9.86 82.39-46.12 82.39-46.12l45.79 22.75" id="h"/><linearGradient x1="82.27%" y1="60.24%" x2="-13.5%" y2="39.39%" id="i"><stop stop-color="#100F26" offset="0%"/><stop stop-color="#3E2F64" offset="100%"/></linearGradient><path id="k" d="M4.55 5.34L.7.97l.15 10.21 5.73 1.15 2.24-4.09-4.27-2.9"/><linearGradient x1="70.05%" y1="78.51%" x2="11.24%" y2="34.79%" id="l"><stop stop-color="#100F26" offset="0%"/><stop stop-color="#3E2F64" offset="100%"/></linearGradient><path d="M2.68.6a30.96 30.96 0 0 0 7.84 5.74c5.04 2.68 7.07 4.02 10.11 3.55 6.46 5.32 14.37 6.67 13.15 8.97-1.4 2.63-7.68 1.49-18.13-2.53C4.67 12.1.54 7.12.61 4.14.65 2.42 1.42 1.25 2.68.6" id="n"/><linearGradient x1="102.51%" y1="56.04%" x2="-2.04%" y2="44.89%" id="o"><stop stop-color="#100F26" offset="0%"/><stop stop-color="#3E2F64" offset="100%"/></linearGradient><path d="M1.4.23L52.24 6s112.91 67.31 123.8 119.24c12.19 53.2 5.27 185.26 5.27 185.26h-7.91s-24.43-51.74-29.06-88.72c-4.48-35.9 2.86-87.57 2.86-87.57s-92.47 2.72-130.42-65.48C-5.87 28 1.39.23 1.39.23" id="q"/><linearGradient x1="43.6%" y1="-13.87%" x2="62.57%" y2="111.43%" id="r"><stop stop-color="#4092AA" offset="0%"/><stop stop-color="#54BBBA" offset="100%"/></linearGradient><path id="t" d="M4.49 4.77L1.08.04.23 10.22l5.59 1.71 2.63-3.85-3.96-3.31"/><linearGradient x1="67.92%" y1="80.7%" x2="16.64%" y2="31.36%" id="u"><stop stop-color="#100F26" offset="0%"/><stop stop-color="#3E2F64" offset="100%"/></linearGradient><path d="M2.49.88a30.94 30.94 0 0 0 7.23 6.5c4.75 3.16 6.64 4.7 9.71 4.53 5.9 5.93 13.65 8.05 12.2 10.22-1.64 2.48-7.79.72-17.79-4.31C3.34 12.52-.29 7.17.08 4.22c.2-1.72 1.09-2.8 2.4-3.34" id="w"/><linearGradient x1="104.02%" y1="61.43%" x2="-3.12%" y2="39.98%" id="x"><stop stop-color="#100F26" offset="0%"/><stop stop-color="#3E2F64" offset="100%"/></linearGradient><path d="M43.64.96S68.3 35.4 83.36 76.03c28.83 4.28 65.6 20.14 65.6 20.14l1.27 8.7s-52.58 7.83-85.5-5.56C33 73.31.13 44.98.13 44.98L43.63.96" id="z"/><linearGradient x1="0%" y1="50%" y2="50%" id="A"><stop stop-color="#D42433" offset="0%"/><stop stop-color="#DD4369" offset="100%"/></linearGradient><path d="M89.08 26.03l-3.97 20.95s75.05 69.9 61.26 106.6c-13.8 36.7-88.47 164.13-88.47 164.13l-7.87-1.5s.8-52.13 14.2-92.27c13.39-40.15 49.1-76.52 49.1-76.52S-12.95 116.97 2.1 54.09C10.32 8.1 37.74.91 37.74.91l51.34 25.12" id="C"/><linearGradient x1="44.36%" y1="-6.02%" x2="59%" y2="116.7%" id="D"><stop stop-color="#4092AA" offset="0%"/><stop stop-color="#54BBBA" offset="100%"/></linearGradient><path d="M98.98 163.34s5.22-21.62 20.19-45.21c14.68-23.15 26.99-54.75 21.96-78.54C134.75 9.42 104.25.69 69.99.69 35.71.7 5.05 37.26 1.39 74.3c-3.34 33.73 6.79 91.6 6.79 91.6s52.77 17.53 90.8-2.55" id="F"/><linearGradient x1="0%" y1="50%" y2="50%" id="G"><stop stop-color="#D42433" offset="0%"/><stop stop-color="#DD4369" offset="100%"/></linearGradient><path d="M40.13 12.47S24.8 32.83 28.95 59.1C33.1 85.38.67 58.87.67 58.87S2.24 23.64 31.6 7.02c29.37-16.62 8.52 5.44 8.52 5.44" id="I"/><linearGradient x1="54.21%" y1="52.67%" x2="74.48%" y2="20.96%" id="J"><stop stop-color="#F7CFB1" offset="0%"/><stop stop-color="#ED9B73" offset="100%"/></linearGradient><path d="M35.28 17.01c4.73 11.9 5.75 25.41-4.73 29.58C20.07 50.76 7.53 42.26 2.8 30.37-1.93 18.47.45 5.9 10.93 1.73 21.4-2.44 30.55 5.12 35.28 17.01" id="L"/><linearGradient x1="48.92%" y1="46.58%" x2="75.24%" y2="206.13%" id="M"><stop stop-color="#F7CFB1" offset="0%"/><stop stop-color="#ED9B73" offset="100%"/></linearGradient><path d="M.73 25.25c2.04 12.17 10.04 20.98 17.86 19.67 7.82-1.32 12.5-12.25 10.46-24.43C27.01 8.32 19.01-.49 11.19.82 3.37 2.14-1.31 13.07.73 25.25" id="O"/><linearGradient x1="50.62%" y1="52.72%" x2="37.32%" y2="-5.68%" id="P"><stop stop-color="#F7CFB1" offset="0%"/><stop stop-color="#ED9B73" offset="100%"/></linearGradient><path d="M.9 17.61c0 9.32 10.71 18.69 23.92 18.69s23.92-9.37 23.92-18.69C48.74 8.3 38.04.74 24.82.74 11.62.74.9 8.29.9 17.6" id="R"/><linearGradient x1="170.63%" y1="72.67%" x2="-379.04%" y2="-31.3%" id="S"><stop stop-color="#100F26" offset="0%"/><stop stop-color="#3E2F64" offset="100%"/></linearGradient><path d="M.2 5.24C.2 7.8 1.7 9.87 3.52 9.87c1.84 0 3.32-2.07 3.32-4.63S5.37.6 3.52.6C1.7.6.2 2.68.2 5.24" id="U"/><linearGradient x1="76.92%" y1="158.85%" x2="7.76%" y2="-120.81%" id="V"><stop stop-color="#F7CFB1" offset="0%"/><stop stop-color="#ED9B73" offset="100%"/></linearGradient><path id="X" d="M36.65 39.12l-21.22 5.86L.7 8.52 30.6.27l6.05 38.85"/><path d="M7.98.85L.16 22.61S19.3 69 68.23 115.55c41.05-1.71 77.66-57.48 77.66-57.48l-8.21-8.73s-27.71 10.44-55.51 34.9c.46-40.86-12.5-62.69-12.5-62.69L7.97.85" id="Z"/><linearGradient x1="0%" y1="50%" y2="50%" id="aa"><stop stop-color="#D42433" offset="0%"/><stop stop-color="#DD4369" offset="100%"/></linearGradient></defs><g fill="none" fill-rule="evenodd"><path fill="#FFFFFE" d="M.06 1005h1075.06V.91H.06z"/><g transform="translate(469.000000, 556.000000)"><mask id="b" fill="#fff"><use xlink:href="#a"/></mask><path d="M212.36.43H14.96a14.9 14.9 0 0 0-14.9 14.9h212.3V.43" mask="url(#b)"/></g><g transform="translate(533.000000, 429.000000)"><mask id="d" fill="#fff"><use xlink:href="#c"/></mask><path mask="url(#d)" d="M193.41.35H44.66L.97 128.23h148.75L193.41.35"/></g><path fill="#B5ABC9" d="M244.96 207.17l-3.35-23.02 18.87 14.95 4.83-16.33 17.16 5.07-.42 1.44-15.73-4.65-5.03 17.03-17.65-13.99 2.8 19.28-1.48.22M478.49 343.2c-2.3 0-4.53.79-6.36 2.25a10.2 10.2 0 1 0 16.5 9.04c.3-2.7-.48-5.36-2.18-7.48a10.11 10.11 0 0 0-7.96-3.8zm.04 21.88a11.7 11.7 0 0 1-7.34-20.8 11.62 11.62 0 0 1 8.59-2.5c3.1.34 5.88 1.86 7.84 4.3a11.61 11.61 0 0 1 2.5 8.58l-.74-.08.75.08a11.6 11.6 0 0 1-4.3 7.84 11.6 11.6 0 0 1-7.3 2.58zM492.4 332.13a3.67 3.67 0 1 0 3.66 4.06 3.67 3.67 0 0 0-3.65-4.06zm.02 8.83l-.57-.03a5.17 5.17 0 1 1 .57.03zM920.3 302.98l14.9 5.34 5.34-14.9-14.9-5.34-5.34 14.9zm15.8 7.25l-17.72-6.34 6.35-17.73 17.73 6.35-6.35 17.73zM841.2 174.24l2.87 6.07 6.07-2.87-2.87-6.07-6.07 2.87zm2.15 8.06l-4.15-8.78 8.78-4.14 4.15 8.78-8.78 4.14zM134.5 345.63l2.87 6.07 6.07-2.87-2.87-6.07-6.06 2.87zm2.16 8.07l-4.15-8.78 8.78-4.15 4.15 8.78-8.78 4.15z"/><path d="M527.3 557.46h154.78l42.86-127.99H570.17L527.3 557.47zm155.86 1.5H525.22l43.87-130.99h157.94l-43.87 130.99zM486.55 558.96h33.21v-1.5h-33.21z" fill="#211D43"/><path fill="#211D43" d="M682.03 570.01h1.5v-11.8h-1.5zM627.43 486.45a8.12 8.12 0 0 0 0 16.22 8.12 8.12 0 0 0 0-16.22zm0 17.72a9.62 9.62 0 0 1 0-19.22 9.62 9.62 0 0 1 0 19.22z"/><path d="M886.55 871.28l-1.5-.14c2.52-25.98-16.47-47.52-31.19-51.53-8.64-2.36-16.81-.13-25.46 2.22-7.86 2.14-15.98 4.35-24.45 2.8-5.61-1.02-12.59-2.29-17.52-6.64-6.95-6.13-7.78-16.43-6.24-24.02 4.85-23.88 30.29-36.76 51.76-36.76 18.79 0 33.7 7.87 44.3 23.39 9.24 13.5 13.65 30.5 16.28 40.67l-1.45.38c-5.7-22-16.32-62.94-59.13-62.94-20.88 0-45.6 12.46-50.3 35.56-1.45 7.18-.7 16.89 5.77 22.6 4.62 4.07 11.37 5.3 16.8 6.29 8.14 1.48 16.1-.68 23.78-2.77 8.47-2.3 17.22-4.69 26.26-2.23 15.23 4.15 34.88 26.36 32.29 53.13M897.16 792.27l-1.46-.34c4.42-18.57 1.3-33.6-2-49.51-3.3-16-6.73-32.52-3.66-54.91 1.98-14.48 7.14-33.28 15.66-42.65 3-3.32 9.28-7.18 13.7-8.44 12.09-3.46 22.82-1.75 30.23 4.8 11.57 10.25 14.95 31.21 10.05 62.33-4.7 29.8-17.98 54.18-28.3 69.37l-1.23-.84c10.22-15.07 23.4-39.23 28.05-68.76 4.75-30.15 1.44-51.23-9.56-60.97-9.46-8.37-22.13-6.4-28.84-4.49-4.11 1.18-10.19 4.92-13 8-8.29 9.13-13.41 28.25-15.28 41.85-3.03 22.13.37 38.54 3.66 54.4 3.33 16.08 6.48 31.27 1.98 50.16M865.65 763.77c-4.01-5.35-9.64-8.9-15.08-12.34-11.2-7.05-22.76-14.35-21.94-37.36.4-10.84-7.33-15.38-16.28-20.64-7.07-4.15-14.38-8.44-18.55-16.38-8.89-16.94-9.6-42.41 6.61-56.24 11.45-9.77 29.57-11.26 44.06-3.6 15 7.9 32.23 30.09 35.61 68.6l-1.5.14c-3.33-37.92-20.17-59.69-34.82-67.42-13.95-7.37-31.38-5.96-42.38 3.42-15.61 13.33-14.87 37.97-6.25 54.4 3.97 7.56 11.09 11.75 17.98 15.79 8.97 5.27 17.45 10.25 17.02 21.99-.8 22.14 9.9 28.89 21.24 36.04 5.56 3.5 11.3 7.13 15.48 12.7l-1.2.9" fill="#B5ABC9"/><path d="M878.59 761.07c-1.81-27.06-9.52-38.67-16.97-49.9-5.75-8.67-11.7-17.64-14.59-33.5-7.62-41.91-35.48-47.04-35.76-47.09l.24-1.48c.3.05 29.18 5.3 37 48.3 2.83 15.56 8.43 24 14.36 32.94 7.56 11.4 15.38 23.18 17.21 50.63l-1.5.1M905.01 869.91c-2.72-19.14 5.33-41.55 11.87-46.74 1.81-1.44 3.2-1.35 4.04-1.02 18.36 7.14 36.8 2.87 46.94-4.53 6.52-4.75 9.9-10.67 9.54-16.66a19.45 19.45 0 0 0-6.69-13.94c-11.2-9.83-32.69-8.46-32.9-8.44-11.27 1.6-20.43 6.99-27.17 15.98-19.5 26.04-12.8 74.29-12.74 74.77l-1.48.21c-.07-.49-6.85-49.35 13.02-75.88 6.98-9.32 16.48-14.9 28.21-16.58.96-.06 22.37-1.43 34.05 8.8 4.4 3.87 6.82 8.91 7.2 14.99.39 6.42-3.31 12.97-10.15 17.96-10.47 7.64-29.5 12.07-48.37 4.72-.7-.27-1.56 0-2.57.8-6.28 4.98-13.97 26.7-11.31 45.35l-1.49.21M863.3 873.18v28.53A18.3 18.3 0 0 0 881.6 920h29.25a18.3 18.3 0 0 0 18.28-18.28v-28.53h-65.81zm47.54 48.31H881.6a19.8 19.8 0 0 1-19.78-19.78v-30.03h68.81v30.03a19.8 19.8 0 0 1-19.78 19.78zM605.14 250.9l-1.33-.69c.18-.34 18.24-34.47 57.18-33.84 41.44.67 60.91-24.5 61.1-24.75l1.2.9c-.2.26-19.6 25.36-60.68 25.36a101.68 101.68 0 0 1-2.69-.02c-37.31 0-54.6 32.7-54.78 33.04" fill="#B5ABC9"/><path d="M660.55 246.28c-11.1 0-22.95-3.17-35.46-9.51l.67-1.34c20.38 10.33 38.95 12.11 55.2 5.3 25.92-10.87 38.37-40.67 41.1-48.03-5.9 2.58-27.09 10.46-54.69 4.76-35.88-7.42-47.02 30.55-47.13 30.94l-1.45-.41c.12-.4 11.64-39.7 48.89-32 31.94 6.6 55.1-5.27 55.33-5.39l1.62-.85-.55 1.74c-.12.38-12.36 37.97-42.53 50.62a53.8 53.8 0 0 1-21 4.17M669.32 183.86l-1.23-.86c17.86-25.9 10.77-64.6 9.48-70.82-6.5 2.7-49.97 22.54-49.07 71.05l-1.5.03c-.51-27.83 13.35-46.15 25.06-56.61 12.68-11.32 25.66-16.15 25.8-16.2l.79-.28.2.82c.1.44 10.22 44.24-9.53 72.87" fill="#B5ABC9"/><path fill="#211D43" d="M933.43 571.33l-1.49-.17 7.76-70.98 1.49.16-7.76 70.99M888.02 571.34l-7.83-72.02 1.49-.16 7.83 72.01-1.49.17M881.85 494.71h-1.5v-7.27h61.7v6.9h-1.5v-5.4h-58.7v5.77"/><path fill="#211D43" d="M920.63 488.7l-1.09-1.03 5.91-6.22h8v6.74h-1.5v-5.24h-5.86l-5.46 5.75M911.27 520.64a11.19 11.19 0 0 0 0 22.36 11.19 11.19 0 0 0 0-22.36zm0 23.86a12.7 12.7 0 0 1-12.67-12.68 12.7 12.7 0 0 1 12.67-12.68c7 0 12.68 5.7 12.68 12.68 0 7-5.68 12.68-12.68 12.68z"/><path fill="#211D43" d="M910.53 543.75h1.5v-23.86h-1.5zM875.7 497.16h70.2v-1.5h-70.2zM82.21 922.74h933.85v-1.5H82.21zM401.48 577.14h657.44v-7H401.48z"/><path fill="#211D43" d="M448.29 912.51l-1.46-.33 74.55-339.22 1.47.32-74.56 339.23M434.44 912.51l-1.47-.33 74.55-339.22 1.47.32-74.55 339.23"/><path fill="#211D43" d="M493.56 635.46h15.4v-1.5h-15.4z"/><g transform="translate(454.000000, 107.000000)"><mask id="g" fill="#fff"><use xlink:href="#e"/></mask><path d="M82.14 18.61a63.74 63.74 0 0 0-63.66 63.67 63.74 63.74 0 0 0 63.66 63.66 63.74 63.74 0 0 0 63.67-63.66A63.74 63.74 0 0 0 82.14 18.6zm0 145.33C37.11 163.94.48 127.31.48 82.28.48 37.25 37.1.6 82.14.6c45.03 0 81.67 36.64 81.67 81.67s-36.64 81.66-81.67 81.66z" fill="url(#f)" mask="url(#g)"/></g><g fill="#211D43"><path d="M490.35 188.63h38.99v-1.5h-38.99zM564.9 208.62l-21.63-13.46.79-1.28 21.63 13.46-.79 1.28"/><path d="M536.37 182.73a6.56 6.56 0 1 0 0 13.11 6.56 6.56 0 0 0 0-13.11zm0 14.6a8.06 8.06 0 0 1 0-16.1 8.06 8.06 0 0 1 0 16.1z"/></g><path d="M745.13 567.73l-1.23-.86a45.97 45.97 0 0 1 37.62-19.6c14.2 0 27.36 6.41 36.13 17.6l-1.18.93a44.15 44.15 0 0 0-34.95-17.04 44.47 44.47 0 0 0-36.39 18.97M766.41 351.77l-1.26-.81 20.43-31.59-19.28-15.74-25.23 25.43-1.06-1.06 26.18-26.4 21.38 17.46-21.16 32.71" fill="#211D43"/><path d="M691.36 344.33l69.31 56.6c12.95-16.49 13.87-44.54-7.29-61.81-9.67-7.9-21.64-11.43-33.7-9.94a44.54 44.54 0 0 0-28.32 15.15zm69.53 58.71l-71.64-58.5.47-.59a46 46 0 0 1 29.78-16.26c12.47-1.54 24.84 2.1 34.83 10.26 22.13 18.07 20.88 47.56 7.03 64.51l-.47.58zM771.53 341.58a45.8 45.8 0 0 0-10.4-11.95c-4.16-3.4-8.75-6-13.61-7.74l.5-1.42a47.36 47.36 0 0 1 14.06 8 47.33 47.33 0 0 1 10.74 12.34l-1.29.77" fill="#211D43"/><path d="M723.64 388.52a13.02 13.02 0 0 1-10.06-21.22l2.21-2.7 1.17.94-2.22 2.71a11.42 11.42 0 0 0-2.53 8.43 11.51 11.51 0 0 0 20.35 6.12l1.84-2.26 1.16.95-1.84 2.26a12.98 12.98 0 0 1-10.08 4.77M794.03 549.74l-1.33-.68 54.99-106.62 1.33.69-54.99 106.61M845.39 427.39l-68.62-93.97 1.22-.89 68.62 93.98-1.22.88" fill="#211D43"/><path d="M850.04 426.73a8 8 0 1 0 .02 16.02 8 8 0 0 0-.02-16.02zm0 17.5a9.51 9.51 0 0 1 0-19 9.51 9.51 0 0 1 0 19z" fill="#211D43"/><path fill="#B5ABC9" d="M562.98 917.06h-1.5V620.73h187.29v294.64h-1.5V622.23H562.98v294.83"/><path fill="#B5ABC9" d="M577.61 913.99h-1.5V636.24h158.78v276.03h-1.5V637.74H577.61v276.25"/><path fill="#B5ABC9" d="M578.27 730.95h153.7v-1.5h-153.7zM578.27 832.29h153.7v-1.5h-153.7z"/><path d="M593.09 726.56l12.68 2.13 12.94-77.23-12.69-2.13-12.93 77.23zm13.91 3.85l-15.64-2.62 13.43-80.19 15.64 2.62-13.43 80.2z" fill="#B5ABC9"/><path fill="#B5ABC9" d="M621.9 729.67l-1.48-.24 13.06-77.97-12.68-2.13-.74 4.42-1.48-.25.99-5.9 15.64 2.62-13.31 79.45"/><path fill="#B5ABC9" d="M637.38 725.54l-1.49-.25 12.37-73.83-13.42-2.25.25-1.48 14.9 2.49-12.61 75.32M718.37 728.73h-1.5v-11.91h-70.71v10.65h-1.5v-12.15h73.71v13.41M718.37 713.96h-1.5v-11.92h-70.71v10.65h-1.5v-12.15h73.71v13.42M718.37 699.18h-1.5v-11.92h-67.94v-1.5h69.44v13.42M657.93 829.36l-1.47-.25 13.93-81.82 14.89 2.49-.24 1.48-13.43-2.24-13.68 80.34"/><path d="M673.28 826.25l12.68 2.12 12.94-77.23-12.68-2.12-12.94 77.23zm13.91 3.85l-15.64-2.62L685 747.29l15.63 2.62-13.43 80.19z" fill="#B5ABC9"/><path fill="#B5ABC9" d="M707.19 798.92l-1.48-.25 7.97-47.53-13.42-2.25.24-1.48 14.9 2.5-8.21 49.01"/><path fill="#B5ABC9" d="M717.57 825.22l-1.48-.25 12.37-73.83-13.43-2.25.25-1.48 14.9 2.5-12.61 75.31M604.24 830.25a18.93 18.93 0 0 1-7.43-15.1 19.1 19.1 0 0 1 9.57-16.51 10.28 10.28 0 0 0 5.2-8.87v-10.55h8.54v10.55c0 3.63 2 7.02 5.2 8.87a19.1 19.1 0 0 1 9.58 16.52c0 5.86-2.64 11.31-7.25 14.95l-.93-1.17a17.46 17.46 0 0 0 6.68-13.78 17.6 17.6 0 0 0-8.82-15.22c-3.67-2.11-5.96-6-5.96-10.17v-9.05h-5.53v9.05c0 4.16-2.29 8.06-5.96 10.17a17.6 17.6 0 0 0-8.82 15.22c0 5.48 2.5 10.55 6.85 13.9l-.92 1.2"/><path fill="#B5ABC9" d="M614.83 779.51l-3.66-24.49 1.48-.22 3.67 24.49-1.49.22"/><path fill="#B5ABC9" d="M617.73 780.03l-1.5-.13 3.1-34.62 1.5.13-3.1 34.62M710.11 919.59h1.5v-46.44h-1.5zM596.95 919.59h1.5v-46.87h-1.5zM595.07 869.86h118.42v-12.01H595.07v12.01zm-1.5 1.5h121.42v-15.01H593.57v15.01zM633.75 897.64h1.5v-8.45h-1.5zM670.06 897.64h1.5v-8.45h-1.5z"/><path fill="#B5ABC9" d="M635.19 894.16h34.47v-1.5h-34.47z"/><path fill="#211D43" d="M146.68 908.22l-1.48-.23 31.93-208.83 1.48.23-31.93 208.83M309.72 908.21l-30.16-208.83 1.49-.22L311.2 908l-1.48.21M304.55 695.4H166.56v-9.65a14.3 14.3 0 0 1 14.28-14.28h77.2v1.5h-77.2a12.8 12.8 0 0 0-12.78 12.78v8.15h136.5v1.5M165.9 674.2h1.5V569.63h-1.5zM165.33 542.01a7.84 7.84 0 0 0-7.83 7.83v4.62a7.84 7.84 0 0 0 7.83 7.83h29.7a7.84 7.84 0 0 0 7.82-7.83v-4.62a7.84 7.84 0 0 0-7.83-7.83h-29.69zm29.7 21.78h-29.7a9.34 9.34 0 0 1-9.33-9.33v-4.62a9.34 9.34 0 0 1 9.33-9.33h29.7a9.34 9.34 0 0 1 9.32 9.33v4.62a9.34 9.34 0 0 1-9.33 9.33zM290.78 831.7l-115.8-75.71.82-1.26 115.8 75.71-.82 1.26"/><path fill="#211D43" d="M167.39 831.7l-.82-1.26 115.8-75.71.82 1.26-115.8 75.71"/><g transform="translate(134.000000, 318.000000)"><mask id="j" fill="#fff"><use xlink:href="#h"/></mask><path d="M218.18 205.53c1.28-.77 65-34.85 56.1-63.85-2.79-9.08-12.83-7.08-15.33-15.23-2.5-8.16 18.93-14.08 14.02-30.08-8.04-26.18-40.17-26-40.17-26s15.09-18.69-.45-39.34c-15.54-20.65-31.08-6.96-31.08-6.96s-28.03-42.39-96.63-13.29c-53.28 22.6-10.4 64.97-3.64 79 3.7 7.68 4.06 18.2-23.37 26.62-12.85 3.95-28.34 1.95-44.9 7.03-16.56 5.09-31.13 19.3-26.35 34.87 4.78 15.57 19.28 21.4 19.28 21.4s-32.05 6.59-23.7 33.78c8.35 27.18 55.9 25.3 88.04 15.42 32.13-9.86 82.39-46.12 82.39-46.12l45.79 22.75" fill="url(#i)" mask="url(#j)"/></g><path d="M455.2 554.9l16.81-2.07 3.4 3.7-17.7 4.4-2.51-6.02" fill="#F7CFB1"/><path fill="#F7CFB1" d="M471.09 554.86l.92-2.03 13.28 2.62.25 2.03-10.13-.95-4.32-1.67M420.52 887.56l6.05 8.82 1.75 7.98-5.9-3.01-3.64-6.38 1.74-7.41"/><g transform="translate(419.000000, 905.000000)"><mask id="m" fill="#fff"><use xlink:href="#k"/></mask><path fill="url(#l)" mask="url(#m)" d="M4.55 5.34L.7.97l.15 10.21 5.73 1.15 2.24-4.09-4.27-2.9"/></g><path d="M427.81 908.51c-3.25-1.73-4.81-4.19-6.69-6.17 2.07-3.39 10.56.99 16.9 7.08a50.2 50.2 0 0 0 2.83 2.51c-3.04.47-8-.73-13.04-3.42" fill="#F7CFB1"/><g transform="translate(419.000000, 901.000000)"><mask id="p" fill="#fff"><use xlink:href="#n"/></mask><path d="M2.68.6a30.96 30.96 0 0 0 7.84 5.74c5.04 2.68 7.07 4.02 10.11 3.55 6.46 5.32 14.37 6.67 13.15 8.97-1.4 2.63-7.68 1.49-18.13-2.53C4.67 12.1.54 7.12.61 4.14.65 2.42 1.42 1.25 2.68.6" fill="url(#o)" mask="url(#p)"/></g><g transform="translate(246.000000, 587.000000)"><mask id="s" fill="#fff"><use xlink:href="#q"/></mask><path d="M1.4.23L52.24 6s112.91 67.31 123.8 119.24c12.19 53.2 5.27 185.26 5.27 185.26h-7.91s-24.43-51.74-29.06-88.72c-4.48-35.9 2.86-87.57 2.86-87.57s-92.47 2.72-130.42-65.48C-5.87 28 1.39.23 1.39.23" fill="url(#r)" mask="url(#s)"/></g><path fill="#F7CFB1" d="M266.09 885.9l3.31 6.35-3.23 8.61-5.23-3.35.75-7.45 4.4-4.16"/><g transform="translate(257.000000, 901.000000)"><mask id="v" fill="#fff"><use xlink:href="#t"/></mask><path fill="url(#u)" mask="url(#v)" d="M4.49 4.77L1.08.04.23 10.22l5.59 1.71 2.63-3.85-3.96-3.31"/></g><path d="M265.9 904.38c-3.07-2.05-4.37-4.65-6.04-6.8 2.4-3.17 10.4 2.02 16.12 8.7a50.08 50.08 0 0 0 2.57 2.78c-3.07.17-7.9-1.52-12.65-4.68" fill="#F7CFB1"/><g transform="translate(258.000000, 896.000000)"><mask id="y" fill="#fff"><use xlink:href="#w"/></mask><path d="M2.49.88a30.94 30.94 0 0 0 7.23 6.5c4.75 3.16 6.64 4.7 9.71 4.53 5.9 5.93 13.65 8.05 12.2 10.22-1.64 2.48-7.79.72-17.79-4.31C3.34 12.52-.29 7.17.08 4.22c.2-1.72 1.09-2.8 2.4-3.34" fill="url(#x)" mask="url(#y)"/></g><path d="M464.77 559.17l4.84 1.6 4.64-.57s1.36 2.63.32 2.61c-1.03-.02-5.8.72-5.8.72l-8.11 1.01-2.95-3.62 7.06-1.75" fill="#F7CFB1"/><path d="M460.66 564.54s-4.17-2.75-11.95-.95c-7.77 1.8-4.82-4.94-4.82-4.94s7.06-3.22 11.3-3.74c4.25-.53 5.47 9.63 5.47 9.63" fill="#F7CFB1"/><g transform="translate(303.000000, 459.000000)"><mask id="B" fill="#fff"><use xlink:href="#z"/></mask><path d="M43.64.96S68.3 35.4 83.36 76.03c28.83 4.28 65.6 20.14 65.6 20.14l1.27 8.7s-52.58 7.83-85.5-5.56C33 73.31.13 44.98.13 44.98L43.63.96" fill="url(#A)" mask="url(#B)"/></g><g transform="translate(211.000000, 577.000000)"><mask id="E" fill="#fff"><use xlink:href="#C"/></mask><path d="M89.08 26.03l-3.97 20.95s75.05 69.9 61.26 106.6c-13.8 36.7-88.47 164.13-88.47 164.13l-7.87-1.5s.8-52.13 14.2-92.27c13.39-40.15 49.1-76.52 49.1-76.52S-12.95 116.97 2.1 54.09C10.32 8.1 37.74.91 37.74.91l51.34 25.12" fill="url(#D)" mask="url(#E)"/></g><g transform="translate(214.000000, 438.000000)"><mask id="H" fill="#fff"><use xlink:href="#F"/></mask><path d="M98.98 163.34s5.22-21.62 20.19-45.21c14.68-23.15 26.99-54.75 21.96-78.54C134.75 9.42 104.25.69 69.99.69 35.71.7 5.05 37.26 1.39 74.3c-3.34 33.73 6.79 91.6 6.79 91.6s52.77 17.53 90.8-2.55" fill="url(#G)" mask="url(#H)"/></g><g transform="translate(290.000000, 395.000000)"><mask id="K" fill="#fff"><use xlink:href="#I"/></mask><path d="M40.13 12.47S24.8 32.83 28.95 59.1C33.1 85.38.67 58.87.67 58.87S2.24 23.64 31.6 7.02c29.37-16.62 8.52 5.44 8.52 5.44" fill="url(#J)" mask="url(#K)"/></g><g transform="translate(290.000000, 438.000000)"><mask id="N" fill="#fff"><use xlink:href="#L"/></mask><path d="M35.28 17.01c4.73 11.9 5.75 25.41-4.73 29.58C20.07 50.76 7.53 42.26 2.8 30.37-1.93 18.47.45 5.9 10.93 1.73 21.4-2.44 30.55 5.12 35.28 17.01" fill="url(#M)" mask="url(#N)"/></g><g transform="translate(322.000000, 375.000000)"><mask id="Q" fill="#fff"><use xlink:href="#O"/></mask><path d="M.73 25.25c2.04 12.17 10.04 20.98 17.86 19.67 7.82-1.32 12.5-12.25 10.46-24.43C27.01 8.32 19.01-.49 11.19.82 3.37 2.14-1.31 13.07.73 25.25" fill="url(#P)" mask="url(#Q)"/></g><g transform="translate(299.000000, 353.000000)"><mask id="T" fill="#fff"><use xlink:href="#R"/></mask><path d="M.9 17.61c0 9.32 10.71 18.69 23.92 18.69s23.92-9.37 23.92-18.69C48.74 8.3 38.04.74 24.82.74 11.62.74.9 8.29.9 17.6" fill="url(#S)" mask="url(#T)"/></g><g transform="translate(318.000000, 388.000000)"><mask id="W" fill="#fff"><use xlink:href="#U"/></mask><path d="M.2 5.24C.2 7.8 1.7 9.87 3.52 9.87c1.84 0 3.32-2.07 3.32-4.63S5.37.6 3.52.6C1.7.6.2 2.68.2 5.24" fill="url(#V)" mask="url(#W)"/></g><path d="M357.56 712.4c-5.31-23.93-18.93-43.8-29.42-56.27l1.14-.97c10.6 12.6 24.37 32.69 29.75 56.92l-1.47.32" fill="#236B84"/><path d="M368.89 532.48l1.36-5.06 2.75-4.02s-1.12-2.29-1.69-1.4c-.57.9-3.9 4.58-3.9 4.58s-4.47 3.85-4.68 5.8c-.21 1.96.65 5.16.65 5.16l5.5-5.06" fill="#F7CFB1"/><path d="M380.4 534.76c-2.12 0-4.2-.55-6.1-1.62a12.3 12.3 0 0 1-5.82-7.48l-1.09-3.93a6.06 6.06 0 0 1 4.26-7.5l6.06-1.67.4 1.44-6.06 1.68a4.56 4.56 0 0 0-3.21 5.65l1.09 3.93a10.8 10.8 0 0 0 5.12 6.57 10.8 10.8 0 0 0 8.26 1.03l1.57-.44.4 1.45-1.57.43c-1.1.3-2.2.46-3.31.46" fill="#E1832D"/><g transform="translate(373.000000, 496.000000)"><mask id="Y" fill="#fff"><use xlink:href="#X"/></mask><path mask="url(#Y)" d="M36.65 39.12l-21.22 5.86L.7 8.52 30.6.27l6.05 38.85"/></g><path d="M362.7 532.13s.37 3.94-5.58 9.59c-5.94 5.65 1.5 6.93 1.5 6.93s5.1-2.9 7.95-6.25c2.85-3.34-3.88-10.27-3.88-10.27" fill="#F7CFB1"/><g transform="translate(221.000000, 487.000000)"><mask id="ab" fill="#fff"><use xlink:href="#Z"/></mask><path d="M7.98.85L.16 22.61S19.3 69 68.23 115.55c41.05-1.71 77.66-57.48 77.66-57.48l-8.21-8.73s-27.71 10.44-55.51 34.9c.46-40.86-12.5-62.69-12.5-62.69L7.97.85" fill="url(#aa)" mask="url(#ab)"/></g><path d="M301.79 574.58l.03-1.81c.54-30.02-11.34-59.9-11.46-60.2l1.4-.56c.11.3 11.64 29.3 11.58 59.02 4.7-4.4 21.4-19.45 34.5-25.28l.62 1.37c-15.1 6.71-35.17 26-35.37 26.2l-1.3 1.26" fill="#AC252A"/><path d="M366.57 542.4l11.3-13.24-3.84-5.17-11.2 12.85 3.74 5.56" fill="#F7CFB1"/><path fill="#F7CFB1" d="M373.85 529.18l4.03-.02-.9-10.03-2.56-1.33-.57 11.38"/></g></svg>
