<?xml version="1.0" encoding="UTF-8"?>
<svg width="1076px" height="1005px" viewBox="0 0 1076 1005" version="1.1" xmlns="http://www.w3.org/2000/svg" xmlns:xlink="http://www.w3.org/1999/xlink">
    <!-- Generator: Sketch 54.1 (76490) - https://sketchapp.com -->
    <title>d_171-16</title>
    <desc>Created with Sketch.</desc>
    <defs>
        <path d="M212.364,0.43 L14.952,0.43 C6.724,0.43 0.053,7.101 0.053,15.329 L212.364,15.329 L212.364,0.43" id="path-1"></path>
        <polyline id="path-3" points="193.411 0.354 44.661 0.354 0.97 128.229 149.721 128.229 193.411 0.354"></polyline>
        <path d="M82.144,18.612 C47.039,18.612 18.479,47.171 18.479,82.276 C18.479,117.38 47.039,145.94 82.144,145.94 C117.249,145.94 145.808,117.38 145.808,82.276 C145.808,47.171 117.249,18.612 82.144,18.612 Z M82.144,163.94 C37.114,163.94 0.479,127.305 0.479,82.276 C0.479,37.247 37.114,0.612 82.144,0.612 C127.173,0.612 163.808,37.247 163.808,82.276 C163.808,127.305 127.173,163.94 82.144,163.94 L82.144,163.94 Z" id="path-5"></path>
        <linearGradient x1="65.725009%" y1="97.4669989%" x2="34.2745012%" y2="2.53226636%" id="linearGradient-7">
            <stop stop-color="#4092AA" offset="0%"></stop>
            <stop stop-color="#54BBBA" offset="100%"></stop>
        </linearGradient>
        <path d="M218.18,205.534 C219.457,204.763 283.183,170.68 274.279,141.683 C271.49,132.602 261.451,134.603 258.946,126.447 C256.442,118.291 277.883,112.368 272.971,96.372 C264.93,70.187 232.803,70.376 232.803,70.376 C232.803,70.376 247.887,51.68 232.35,31.028 C216.813,10.376 201.274,24.072 201.274,24.072 C201.274,24.072 173.243,-18.32 104.639,10.785 C51.358,33.388 94.244,75.751 101.001,89.784 C104.695,97.456 105.063,107.98 77.628,116.404 C64.776,120.35 49.286,118.346 32.726,123.431 C16.167,128.516 1.598,142.726 6.379,158.297 C11.161,173.868 25.661,179.692 25.661,179.692 C25.661,179.692 -6.391,186.29 1.958,213.477 C10.306,240.664 57.867,238.771 89.997,228.904 C122.127,219.038 172.387,182.778 172.387,182.778 L218.18,205.534" id="path-8"></path>
        <linearGradient x1="82.2707101%" y1="60.2438957%" x2="-13.5027336%" y2="39.3856753%" id="linearGradient-10">
            <stop stop-color="#100F26" offset="0%"></stop>
            <stop stop-color="#3E2F64" offset="100%"></stop>
        </linearGradient>
        <polyline id="path-11" points="4.554 5.339 0.702 0.966 0.853 11.184 6.583 12.327 8.822 8.244 4.554 5.339"></polyline>
        <linearGradient x1="70.0495659%" y1="78.5133351%" x2="11.2414903%" y2="34.7918317%" id="linearGradient-13">
            <stop stop-color="#100F26" offset="0%"></stop>
            <stop stop-color="#3E2F64" offset="100%"></stop>
        </linearGradient>
        <path d="M2.682,0.591 C4.558,2.57 7.261,4.612 10.516,6.341 C15.562,9.022 17.592,10.362 20.632,9.891 C27.086,15.21 35.003,16.562 33.781,18.863 C32.384,21.492 26.099,20.349 15.653,16.326 C4.671,12.096 0.54,7.118 0.612,4.143 C0.654,2.421 1.424,1.251 2.682,0.591" id="path-14"></path>
        <linearGradient x1="102.511077%" y1="56.0352097%" x2="-2.04372864%" y2="44.8900383%" id="linearGradient-16">
            <stop stop-color="#100F26" offset="0%"></stop>
            <stop stop-color="#3E2F64" offset="100%"></stop>
        </linearGradient>
        <path d="M1.394,0.232 L52.251,6.001 C52.251,6.001 165.16,73.312 176.058,125.237 C188.238,178.445 181.32,310.501 181.32,310.501 L173.407,310.501 C173.407,310.501 148.977,258.764 144.353,221.775 C139.865,185.876 147.21,134.212 147.21,134.212 C147.21,134.212 54.739,136.929 16.786,68.726 C-5.871,28.01 1.394,0.232 1.394,0.232" id="path-17"></path>
        <linearGradient x1="43.5995869%" y1="-13.868643%" x2="62.5681351%" y2="111.428438%" id="linearGradient-19">
            <stop stop-color="#4092AA" offset="0%"></stop>
            <stop stop-color="#54BBBA" offset="100%"></stop>
        </linearGradient>
        <polyline id="path-20" points="4.487 4.773 1.085 0.041 0.228 10.225 5.818 11.926 8.448 8.084 4.487 4.773"></polyline>
        <linearGradient x1="67.9235554%" y1="80.6975179%" x2="16.6371639%" y2="31.3571729%" id="linearGradient-22">
            <stop stop-color="#100F26" offset="0%"></stop>
            <stop stop-color="#3E2F64" offset="100%"></stop>
        </linearGradient>
        <path d="M2.486,0.882 C4.158,3.037 6.647,5.335 9.716,7.376 C14.473,10.541 16.361,12.075 19.433,11.906 C25.331,17.835 33.077,19.96 31.634,22.13 C29.985,24.608 23.842,22.851 13.844,17.819 C3.333,12.528 -0.289,7.167 0.077,4.213 C0.289,2.504 1.169,1.416 2.486,0.882" id="path-23"></path>
        <linearGradient x1="104.021986%" y1="61.4326457%" x2="-3.11667197%" y2="39.9808304%" id="linearGradient-25">
            <stop stop-color="#100F26" offset="0%"></stop>
            <stop stop-color="#3E2F64" offset="100%"></stop>
        </linearGradient>
        <path d="M43.644,0.957 C43.644,0.957 68.295,35.413 83.362,76.027 C112.193,80.307 148.967,96.175 148.967,96.175 L150.228,104.861 C150.228,104.861 97.653,112.704 64.73,99.313 C32.998,73.309 0.122,44.98 0.122,44.98 L43.644,0.957" id="path-26"></path>
        <linearGradient x1="0%" y1="49.9997728%" x2="100%" y2="49.9997728%" id="linearGradient-28">
            <stop stop-color="#D42433" offset="0%"></stop>
            <stop stop-color="#DD4369" offset="100%"></stop>
        </linearGradient>
        <path d="M89.081,26.031 L85.114,46.985 C85.114,46.985 160.165,116.874 146.367,153.582 C132.569,190.289 57.896,317.706 57.896,317.706 L50.026,316.209 C50.026,316.209 50.832,264.078 64.226,223.936 C77.619,183.794 113.321,147.417 113.321,147.417 C113.321,147.417 -12.945,116.972 2.109,54.093 C10.325,8.094 37.738,0.914 37.738,0.914 L89.081,26.031" id="path-29"></path>
        <linearGradient x1="44.3617761%" y1="-6.01628198%" x2="58.998127%" y2="116.700832%" id="linearGradient-31">
            <stop stop-color="#4092AA" offset="0%"></stop>
            <stop stop-color="#54BBBA" offset="100%"></stop>
        </linearGradient>
        <path d="M98.983,163.335 C98.983,163.335 104.202,141.718 119.168,118.129 C133.854,94.982 146.157,63.38 141.128,39.59 C134.749,9.418 104.25,0.692 69.985,0.692 C35.721,0.692 5.063,37.258 1.394,74.295 C-1.948,108.025 8.179,165.899 8.179,165.899 C8.179,165.899 60.947,183.421 98.983,163.335" id="path-32"></path>
        <linearGradient x1="-0.000359251218%" y1="50.0002238%" x2="100.000028%" y2="50.0002238%" id="linearGradient-34">
            <stop stop-color="#D42433" offset="0%"></stop>
            <stop stop-color="#DD4369" offset="100%"></stop>
        </linearGradient>
        <path d="M40.125,12.466 C40.125,12.466 24.798,32.831 28.949,59.108 C33.101,85.384 0.667,58.865 0.667,58.865 C0.667,58.865 2.239,23.637 31.605,7.025 C60.972,-9.588 40.125,12.466 40.125,12.466" id="path-35"></path>
        <linearGradient x1="54.2132495%" y1="52.6678249%" x2="74.4755176%" y2="20.9645356%" id="linearGradient-37">
            <stop stop-color="#F7CFB1" offset="0%"></stop>
            <stop stop-color="#ED9B73" offset="100%"></stop>
        </linearGradient>
        <path d="M35.281,17.014 C40.01,28.909 41.032,42.422 30.551,46.589 C20.07,50.756 7.527,42.265 2.798,30.37 C-1.931,18.475 0.448,5.898 10.929,1.731 C21.41,-2.435 30.552,5.119 35.281,17.014" id="path-38"></path>
        <linearGradient x1="48.9240123%" y1="46.5803047%" x2="75.2380793%" y2="206.132351%" id="linearGradient-40">
            <stop stop-color="#F7CFB1" offset="0%"></stop>
            <stop stop-color="#ED9B73" offset="100%"></stop>
        </linearGradient>
        <path d="M0.726,25.247 C2.77,37.423 10.767,46.23 18.588,44.917 C26.409,43.605 31.093,32.67 29.05,20.494 C27.007,8.318 19.01,-0.489 11.188,0.824 C3.367,2.137 -1.317,13.071 0.726,25.247" id="path-41"></path>
        <linearGradient x1="50.6207208%" y1="52.7245462%" x2="37.3241971%" y2="-5.68184209%" id="linearGradient-43">
            <stop stop-color="#F7CFB1" offset="0%"></stop>
            <stop stop-color="#ED9B73" offset="100%"></stop>
        </linearGradient>
        <path d="M0.904,17.614 C0.904,26.934 11.613,36.299 24.823,36.299 C38.034,36.299 48.743,26.934 48.743,17.614 C48.743,8.294 38.034,0.739 24.823,0.739 C11.613,0.739 0.904,8.294 0.904,17.614" id="path-44"></path>
        <linearGradient x1="170.626476%" y1="72.6730221%" x2="-379.044294%" y2="-31.2969837%" id="linearGradient-46">
            <stop stop-color="#100F26" offset="0%"></stop>
            <stop stop-color="#3E2F64" offset="100%"></stop>
        </linearGradient>
        <path d="M0.202,5.239 C0.202,7.797 1.689,9.871 3.524,9.871 C5.358,9.871 6.845,7.797 6.845,5.239 C6.845,2.681 5.358,0.608 3.524,0.608 C1.689,0.608 0.202,2.681 0.202,5.239" id="path-47"></path>
        <linearGradient x1="76.9155438%" y1="158.845946%" x2="7.75811928%" y2="-120.810752%" id="linearGradient-49">
            <stop stop-color="#F7CFB1" offset="0%"></stop>
            <stop stop-color="#ED9B73" offset="100%"></stop>
        </linearGradient>
        <polyline id="path-50" points="36.65 39.122 15.426 44.978 0.7 8.521 30.596 0.272 36.65 39.122"></polyline>
        <path d="M7.984,0.854 L0.158,22.605 C0.158,22.605 19.301,69.017 68.226,115.546 C109.281,113.836 145.89,58.068 145.89,58.068 L137.678,49.344 C137.678,49.344 109.966,59.779 82.167,84.242 C82.626,43.376 69.661,21.554 69.661,21.554 L7.984,0.854" id="path-52"></path>
        <linearGradient x1="0%" y1="50.0007847%" x2="99.9993138%" y2="50.0007847%" id="linearGradient-54">
            <stop stop-color="#D42433" offset="0%"></stop>
            <stop stop-color="#DD4369" offset="100%"></stop>
        </linearGradient>
    </defs>
    <g id="d_171-16" stroke="none" stroke-width="1" fill="none" fill-rule="evenodd">
        <polygon id="Fill-1" fill="#FFFFFE" points="0.06 1005 1075.12 1005 1075.12 0.91 0.06 0.91"></polygon>
        <g id="Group-5" transform="translate(469.000000, 556.000000)">
            <mask id="mask-2" fill="white">
                <use xlink:href="#path-1"></use>
            </mask>
            <g id="Clip-4"></g>
            <path d="M212.364,0.43 L14.952,0.43 C6.724,0.43 0.053,7.101 0.053,15.329 L212.364,15.329 L212.364,0.43" id="Fill-3" mask="url(#mask-2)"></path>
        </g>
        <g id="Group-8" transform="translate(533.000000, 429.000000)">
            <mask id="mask-4" fill="white">
                <use xlink:href="#path-3"></use>
            </mask>
            <g id="Clip-7"></g>
            <polyline id="Fill-6" mask="url(#mask-4)" points="193.411 0.354 44.661 0.354 0.97 128.229 149.721 128.229 193.411 0.354"></polyline>
        </g>
        <polyline id="Fill-9" fill="#B5ABC9" points="244.96 207.166 241.608 184.153 260.484 199.1 265.31 182.767 282.471 187.837 282.046 189.275 266.324 184.63 261.294 201.655 243.637 187.673 246.445 206.95 244.96 207.166"></polyline>
        <path d="M478.49,343.207 C476.181,343.207 473.958,343.986 472.132,345.453 C470.011,347.156 468.681,349.584 468.386,352.288 C467.777,357.87 471.823,362.907 477.405,363.516 C480.109,363.813 482.767,363.036 484.887,361.332 C487.008,359.629 488.338,357.201 488.633,354.496 C488.928,351.792 488.152,349.135 486.449,347.015 C484.746,344.894 482.318,343.564 479.614,343.269 C479.238,343.228 478.863,343.207 478.49,343.207 Z M478.532,365.078 C478.104,365.078 477.674,365.054 477.242,365.007 C470.838,364.308 466.196,358.529 466.895,352.125 C467.233,349.023 468.759,346.238 471.192,344.283 C473.625,342.329 476.672,341.442 479.777,341.777 C482.879,342.116 485.664,343.642 487.619,346.075 C489.573,348.508 490.463,351.557 490.125,354.659 L489.379,354.578 L490.125,354.659 C489.786,357.762 488.26,360.547 485.827,362.501 C483.732,364.184 481.181,365.078 478.532,365.078 L478.532,365.078 Z" id="Fill-10" fill="#B5ABC9"></path>
        <path d="M492.408,332.127 C490.563,332.127 488.971,333.52 488.767,335.395 C488.547,337.405 490.003,339.218 492.013,339.437 C492.986,339.542 493.943,339.264 494.707,338.651 C495.47,338.038 495.949,337.164 496.055,336.191 L496.055,336.19 C496.274,334.181 494.818,332.368 492.808,332.149 C492.674,332.134 492.541,332.127 492.408,332.127 Z M492.421,340.96 C492.231,340.96 492.041,340.949 491.85,340.928 C489.019,340.619 486.966,338.064 487.275,335.233 C487.584,332.4 490.149,330.346 492.971,330.657 C495.803,330.966 497.855,333.522 497.546,336.353 C497.396,337.725 496.722,338.956 495.646,339.82 C494.72,340.565 493.592,340.96 492.421,340.96 L492.421,340.96 Z" id="Fill-11" fill="#B5ABC9"></path>
        <path d="M920.301,302.98 L935.203,308.317 L940.541,293.415 L925.638,288.078 L920.301,302.98 Z M936.109,310.235 L918.383,303.886 L924.732,286.16 L942.458,292.509 L936.109,310.235 L936.109,310.235 Z" id="Fill-12" fill="#B5ABC9"></path>
        <path d="M841.201,174.24 L844.068,180.307 L850.136,177.44 L847.269,171.373 L841.201,174.24 Z M843.354,182.304 L839.204,173.525 L847.984,169.376 L852.133,178.156 L843.354,182.304 L843.354,182.304 Z" id="Fill-13" fill="#B5ABC9"></path>
        <path d="M134.506,345.631 L137.373,351.699 L143.44,348.832 L140.573,342.764 L134.506,345.631 Z M136.657,353.696 L132.509,344.916 L141.288,340.767 L145.438,349.546 L136.657,353.696 L136.657,353.696 Z" id="Fill-14" fill="#B5ABC9"></path>
        <path d="M527.307,557.457 L682.082,557.457 L724.943,429.475 L570.168,429.475 L527.307,557.457 Z M683.161,558.957 L525.223,558.957 L569.089,427.975 L727.027,427.975 L683.161,558.957 L683.161,558.957 Z" id="Fill-15" fill="#211D43"></path>
        <polygon id="Fill-16" fill="#211D43" points="486.552 558.957 519.762 558.957 519.762 557.457 486.552 557.457"></polygon>
        <polygon id="Fill-17" fill="#211D43" points="682.032 570.015 683.532 570.015 683.532 558.207 682.032 558.207"></polygon>
        <path d="M627.43,486.446 C622.957,486.446 619.317,490.085 619.317,494.559 C619.317,499.032 622.957,502.671 627.43,502.671 C631.903,502.671 635.542,499.032 635.542,494.559 C635.542,490.085 631.903,486.446 627.43,486.446 Z M627.43,504.171 C622.13,504.171 617.817,499.859 617.817,494.559 C617.817,489.258 622.13,484.946 627.43,484.946 C632.73,484.946 637.042,489.258 637.042,494.559 C637.042,499.859 632.73,504.171 627.43,504.171 L627.43,504.171 Z" id="Fill-18" fill="#211D43"></path>
        <path d="M886.547,871.285 L885.054,871.14 C887.568,845.159 868.582,823.615 853.863,819.608 C845.221,817.255 837.049,819.478 828.397,821.832 C820.544,823.97 812.425,826.18 803.945,824.634 C798.339,823.613 791.363,822.342 786.428,817.991 C779.475,811.862 778.646,801.564 780.188,793.971 C785.037,770.093 810.477,757.208 831.952,757.208 C850.737,757.208 865.644,765.078 876.257,780.599 C885.486,794.095 889.896,811.106 892.532,821.269 L891.08,821.645 C885.376,799.65 874.761,758.708 831.952,758.708 C811.071,758.708 786.348,771.172 781.658,794.27 C780.199,801.452 780.947,811.16 787.42,816.866 C792.042,820.94 798.791,822.17 804.213,823.158 C812.36,824.642 820.312,822.477 828.003,820.385 C836.469,818.081 845.222,815.701 854.257,818.16 C869.486,822.306 889.137,844.523 886.547,871.285" id="Fill-19" fill="#B5ABC9"></path>
        <path d="M897.16,792.274 L895.701,791.927 C900.124,773.357 897.007,758.328 893.708,742.417 C890.394,726.429 886.966,709.896 890.038,687.506 C892.023,673.034 897.18,654.231 905.696,644.858 C908.707,641.543 914.979,637.678 919.392,636.417 C931.485,632.964 942.224,634.67 949.632,641.225 C961.204,651.465 964.583,672.435 959.679,703.552 C954.981,733.356 941.701,757.726 931.388,772.923 L930.146,772.08 C940.374,757.011 953.542,732.848 958.197,703.318 C962.949,673.171 959.644,652.088 948.638,642.349 C939.179,633.978 926.513,635.943 919.804,637.86 C915.686,639.036 909.612,642.778 906.806,645.867 C898.512,654.995 893.39,674.113 891.524,687.71 C888.487,709.845 891.888,726.249 895.177,742.113 C898.511,758.192 901.66,773.379 897.16,792.274" id="Fill-20" fill="#B5ABC9"></path>
        <path d="M865.649,763.774 C861.64,758.421 856.011,754.869 850.567,751.435 C839.378,744.375 827.808,737.075 828.635,714.074 C829.025,703.226 821.296,698.688 812.347,693.432 C805.279,689.281 797.97,684.989 793.801,677.047 C784.91,660.107 784.204,634.639 800.41,620.808 C811.859,611.035 829.975,609.552 844.465,617.201 C859.463,625.117 876.695,647.3 880.081,685.815 L878.586,685.947 C875.254,648.031 858.414,626.26 843.765,618.527 C829.806,611.159 812.377,612.566 801.384,621.949 C785.77,635.276 786.508,659.924 795.129,676.349 C799.099,683.912 806.22,688.095 813.106,692.139 C822.08,697.409 830.556,702.386 830.134,714.127 C829.338,736.267 840.039,743.018 851.368,750.166 C856.927,753.674 862.674,757.3 866.849,762.875 L865.649,763.774" id="Fill-21" fill="#B5ABC9"></path>
        <path d="M878.585,761.074 C876.779,734.014 869.074,722.399 861.622,711.166 C855.869,702.495 849.921,693.529 847.035,677.669 C839.409,635.755 811.546,630.629 811.266,630.582 L811.511,629.102 C811.801,629.151 840.686,634.394 848.511,677.401 C851.341,692.956 856.942,701.399 862.872,710.337 C870.432,721.733 878.25,733.516 880.082,760.974 L878.585,761.074" id="Fill-22" fill="#B5ABC9"></path>
        <path d="M905.01,869.915 C902.289,850.772 910.336,828.36 916.882,823.168 C918.69,821.734 920.076,821.824 920.921,822.153 C939.275,829.293 957.723,825.021 967.864,817.621 C974.378,812.868 977.764,806.952 977.398,800.96 C977.053,795.298 974.803,790.607 970.711,787.017 C959.512,777.189 938.025,778.56 937.809,778.575 C926.536,780.184 917.376,785.565 910.638,794.561 C891.137,820.596 897.835,868.847 897.905,869.33 L896.421,869.545 C896.35,869.055 889.568,820.188 909.437,793.662 C916.423,784.335 925.916,778.758 937.65,777.084 C938.612,777.018 960.024,775.647 971.698,785.887 C976.103,789.751 978.525,794.792 978.896,800.868 C979.288,807.294 975.589,813.842 968.749,818.833 C958.276,826.473 939.258,830.896 920.377,823.551 C919.68,823.282 918.818,823.547 917.814,824.344 C911.533,829.325 903.843,851.047 906.496,869.704 L905.01,869.915" id="Fill-23" fill="#B5ABC9"></path>
        <path d="M863.307,873.185 L863.307,901.712 C863.307,911.792 871.507,919.993 881.586,919.993 L910.844,919.993 C920.923,919.993 929.124,911.792 929.124,901.712 L929.124,873.185 L863.307,873.185 Z M910.844,921.493 L881.586,921.493 C870.68,921.493 861.807,912.619 861.807,901.712 L861.807,871.685 L930.624,871.685 L930.624,901.712 C930.624,912.619 921.75,921.493 910.844,921.493 L910.844,921.493 Z" id="Fill-24" fill="#B5ABC9"></path>
        <path d="M605.142,250.9 L603.809,250.212 C603.986,249.867 622.048,215.742 660.987,216.368 C702.426,217.041 721.903,191.871 722.095,191.617 L723.293,192.52 C723.099,192.777 703.69,217.879 662.614,217.881 C662.065,217.881 661.52,217.877 660.963,217.868 C660.615,217.862 660.265,217.859 659.92,217.859 C622.605,217.859 605.313,250.566 605.142,250.9" id="Fill-25" fill="#B5ABC9"></path>
        <path d="M660.555,246.284 C649.457,246.285 637.597,243.108 625.086,236.766 L625.765,235.428 C646.139,245.757 664.711,247.541 680.964,240.728 C706.884,229.864 719.33,200.059 722.062,192.696 C716.158,195.277 694.972,203.162 667.374,197.456 C631.488,190.04 620.347,228.01 620.238,228.395 L618.795,227.987 C618.907,227.589 630.432,188.286 667.678,195.987 C699.619,202.589 722.783,190.72 723.014,190.6 L724.629,189.754 L724.077,191.491 C723.957,191.87 711.716,229.46 681.552,242.108 C674.91,244.893 667.898,246.284 660.555,246.284" id="Fill-26" fill="#B5ABC9"></path>
        <path d="M669.323,183.857 L668.088,183.005 C685.95,157.109 678.86,118.396 677.567,112.184 C671.077,114.871 627.603,134.718 628.501,183.23 L627.001,183.257 C626.486,155.429 640.345,137.112 652.062,126.647 C664.735,115.326 677.724,110.503 677.854,110.455 L678.646,110.166 L678.841,110.986 C678.945,111.425 689.068,155.23 669.323,183.857" id="Fill-27" fill="#B5ABC9"></path>
        <polyline id="Fill-28" fill="#211D43" points="933.433 571.327 931.942 571.164 939.702 500.178 941.193 500.341 933.433 571.327"></polyline>
        <polyline id="Fill-29" fill="#211D43" points="888.022 571.337 880.19 499.323 881.682 499.161 889.514 571.174 888.022 571.337"></polyline>
        <polyline id="Fill-30" fill="#211D43" points="881.849 494.71 880.349 494.71 880.349 487.438 942.047 487.438 942.047 494.344 940.547 494.344 940.547 488.938 881.849 488.938 881.849 494.71"></polyline>
        <polyline id="Fill-31" fill="#211D43" points="920.633 488.704 919.545 487.671 925.445 481.451 933.447 481.451 933.447 488.188 931.947 488.188 931.947 482.951 926.089 482.951 920.633 488.704"></polyline>
        <path d="M911.275,520.645 C905.112,520.645 900.098,525.659 900.098,531.822 C900.098,537.986 905.112,543.001 911.275,543.001 C917.439,543.001 922.453,537.986 922.453,531.822 C922.453,525.659 917.439,520.645 911.275,520.645 Z M911.275,544.501 C904.285,544.501 898.598,538.813 898.598,531.822 C898.598,524.832 904.285,519.145 911.275,519.145 C918.266,519.145 923.953,524.832 923.953,531.822 C923.953,538.813 918.266,544.501 911.275,544.501 L911.275,544.501 Z" id="Fill-32" fill="#211D43"></path>
        <polygon id="Fill-33" fill="#211D43" points="910.526 543.751 912.026 543.751 912.026 519.895 910.526 519.895"></polygon>
        <polygon id="Fill-34" fill="#211D43" points="875.698 497.159 945.898 497.159 945.898 495.659 875.698 495.659"></polygon>
        <polygon id="Fill-35" fill="#211D43" points="82.211 922.738 1016.06 922.738 1016.06 921.238 82.211 921.238"></polygon>
        <polygon id="Fill-36" fill="#211D43" points="401.475 577.136 1058.92 577.136 1058.92 570.136 401.475 570.136"></polygon>
        <polyline id="Fill-37" fill="#211D43" points="448.291 912.507 446.826 912.185 521.381 572.962 522.846 573.284 448.291 912.507"></polyline>
        <polyline id="Fill-38" fill="#211D43" points="434.435 912.507 432.97 912.185 507.524 572.962 508.989 573.284 434.435 912.507"></polyline>
        <polygon id="Fill-39" fill="#211D43" points="493.56 635.457 508.956 635.457 508.956 633.957 493.56 633.957"></polygon>
        <g id="Group-42" transform="translate(454.000000, 107.000000)">
            <mask id="mask-6" fill="white">
                <use xlink:href="#path-5"></use>
            </mask>
            <g id="Clip-41"></g>
            <path d="M82.144,18.612 C47.039,18.612 18.479,47.171 18.479,82.276 C18.479,117.38 47.039,145.94 82.144,145.94 C117.249,145.94 145.808,117.38 145.808,82.276 C145.808,47.171 117.249,18.612 82.144,18.612 Z M82.144,163.94 C37.114,163.94 0.479,127.305 0.479,82.276 C0.479,37.247 37.114,0.612 82.144,0.612 C127.173,0.612 163.808,37.247 163.808,82.276 C163.808,127.305 127.173,163.94 82.144,163.94 L82.144,163.94 Z" id="Fill-40" fill="url(#linearGradient-7)" mask="url(#mask-6)"></path>
        </g>
        <g id="Clock" transform="translate(490.350000, 181.227000)" fill="#211D43">
            <polygon id="Fill-43" points="0 7.402 38.994 7.402 38.994 5.902 0 5.902"></polygon>
            <polyline id="Fill-44" points="74.551 27.388 52.918 13.927 53.71 12.653 75.343 26.114 74.551 27.388"></polyline>
            <path d="M46.015,1.5 C42.403,1.5 39.465,4.438 39.465,8.049 C39.465,11.66 42.403,14.598 46.015,14.598 C49.626,14.598 52.564,11.66 52.564,8.049 C52.564,4.438 49.626,1.5 46.015,1.5 Z M46.015,16.098 C41.576,16.098 37.965,12.487 37.965,8.049 C37.965,3.611 41.576,0 46.015,0 C50.453,0 54.064,3.611 54.064,8.049 C54.064,12.487 50.453,16.098 46.015,16.098 L46.015,16.098 Z" id="Fill-46"></path>
        </g>
        <path d="M745.132,567.731 L743.904,566.871 C752.5,554.593 766.561,547.264 781.519,547.264 C795.712,547.264 808.883,553.682 817.653,564.873 L816.473,565.798 C807.989,554.973 795.249,548.764 781.519,548.764 C767.05,548.764 753.448,555.854 745.132,567.731" id="Fill-47" fill="#211D43"></path>
        <polyline id="Fill-48" fill="#211D43" points="766.41 351.775 765.15 350.961 785.581 319.374 766.297 303.627 741.07 329.055 740.006 327.998 766.191 301.603 787.569 319.062 766.41 351.775"></polyline>
        <path d="M691.361,344.326 L760.67,400.925 C773.616,384.444 774.538,356.393 753.381,339.116 C743.708,331.215 731.739,327.686 719.68,329.177 C708.654,330.541 698.376,336.048 691.361,344.326 Z M760.888,403.041 L689.246,344.534 L689.72,343.953 C696.983,335.059 707.836,329.131 719.496,327.689 C731.967,326.147 744.336,329.793 754.331,337.954 C776.456,356.023 775.208,385.506 761.363,402.46 L760.888,403.041 L760.888,403.041 Z" id="Fill-49" fill="#211D43"></path>
        <path d="M771.532,341.581 C768.847,337.094 765.347,333.072 761.129,329.628 C756.965,326.227 752.385,323.622 747.517,321.887 L748.021,320.474 C753.051,322.267 757.78,324.956 762.079,328.466 C766.431,332.021 770.044,336.174 772.819,340.811 L771.532,341.581" id="Fill-50" fill="#211D43"></path>
        <path d="M723.637,388.518 C720.745,388.518 717.836,387.561 715.426,385.593 C709.874,381.059 709.046,372.853 713.58,367.301 L715.793,364.591 L716.956,365.539 L714.742,368.25 C712.799,370.629 711.899,373.623 712.208,376.679 C712.516,379.735 713.996,382.488 716.375,384.431 C721.287,388.442 728.545,387.709 732.556,382.797 L734.4,380.539 L735.563,381.488 L733.718,383.747 C731.151,386.889 727.409,388.518 723.637,388.518" id="Fill-51" fill="#211D43"></path>
        <polyline id="Fill-52" fill="#211D43" points="794.029 549.744 792.696 549.056 847.692 442.445 849.025 443.132 794.029 549.744"></polyline>
        <polyline id="Fill-53" fill="#211D43" points="845.395 427.391 776.774 333.415 777.985 332.53 846.606 426.506 845.395 427.391"></polyline>
        <path d="M850.042,426.733 C845.631,426.733 842.042,430.321 842.042,434.733 C842.042,439.144 845.631,442.733 850.042,442.733 C854.453,442.733 858.042,439.144 858.042,434.733 C858.042,430.321 854.453,426.733 850.042,426.733 Z M850.042,444.233 C844.804,444.233 840.542,439.971 840.542,434.733 C840.542,429.494 844.804,425.233 850.042,425.233 C855.28,425.233 859.542,429.494 859.542,434.733 C859.542,439.971 855.28,444.233 850.042,444.233 L850.042,444.233 Z" id="Fill-54" fill="#211D43"></path>
        <polyline id="Fill-55" fill="#B5ABC9" points="562.976 917.06 561.476 917.06 561.476 620.731 748.769 620.731 748.769 915.371 747.269 915.371 747.269 622.231 562.976 622.231 562.976 917.06"></polyline>
        <polyline id="Fill-56" fill="#B5ABC9" points="577.607 913.992 576.107 913.992 576.107 636.242 734.894 636.242 734.894 912.271 733.394 912.271 733.394 637.742 577.607 637.742 577.607 913.992"></polyline>
        <polygon id="Fill-57" fill="#B5ABC9" points="578.272 730.952 731.973 730.952 731.973 729.452 578.272 729.452"></polygon>
        <polygon id="Fill-58" fill="#B5ABC9" points="578.272 832.294 731.973 832.294 731.973 830.794 578.272 830.794"></polygon>
        <path d="M593.088,726.562 L605.768,728.686 L618.706,651.456 L606.025,649.332 L593.088,726.562 Z M607,730.413 L591.36,727.793 L604.794,647.604 L620.433,650.224 L607,730.413 L607,730.413 Z" id="Fill-59" fill="#B5ABC9"></path>
        <polyline id="Fill-60" fill="#B5ABC9" points="621.902 729.674 620.423 729.426 633.484 651.456 620.805 649.332 620.064 653.753 618.584 653.505 619.573 647.604 635.212 650.224 621.902 729.674"></polyline>
        <polyline id="Fill-61" fill="#B5ABC9" points="637.375 725.536 635.895 725.288 648.263 651.456 634.844 649.208 635.092 647.728 649.991 650.224 637.375 725.536"></polyline>
        <polyline id="Fill-62" fill="#B5ABC9" points="718.367 728.734 716.867 728.734 716.867 716.816 646.161 716.816 646.161 727.467 644.661 727.467 644.661 715.316 718.367 715.316 718.367 728.734"></polyline>
        <polyline id="Fill-63" fill="#B5ABC9" points="718.367 713.955 716.867 713.955 716.867 702.037 646.161 702.037 646.161 712.688 644.661 712.688 644.661 700.537 718.367 700.537 718.367 713.955"></polyline>
        <polyline id="Fill-64" fill="#B5ABC9" points="718.367 699.176 716.867 699.176 716.867 687.258 648.929 687.258 648.929 685.758 718.367 685.758 718.367 699.176"></polyline>
        <polyline id="Fill-65" fill="#B5ABC9" points="657.935 829.361 656.456 829.109 670.387 747.29 685.284 749.785 685.036 751.265 671.614 749.017 657.935 829.361"></polyline>
        <path d="M673.279,826.247 L685.959,828.371 L698.896,751.141 L686.217,749.017 L673.279,826.247 Z M687.191,830.099 L671.552,827.479 L684.985,747.29 L700.624,749.91 L687.191,830.099 L687.191,830.099 Z" id="Fill-66" fill="#B5ABC9"></path>
        <polyline id="Fill-67" fill="#B5ABC9" points="707.193 798.922 705.713 798.674 713.676 751.141 700.256 748.893 700.504 747.414 715.403 749.91 707.193 798.922"></polyline>
        <polyline id="Fill-68" fill="#B5ABC9" points="717.566 825.222 716.086 824.973 728.455 751.141 715.035 748.893 715.283 747.414 730.182 749.91 717.566 825.222"></polyline>
        <path d="M604.241,830.254 C599.517,826.614 596.807,821.111 596.807,815.156 C596.807,808.355 600.476,802.025 606.381,798.635 C609.591,796.792 611.586,793.396 611.586,789.774 L611.586,779.218 L620.124,779.218 L620.124,789.774 C620.124,793.396 622.118,796.792 625.329,798.635 C631.234,802.025 634.902,808.355 634.902,815.156 C634.902,821.022 632.258,826.474 627.649,830.114 L626.719,828.936 C630.966,825.583 633.402,820.56 633.402,815.156 C633.402,808.891 630.022,803.059 624.582,799.936 C620.907,797.826 618.624,793.932 618.624,789.774 L618.624,780.718 L613.086,780.718 L613.086,789.774 C613.086,793.932 610.803,797.826 607.128,799.936 C601.687,803.059 598.307,808.891 598.307,815.156 C598.307,820.642 600.803,825.712 605.156,829.066 L604.241,830.254" id="Fill-69" fill="#B5ABC9"></path>
        <polyline id="Fill-70" fill="#B5ABC9" points="614.832 779.515 611.172 755.025 612.655 754.803 616.315 779.294 614.832 779.515"></polyline>
        <polyline id="Fill-71" fill="#B5ABC9" points="617.728 780.035 616.234 779.901 619.331 745.276 620.825 745.41 617.728 780.035"></polyline>
        <polygon id="Fill-72" fill="#B5ABC9" points="710.11 919.594 711.61 919.594 711.61 873.146 710.11 873.146"></polygon>
        <polygon id="Fill-73" fill="#B5ABC9" points="596.946 919.594 598.446 919.594 598.446 872.723 596.946 872.723"></polygon>
        <path d="M595.067,869.862 L713.488,869.862 L713.488,857.85 L595.067,857.85 L595.067,869.862 Z M593.567,871.362 L714.988,871.362 L714.988,856.35 L593.567,856.35 L593.567,871.362 Z" id="Fill-74" fill="#B5ABC9"></path>
        <polygon id="Fill-75" fill="#B5ABC9" points="633.748 897.637 635.248 897.637 635.248 889.191 633.748 889.191"></polygon>
        <polygon id="Fill-76" fill="#B5ABC9" points="670.062 897.637 671.562 897.637 671.562 889.191 670.062 889.191"></polygon>
        <polygon id="Fill-77" fill="#B5ABC9" points="635.188 894.164 669.658 894.164 669.658 892.664 635.188 892.664"></polygon>
        <polyline id="Fill-78" fill="#211D43" points="146.679 908.217 145.197 907.99 177.126 699.159 178.608 699.386 146.679 908.217"></polyline>
        <polyline id="Fill-79" fill="#211D43" points="309.72 908.211 279.561 699.38 281.045 699.165 311.205 907.996 309.72 908.211"></polyline>
        <path d="M304.551,695.404 L166.56,695.404 L166.56,685.746 C166.56,677.874 172.964,671.47 180.836,671.47 L258.035,671.47 L258.035,672.97 L180.836,672.97 C173.792,672.97 168.06,678.702 168.06,685.746 L168.06,693.904 L304.551,693.904 L304.551,695.404" id="Fill-80" fill="#211D43"></path>
        <polygon id="Fill-81" fill="#211D43" points="165.9 674.2 167.4 674.2 167.4 569.634 165.9 569.634"></polygon>
        <path d="M165.331,542.012 C161.015,542.012 157.503,545.523 157.503,549.839 L157.503,554.458 C157.503,558.775 161.015,562.286 165.331,562.286 L195.022,562.286 C199.339,562.286 202.85,558.775 202.85,554.458 L202.85,549.839 C202.85,545.523 199.339,542.012 195.022,542.012 L165.331,542.012 Z M195.022,563.786 L165.331,563.786 C160.188,563.786 156.003,559.601 156.003,554.458 L156.003,549.839 C156.003,544.696 160.188,540.512 165.331,540.512 L195.022,540.512 C200.166,540.512 204.35,544.696 204.35,549.839 L204.35,554.458 C204.35,559.601 200.166,563.786 195.022,563.786 L195.022,563.786 Z" id="Fill-82" fill="#211D43"></path>
        <polyline id="Fill-83" fill="#211D43" points="290.779 831.698 174.982 755.985 175.804 754.729 291.601 830.442 290.779 831.698"></polyline>
        <polyline id="Fill-84" fill="#211D43" points="167.391 831.698 166.57 830.442 282.367 754.729 283.188 755.985 167.391 831.698"></polyline>
        <g id="Group-87" transform="translate(134.000000, 318.000000)">
            <mask id="mask-9" fill="white">
                <use xlink:href="#path-8"></use>
            </mask>
            <g id="Clip-86"></g>
            <path d="M218.18,205.534 C219.457,204.763 283.183,170.68 274.279,141.683 C271.49,132.602 261.451,134.603 258.946,126.447 C256.442,118.291 277.883,112.368 272.971,96.372 C264.93,70.187 232.803,70.376 232.803,70.376 C232.803,70.376 247.887,51.68 232.35,31.028 C216.813,10.376 201.274,24.072 201.274,24.072 C201.274,24.072 173.243,-18.32 104.639,10.785 C51.358,33.388 94.244,75.751 101.001,89.784 C104.695,97.456 105.063,107.98 77.628,116.404 C64.776,120.35 49.286,118.346 32.726,123.431 C16.167,128.516 1.598,142.726 6.379,158.297 C11.161,173.868 25.661,179.692 25.661,179.692 C25.661,179.692 -6.391,186.29 1.958,213.477 C10.306,240.664 57.867,238.771 89.997,228.904 C122.127,219.038 172.387,182.778 172.387,182.778 L218.18,205.534" id="Fill-85" fill="url(#linearGradient-10)" mask="url(#mask-9)"></path>
        </g>
        <path d="M455.199,554.908 C455.634,554.854 472.013,552.828 472.013,552.828 L475.414,556.527 L457.709,560.925 L455.199,554.908" id="Fill-88" fill="#F7CFB1"></path>
        <polyline id="Fill-89" fill="#F7CFB1" points="471.086 554.856 472.013 552.828 485.289 555.453 485.54 557.483 475.414 556.527 471.086 554.856"></polyline>
        <polyline id="Fill-90" fill="#F7CFB1" points="420.522 887.558 426.568 896.377 428.324 904.364 422.422 901.353 418.781 894.973 420.522 887.558"></polyline>
        <g id="Group-93" transform="translate(419.000000, 905.000000)">
            <mask id="mask-12" fill="white">
                <use xlink:href="#path-11"></use>
            </mask>
            <g id="Clip-92"></g>
            <polyline id="Fill-91" fill="url(#linearGradient-13)" mask="url(#mask-12)" points="4.554 5.339 0.702 0.966 0.853 11.184 6.583 12.327 8.822 8.244 4.554 5.339"></polyline>
        </g>
        <path d="M427.81,908.514 C424.555,906.784 423,904.324 421.124,902.344 C423.194,898.953 431.684,903.329 438.025,909.416 C438.989,910.341 439.937,911.175 440.854,911.931 C437.815,912.403 432.855,911.195 427.81,908.514" id="Fill-94" fill="#F7CFB1"></path>
        <g id="Group-97" transform="translate(419.000000, 901.000000)">
            <mask id="mask-15" fill="white">
                <use xlink:href="#path-14"></use>
            </mask>
            <g id="Clip-96"></g>
            <path d="M2.682,0.591 C4.558,2.57 7.261,4.612 10.516,6.341 C15.562,9.022 17.592,10.362 20.632,9.891 C27.086,15.21 35.003,16.562 33.781,18.863 C32.384,21.492 26.099,20.349 15.653,16.326 C4.671,12.096 0.54,7.118 0.612,4.143 C0.654,2.421 1.424,1.251 2.682,0.591" id="Fill-95" fill="url(#linearGradient-16)" mask="url(#mask-15)"></path>
        </g>
        <g id="Group-100" transform="translate(246.000000, 587.000000)">
            <mask id="mask-18" fill="white">
                <use xlink:href="#path-17"></use>
            </mask>
            <g id="Clip-99"></g>
            <path d="M1.394,0.232 L52.251,6.001 C52.251,6.001 165.16,73.312 176.058,125.237 C188.238,178.445 181.32,310.501 181.32,310.501 L173.407,310.501 C173.407,310.501 148.977,258.764 144.353,221.775 C139.865,185.876 147.21,134.212 147.21,134.212 C147.21,134.212 54.739,136.929 16.786,68.726 C-5.871,28.01 1.394,0.232 1.394,0.232" id="Fill-98" fill="url(#linearGradient-19)" mask="url(#mask-18)"></path>
        </g>
        <polyline id="Fill-101" fill="#F7CFB1" points="266.087 885.897 269.399 892.253 266.165 900.856 260.944 897.507 261.694 890.062 266.087 885.897"></polyline>
        <g id="Group-104" transform="translate(257.000000, 901.000000)">
            <mask id="mask-21" fill="white">
                <use xlink:href="#path-20"></use>
            </mask>
            <g id="Clip-103"></g>
            <polyline id="Fill-102" fill="url(#linearGradient-22)" mask="url(#mask-21)" points="4.487 4.773 1.085 0.041 0.228 10.225 5.818 11.926 8.448 8.084 4.487 4.773"></polyline>
        </g>
        <path d="M265.902,904.375 C262.833,902.333 261.529,899.731 259.857,897.577 C262.251,894.407 270.269,899.598 275.979,906.28 C276.847,907.295 277.708,908.219 278.547,909.062 C275.476,909.231 270.659,907.54 265.902,904.375" id="Fill-105" fill="#F7CFB1"></path>
        <g id="Group-108" transform="translate(258.000000, 896.000000)">
            <mask id="mask-24" fill="white">
                <use xlink:href="#path-23"></use>
            </mask>
            <g id="Clip-107"></g>
            <path d="M2.486,0.882 C4.158,3.037 6.647,5.335 9.716,7.376 C14.473,10.541 16.361,12.075 19.433,11.906 C25.331,17.835 33.077,19.96 31.634,22.13 C29.985,24.608 23.842,22.851 13.844,17.819 C3.333,12.528 -0.289,7.167 0.077,4.213 C0.289,2.504 1.169,1.416 2.486,0.882" id="Fill-106" fill="url(#linearGradient-25)" mask="url(#mask-24)"></path>
        </g>
        <path d="M464.775,559.17 L469.612,560.777 L474.25,560.204 C474.25,560.204 475.605,562.832 474.573,562.813 C473.54,562.793 468.775,563.53 468.775,563.53 L460.658,564.54 L457.709,560.925 L464.775,559.17" id="Fill-109" fill="#F7CFB1"></path>
        <path d="M460.658,564.54 C460.658,564.54 456.489,561.791 448.713,563.587 C440.938,565.385 443.889,558.655 443.889,558.655 C443.889,558.655 450.955,555.433 455.199,554.908 C459.443,554.383 460.658,564.54 460.658,564.54" id="Fill-110" fill="#F7CFB1"></path>
        <g id="Group-113" transform="translate(303.000000, 459.000000)">
            <mask id="mask-27" fill="white">
                <use xlink:href="#path-26"></use>
            </mask>
            <g id="Clip-112"></g>
            <path d="M43.644,0.957 C43.644,0.957 68.295,35.413 83.362,76.027 C112.193,80.307 148.967,96.175 148.967,96.175 L150.228,104.861 C150.228,104.861 97.653,112.704 64.73,99.313 C32.998,73.309 0.122,44.98 0.122,44.98 L43.644,0.957" id="Fill-111" fill="url(#linearGradient-28)" mask="url(#mask-27)"></path>
        </g>
        <g id="Group-116" transform="translate(211.000000, 577.000000)">
            <mask id="mask-30" fill="white">
                <use xlink:href="#path-29"></use>
            </mask>
            <g id="Clip-115"></g>
            <path d="M89.081,26.031 L85.114,46.985 C85.114,46.985 160.165,116.874 146.367,153.582 C132.569,190.289 57.896,317.706 57.896,317.706 L50.026,316.209 C50.026,316.209 50.832,264.078 64.226,223.936 C77.619,183.794 113.321,147.417 113.321,147.417 C113.321,147.417 -12.945,116.972 2.109,54.093 C10.325,8.094 37.738,0.914 37.738,0.914 L89.081,26.031" id="Fill-114" fill="url(#linearGradient-31)" mask="url(#mask-30)"></path>
        </g>
        <g id="Group-119" transform="translate(214.000000, 438.000000)">
            <mask id="mask-33" fill="white">
                <use xlink:href="#path-32"></use>
            </mask>
            <g id="Clip-118"></g>
            <path d="M98.983,163.335 C98.983,163.335 104.202,141.718 119.168,118.129 C133.854,94.982 146.157,63.38 141.128,39.59 C134.749,9.418 104.25,0.692 69.985,0.692 C35.721,0.692 5.063,37.258 1.394,74.295 C-1.948,108.025 8.179,165.899 8.179,165.899 C8.179,165.899 60.947,183.421 98.983,163.335" id="Fill-117" fill="url(#linearGradient-34)" mask="url(#mask-33)"></path>
        </g>
        <g id="Group-122" transform="translate(290.000000, 395.000000)">
            <mask id="mask-36" fill="white">
                <use xlink:href="#path-35"></use>
            </mask>
            <g id="Clip-121"></g>
            <path d="M40.125,12.466 C40.125,12.466 24.798,32.831 28.949,59.108 C33.101,85.384 0.667,58.865 0.667,58.865 C0.667,58.865 2.239,23.637 31.605,7.025 C60.972,-9.588 40.125,12.466 40.125,12.466" id="Fill-120" fill="url(#linearGradient-37)" mask="url(#mask-36)"></path>
        </g>
        <g id="Group-125" transform="translate(290.000000, 438.000000)">
            <mask id="mask-39" fill="white">
                <use xlink:href="#path-38"></use>
            </mask>
            <g id="Clip-124"></g>
            <path d="M35.281,17.014 C40.01,28.909 41.032,42.422 30.551,46.589 C20.07,50.756 7.527,42.265 2.798,30.37 C-1.931,18.475 0.448,5.898 10.929,1.731 C21.41,-2.435 30.552,5.119 35.281,17.014" id="Fill-123" fill="url(#linearGradient-40)" mask="url(#mask-39)"></path>
        </g>
        <g id="Group-128" transform="translate(322.000000, 375.000000)">
            <mask id="mask-42" fill="white">
                <use xlink:href="#path-41"></use>
            </mask>
            <g id="Clip-127"></g>
            <path d="M0.726,25.247 C2.77,37.423 10.767,46.23 18.588,44.917 C26.409,43.605 31.093,32.67 29.05,20.494 C27.007,8.318 19.01,-0.489 11.188,0.824 C3.367,2.137 -1.317,13.071 0.726,25.247" id="Fill-126" fill="url(#linearGradient-43)" mask="url(#mask-42)"></path>
        </g>
        <g id="Group-131" transform="translate(299.000000, 353.000000)">
            <mask id="mask-45" fill="white">
                <use xlink:href="#path-44"></use>
            </mask>
            <g id="Clip-130"></g>
            <path d="M0.904,17.614 C0.904,26.934 11.613,36.299 24.823,36.299 C38.034,36.299 48.743,26.934 48.743,17.614 C48.743,8.294 38.034,0.739 24.823,0.739 C11.613,0.739 0.904,8.294 0.904,17.614" id="Fill-129" fill="url(#linearGradient-46)" mask="url(#mask-45)"></path>
        </g>
        <g id="Group-134" transform="translate(318.000000, 388.000000)">
            <mask id="mask-48" fill="white">
                <use xlink:href="#path-47"></use>
            </mask>
            <g id="Clip-133"></g>
            <path d="M0.202,5.239 C0.202,7.797 1.689,9.871 3.524,9.871 C5.358,9.871 6.845,7.797 6.845,5.239 C6.845,2.681 5.358,0.608 3.524,0.608 C1.689,0.608 0.202,2.681 0.202,5.239" id="Fill-132" fill="url(#linearGradient-49)" mask="url(#mask-48)"></path>
        </g>
        <path d="M357.564,712.4 C352.247,688.472 338.626,668.592 328.136,656.129 L329.284,655.163 C339.882,667.755 353.645,687.849 359.028,712.075 L357.564,712.4" id="Fill-135" fill="#236B84"></path>
        <path d="M368.887,532.475 L370.248,527.416 L373.004,523.403 C373.004,523.403 371.88,521.111 371.312,522.008 C370.744,522.905 367.413,526.575 367.413,526.575 C367.413,526.575 362.941,530.429 362.728,532.386 C362.516,534.344 363.38,537.542 363.38,537.542 L368.887,532.475" id="Fill-136" fill="#F7CFB1"></path>
        <path d="M380.396,534.756 C378.282,534.756 376.193,534.21 374.305,533.138 C371.429,531.505 369.361,528.851 368.481,525.664 L367.394,521.725 C366.961,520.155 367.165,518.512 367.968,517.096 C368.772,515.68 370.078,514.663 371.647,514.23 L377.707,512.557 L378.106,514.004 L372.046,515.676 C370.863,516.002 369.878,516.769 369.273,517.837 C368.667,518.904 368.514,520.143 368.84,521.325 L369.927,525.264 C370.7,528.066 372.518,530.399 375.045,531.833 C377.573,533.268 380.508,533.631 383.309,532.858 L384.877,532.425 L385.277,533.872 L383.708,534.305 C382.613,534.607 381.501,534.756 380.396,534.756" id="Fill-137" fill="#E1832D"></path>
        <g id="Group-140" transform="translate(373.000000, 496.000000)">
            <mask id="mask-51" fill="white">
                <use xlink:href="#path-50"></use>
            </mask>
            <g id="Clip-139"></g>
            <polyline id="Fill-138" mask="url(#mask-51)" points="36.65 39.122 15.426 44.978 0.7 8.521 30.596 0.272 36.65 39.122"></polyline>
        </g>
        <path d="M362.693,532.125 C362.693,532.125 363.065,536.065 357.12,541.717 C351.175,547.369 358.619,548.649 358.619,548.649 C358.619,548.649 363.714,545.745 366.568,542.401 C369.422,539.058 362.693,532.125 362.693,532.125" id="Fill-141" fill="#F7CFB1"></path>
        <g id="Group-144" transform="translate(221.000000, 487.000000)">
            <mask id="mask-53" fill="white">
                <use xlink:href="#path-52"></use>
            </mask>
            <g id="Clip-143"></g>
            <path d="M7.984,0.854 L0.158,22.605 C0.158,22.605 19.301,69.017 68.226,115.546 C109.281,113.836 145.89,58.068 145.89,58.068 L137.678,49.344 C137.678,49.344 109.966,59.779 82.167,84.242 C82.626,43.376 69.661,21.554 69.661,21.554 L7.984,0.854" id="Fill-142" fill="url(#linearGradient-54)" mask="url(#mask-53)"></path>
        </g>
        <path d="M301.787,574.58 L301.819,572.768 C302.357,542.75 290.482,512.873 290.362,512.574 L291.754,512.015 C291.873,512.31 303.4,541.316 303.336,571.027 C308.049,566.639 324.741,551.576 337.846,545.752 L338.455,547.123 C323.358,553.832 303.291,573.127 303.09,573.321 L301.787,574.58" id="Fill-145" fill="#AC252A"></path>
        <path d="M366.568,542.401 C366.861,542.059 377.875,529.157 377.875,529.157 L374.031,523.985 L362.828,536.84 L366.568,542.401" id="Fill-146" fill="#F7CFB1"></path>
        <polyline id="Fill-147" fill="#F7CFB1" points="373.852 529.182 377.875 529.157 376.975 519.135 374.424 517.804 373.852 529.182"></polyline>
    </g>
</svg>