<svg width="96px" height="15px" viewBox="0 0 96 15" version="1.1" xmlns="http://www.w3.org/2000/svg" xmlns:xlink="http://www.w3.org/1999/xlink">
    <g id="2.0" stroke="none" stroke-width="1" fill="none" fill-rule="evenodd">
        <g id="Desktop-HD" transform="translate(-100.000000, -73.000000)" fill="#FFFFFF">
            <g id="Logo" transform="translate(100.000000, 73.000000)">
                <path d="M13.16,10.22 C12.7866648,11.55334 12.0933384,12.5499967 11.08,13.21 C10.0666616,13.8700033 8.8333406,14.2 7.38,14.2 C6.04666,14.2 4.8933382,13.9300027 3.92,13.39 C2.9466618,12.8499973 2.2000026,12.0700051 1.68,11.05 C1.1599974,10.0299949 0.9,8.8133404 0.9,7.4 C0.9,5.999993 1.1599974,4.7866718 1.68,3.76 C2.2000026,2.7333282 2.9466618,1.9500027 3.92,1.41 C4.8933382,0.8699973 6.0399934,0.6 7.36,0.6 C8.8000072,0.6 10.019995,0.9033303 11.02,1.51 C12.020005,2.1166697 12.6799984,3.0266606 13,4.24 L9.98,5.46 C9.7933324,4.659996 9.5066686,4.1000016 9.12,3.78 C8.7333314,3.4599984 8.1866702,3.3 7.48,3.3 C6.5066618,3.3 5.753336,3.6499965 5.22,4.35 C4.686664,5.0500035 4.42,6.06666 4.42,7.4 C4.42,8.73334 4.6766641,9.7499965 5.19,10.45 C5.7033359,11.1500035 6.4466618,11.5 7.42,11.5 C8.153337,11.5 8.7333312,11.3266684 9.16,10.98 C9.5866688,10.6333316 9.8799992,10.0866704 10.04,9.34 L13.16,10.22 Z M27.4092307,8.62 C27.4092307,10.4733426 26.9159023,11.866662 25.9292307,12.8 C24.9425591,13.733338 23.4692405,14.2 21.5092307,14.2 C19.5625543,14.2 18.092569,13.733338 17.0992307,12.8 C16.1058924,11.866662 15.6092307,10.4733426 15.6092307,8.62 L15.6092307,0.8 L19.0692307,0.8 L19.0692307,8.68 C19.0692307,9.6266714 19.2692287,10.333331 19.6692307,10.8 C20.0692327,11.266669 20.6825599,11.5 21.5092307,11.5 C23.1625723,11.5 23.9892307,10.5600094 23.9892307,8.68 L23.9892307,0.8 L27.4092307,0.8 L27.4092307,8.62 Z M36.3184614,9.18 L34.2584614,9.18 L34.2584614,14 L30.8784614,14 L30.8784614,0.8 L37.1784614,0.8 C38.7784694,0.8 40.0084571,1.1599964 40.8684614,1.88 C41.7284657,2.6000036 42.1584614,3.6399932 42.1584614,5 C42.1584614,5.9600048 41.9384636,6.7599968 41.4984614,7.4 C41.0584592,8.0400032 40.4184656,8.5133318 39.5784614,8.82 L42.9384614,14 L39.1384614,14 L36.3184614,9.18 Z M34.2584614,6.74 L36.5984614,6.74 C37.3317984,6.74 37.8651264,6.606668 38.1984614,6.34 C38.5317964,6.073332 38.6984614,5.6466696 38.6984614,5.06 C38.6984614,4.4866638 38.5317964,4.066668 38.1984614,3.8 C37.8651264,3.533332 37.3317984,3.4 36.5984614,3.4 L34.2584614,3.4 L34.2584614,6.74 Z M50.5876921,0.6 C51.8410317,0.6 52.911021,0.7866648 53.7976921,1.16 C54.6843632,1.5333352 55.5076883,2.1399958 56.2676921,2.98 L54.3276921,5.22 C53.8876899,4.55333 53.3710284,4.0633349 52.7776921,3.75 C52.1843558,3.4366651 51.4743629,3.28 50.6476921,3.28 C49.9543553,3.28 49.4210273,3.3999988 49.0476921,3.64 C48.6743569,3.8800012 48.4876921,4.199998 48.4876921,4.6 C48.4876921,4.933335 48.6843568,5.2033323 49.0776921,5.41 C49.4710274,5.6166677 50.1410207,5.8066658 51.0876921,5.98 C52.9143679,6.313335 54.2176882,6.7999968 54.9976921,7.44 C55.777696,8.0800032 56.1676921,8.9799942 56.1676921,10.14 C56.1676921,10.9800042 55.9276945,11.7066636 55.4476921,12.32 C54.9676897,12.9333364 54.304363,13.3999984 53.4576921,13.72 C52.6110212,14.0400016 51.6543641,14.2 50.5876921,14.2 C49.0943513,14.2 47.8810301,14.0166685 46.9476921,13.65 C46.0143541,13.2833315 45.2076955,12.7200038 44.5276921,11.96 L46.2876921,9.56 C46.8076947,10.2800036 47.3943555,10.7866652 48.0476921,11.08 C48.7010287,11.3733348 49.4876875,11.52 50.4076921,11.52 C51.1410291,11.52 51.6910236,11.4166677 52.0576921,11.21 C52.4243606,11.0033323 52.6076921,10.7066686 52.6076921,10.32 C52.6076921,10.0133318 52.4110274,9.7633343 52.0176921,9.57 C51.6243568,9.3766657 50.9676967,9.1933342 50.0476921,9.02 C48.9143531,8.7933322 47.9776958,8.5233349 47.2376921,8.21 C46.4976884,7.8966651 45.9243608,7.473336 45.5176921,6.94 C45.1110234,6.406664 44.9076921,5.7266708 44.9076921,4.9 C44.9076921,4.0733292 45.1310232,3.3333366 45.5776921,2.68 C46.024361,2.0266634 46.6776878,1.5166685 47.5376921,1.15 C48.3976964,0.7833315 49.4143529,0.6 50.5876921,0.6 Z M62.5169228,14 L59.0769228,14 L59.0769228,0.8 L62.5169228,0.8 L62.5169228,14 Z M76.7461535,11.34 L76.7461535,14 L66.2061535,14 L66.2061535,0.8 L76.4861535,0.8 L76.4861535,3.46 L69.6461535,3.46 L69.6461535,6.14 L75.0861535,6.14 L75.0861535,8.64 L69.6461535,8.64 L69.6461535,11.34 L76.7461535,11.34 Z M83.0353842,3.46 L83.0353842,6.26 L88.4753842,6.26 L88.4753842,8.92 L83.0353842,8.92 L83.0353842,14 L79.5953842,14 L79.5953842,0.8 L89.8553842,0.8 L89.8553842,3.46 L83.0353842,3.46 Z" id="CURSIEF"></path>
                <rect id="Rectangle-4" x="92" y="10" width="4" height="4"></rect>
            </g>
        </g>
    </g>
</svg>