
<svg width="123px" height="123px" viewBox="0 0 123 123" version="1.1" xmlns="http://www.w3.org/2000/svg" xmlns:xlink="http://www.w3.org/1999/xlink">
    <g id="2.0" stroke="none" stroke-width="1" fill="none" fill-rule="evenodd">
        <g id="Desktop-HD" transform="translate(-740.000000, -1936.000000)" fill="#FFFFFF">
            <g id="Members" transform="translate(47.000000, 1712.000000)">
                <g id="Card-3" transform="translate(505.000000, 199.000000)">
                    <g id="11893877_999305533445484_5172442191890195981_o" transform="translate(113.303226, 0.000000)">
                        <g id="Active" transform="translate(-0.517244, 0.000000)">
                            <g id="Group-3" transform="translate(70.941514, 20.000000)">
                                <path d="M-14.5078542,72.3363094 L-13.4638542,59.5563094 L-10.9798542,59.5563094 L-8.47785425,65.8743094 C-8.18985425,66.6303094 -7.82985425,67.7463094 -7.82985425,67.7463094 L-7.79385425,67.7463094 C-7.79385425,67.7463094 -7.45185425,66.6303094 -7.16385425,65.8743094 L-4.66185425,59.5563094 L-2.17785425,59.5563094 L-1.15185425,72.3363094 L-3.45585425,72.3363094 L-3.99585425,65.1903094 C-4.04985425,64.3443094 -4.01385425,63.2103094 -4.01385425,63.2103094 L-4.04985425,63.2103094 C-4.04985425,63.2103094 -4.42785425,64.4523094 -4.73385425,65.1903094 L-6.80385425,70.1403094 L-8.83785425,70.1403094 L-10.8898542,65.1903094 C-11.1958542,64.4523094 -11.5918542,63.1923094 -11.5918542,63.1923094 L-11.6278542,63.1923094 C-11.6278542,63.1923094 -11.5918542,64.3443094 -11.6458542,65.1903094 L-12.1858542,72.3363094 L-14.5078542,72.3363094 Z M0.684145751,67.7463094 C0.684145751,64.9203094 2.61014575,62.9403094 5.34614575,62.9403094 C7.99214575,62.9403094 9.41414575,64.8663094 9.41414575,67.2963094 C9.41414575,67.5663094 9.36014575,68.1783094 9.36014575,68.1783094 L3.02414575,68.1783094 C3.16814575,69.7803094 4.41014575,70.6083094 5.77814575,70.6083094 C7.25414575,70.6083094 8.42414575,69.6003094 8.42414575,69.6003094 L9.30614575,71.2383094 C9.30614575,71.2383094 7.90214575,72.5523094 5.61614575,72.5523094 C2.57414575,72.5523094 0.684145751,70.3563094 0.684145751,67.7463094 Z M3.09614575,66.6123094 L7.11014575,66.6123094 C7.07414575,65.3703094 6.30014575,64.7043094 5.29214575,64.7043094 C4.12214575,64.7043094 3.31214575,65.4243094 3.09614575,66.6123094 Z M11.3041458,72.3363094 L11.3041458,63.1563094 L13.5001458,63.1563094 L13.5001458,64.2183094 C13.5001458,64.5603094 13.4641458,64.8483094 13.4641458,64.8483094 L13.5001458,64.8483094 C13.9501458,63.9483094 15.0481458,62.9403094 16.4881458,62.9403094 C17.8921458,62.9403094 18.7921458,63.5883094 19.1701458,64.8303094 L19.2061458,64.8303094 C19.7101458,63.8403094 20.8981458,62.9403094 22.3381458,62.9403094 C24.2461458,62.9403094 25.3441458,64.0203094 25.3441458,66.4323094 L25.3441458,72.3363094 L23.0581458,72.3363094 L23.0581458,66.8643094 C23.0581458,65.8203094 22.8601458,65.0283094 21.7981458,65.0283094 C20.6281458,65.0283094 19.8541458,65.9643094 19.5841458,67.1163094 C19.4941458,67.4763094 19.4761458,67.8723094 19.4761458,68.3043094 L19.4761458,72.3363094 L17.1901458,72.3363094 L17.1901458,66.8643094 C17.1901458,65.8743094 17.0281458,65.0283094 15.9481458,65.0283094 C14.7601458,65.0283094 13.9861458,65.9643094 13.6981458,67.1343094 C13.6081458,67.4763094 13.5901458,67.8903094 13.5901458,68.3043094 L13.5901458,72.3363094 L11.3041458,72.3363094 Z M27.7381458,72.3363094 L27.7381458,59.5563094 L30.0241458,59.5563094 L30.0241458,63.4983094 C30.0241458,63.9483094 29.9881458,64.2723094 29.9881458,64.2723094 L30.0241458,64.2723094 C30.0241458,64.2723094 30.8341458,62.9403094 32.7781458,62.9403094 C35.2621458,62.9403094 36.8461458,64.9023094 36.8461458,67.7463094 C36.8461458,70.6623094 35.0641458,72.5523094 32.6341458,72.5523094 C30.7261458,72.5523094 29.8981458,71.1843094 29.8981458,71.1843094 L29.8621458,71.1843094 C29.8621458,71.1843094 29.8981458,71.4543094 29.8981458,71.8143094 L29.8981458,72.3363094 L27.7381458,72.3363094 Z M29.9521458,67.8003094 C29.9521458,69.2223094 30.7081458,70.6263094 32.2381458,70.6263094 C33.4981458,70.6263094 34.5421458,69.6003094 34.5421458,67.7823094 C34.5421458,66.0363094 33.6061458,64.9023094 32.2561458,64.9023094 C31.0681458,64.9023094 29.9521458,65.7663094 29.9521458,67.8003094 Z M38.0881458,67.7463094 C38.0881458,64.9203094 40.0141458,62.9403094 42.7501458,62.9403094 C45.3961458,62.9403094 46.8181458,64.8663094 46.8181458,67.2963094 C46.8181458,67.5663094 46.7641458,68.1783094 46.7641458,68.1783094 L40.4281458,68.1783094 C40.5721458,69.7803094 41.8141458,70.6083094 43.1821458,70.6083094 C44.6581458,70.6083094 45.8281458,69.6003094 45.8281458,69.6003094 L46.7101458,71.2383094 C46.7101458,71.2383094 45.3061458,72.5523094 43.0201458,72.5523094 C39.9781458,72.5523094 38.0881458,70.3563094 38.0881458,67.7463094 Z M40.5001458,66.6123094 L44.5141458,66.6123094 C44.4781458,65.3703094 43.7041458,64.7043094 42.6961458,64.7043094 C41.5261458,64.7043094 40.7161458,65.4243094 40.5001458,66.6123094 Z M48.7081458,72.3363094 L48.7081458,63.1563094 L50.9041458,63.1563094 L50.9041458,64.7403094 C50.9041458,65.0823094 50.8681458,65.3883094 50.8681458,65.3883094 L50.9041458,65.3883094 C51.3181458,64.0743094 52.4161458,63.0303094 53.8201458,63.0303094 C54.0361458,63.0303094 54.2341458,63.0663094 54.2341458,63.0663094 L54.2341458,65.3163094 C54.2341458,65.3163094 54.0001458,65.2803094 53.6941458,65.2803094 C52.7221458,65.2803094 51.6241458,65.8383094 51.1921458,67.2063094 C51.0481458,67.6563094 50.9941458,68.1603094 50.9941458,68.7003094 L50.9941458,72.3363094 L48.7081458,72.3363094 Z M60.1561458,61.5903094 L60.1561458,59.5563094 L62.4241458,59.5563094 L62.4241458,61.5903094 L60.1561458,61.5903094 Z M60.1561458,72.3363094 L60.1561458,63.1563094 L62.4421458,63.1563094 L62.4421458,72.3363094 L60.1561458,72.3363094 Z M64.1881458,71.2023094 L65.2321458,69.6003094 C65.2321458,69.6003094 66.2401458,70.6083094 67.7341458,70.6083094 C68.3821458,70.6083094 68.9401458,70.3203094 68.9401458,69.7803094 C68.9401458,68.4123094 64.4761458,68.5923094 64.4761458,65.6403094 C64.4761458,63.9303094 66.0061458,62.9403094 67.9861458,62.9403094 C70.0561458,62.9403094 71.0641458,63.9843094 71.0641458,63.9843094 L70.2181458,65.6763094 C70.2181458,65.6763094 69.3721458,64.8843094 67.9681458,64.8843094 C67.3741458,64.8843094 66.7981458,65.1363094 66.7981458,65.7123094 C66.7981458,67.0083094 71.2621458,66.8463094 71.2621458,69.7983094 C71.2621458,71.3283094 69.9301458,72.5523094 67.7521458,72.5523094 C65.4661458,72.5523094 64.1881458,71.2023094 64.1881458,71.2023094 Z M76.6981458,71.2023094 L77.7421458,69.6003094 C77.7421458,69.6003094 78.7501458,70.6083094 80.2441458,70.6083094 C80.8921458,70.6083094 81.4501458,70.3203094 81.4501458,69.7803094 C81.4501458,68.4123094 76.9861458,68.5923094 76.9861458,65.6403094 C76.9861458,63.9303094 78.5161458,62.9403094 80.4961458,62.9403094 C82.5661458,62.9403094 83.5741458,63.9843094 83.5741458,63.9843094 L82.7281458,65.6763094 C82.7281458,65.6763094 81.8821458,64.8843094 80.4781458,64.8843094 C79.8841458,64.8843094 79.3081458,65.1363094 79.3081458,65.7123094 C79.3081458,67.0083094 83.7721458,66.8463094 83.7721458,69.7983094 C83.7721458,71.3283094 82.4401458,72.5523094 80.2621458,72.5523094 C77.9761458,72.5523094 76.6981458,71.2023094 76.6981458,71.2023094 Z M84.9601458,67.7463094 C84.9601458,64.9203094 86.8861458,62.9403094 89.6221458,62.9403094 C92.2681458,62.9403094 93.6901458,64.8663094 93.6901458,67.2963094 C93.6901458,67.5663094 93.6361458,68.1783094 93.6361458,68.1783094 L87.3001458,68.1783094 C87.4441458,69.7803094 88.6861458,70.6083094 90.0541458,70.6083094 C91.5301458,70.6083094 92.7001458,69.6003094 92.7001458,69.6003094 L93.5821458,71.2383094 C93.5821458,71.2383094 92.1781458,72.5523094 89.8921458,72.5523094 C86.8501458,72.5523094 84.9601458,70.3563094 84.9601458,67.7463094 Z M87.3721458,66.6123094 L91.3861458,66.6123094 C91.3501458,65.3703094 90.5761458,64.7043094 89.5681458,64.7043094 C88.3981458,64.7043094 87.5881458,65.4243094 87.3721458,66.6123094 Z M95.4541458,69.4743094 L95.4541458,59.5563094 L97.7221458,59.5563094 L97.7221458,69.1323094 C97.7221458,70.1403094 98.0641458,70.3923094 98.6581458,70.3923094 C98.8381458,70.3923094 99.0001458,70.3743094 99.0001458,70.3743094 L99.0001458,72.3723094 C99.0001458,72.3723094 98.6581458,72.4263094 98.2801458,72.4263094 C97.0201458,72.4263094 95.4541458,72.1023094 95.4541458,69.4743094 Z M100.044146,67.7463094 C100.044146,64.9203094 101.970146,62.9403094 104.706146,62.9403094 C107.352146,62.9403094 108.774146,64.8663094 108.774146,67.2963094 C108.774146,67.5663094 108.720146,68.1783094 108.720146,68.1783094 L102.384146,68.1783094 C102.528146,69.7803094 103.770146,70.6083094 105.138146,70.6083094 C106.614146,70.6083094 107.784146,69.6003094 107.784146,69.6003094 L108.666146,71.2383094 C108.666146,71.2383094 107.262146,72.5523094 104.976146,72.5523094 C101.934146,72.5523094 100.044146,70.3563094 100.044146,67.7463094 Z M102.456146,66.6123094 L106.470146,66.6123094 C106.434146,65.3703094 105.660146,64.7043094 104.652146,64.7043094 C103.482146,64.7043094 102.672146,65.4243094 102.456146,66.6123094 Z M109.998146,67.7463094 C109.998146,65.1363094 111.942146,62.9403094 114.984146,62.9403094 C117.378146,62.9403094 118.512146,64.3083094 118.512146,64.3083094 L117.504146,65.8743094 C117.504146,65.8743094 116.550146,64.8843094 115.110146,64.8843094 C113.418146,64.8843094 112.320146,66.1623094 112.320146,67.7283094 C112.320146,69.2763094 113.436146,70.6083094 115.182146,70.6083094 C116.730146,70.6083094 117.882146,69.4383094 117.882146,69.4383094 L118.764146,71.0583094 C118.764146,71.0583094 117.450146,72.5523094 114.984146,72.5523094 C111.942146,72.5523094 109.998146,70.4103094 109.998146,67.7463094 Z M120.870146,68.9703094 L120.870146,65.1183094 L119.682146,65.1183094 L119.682146,63.3003094 L120.924146,63.3003094 L120.924146,60.6543094 L123.156146,60.6543094 L123.156146,63.3003094 L125.244146,63.3003094 L125.244146,65.1183094 L123.156146,65.1183094 L123.156146,68.6823094 C123.156146,70.1943094 124.344146,70.4103094 124.974146,70.4103094 C125.226146,70.4103094 125.388146,70.3743094 125.388146,70.3743094 L125.388146,72.3723094 C125.388146,72.3723094 125.118146,72.4263094 124.686146,72.4263094 C123.408146,72.4263094 120.870146,72.0483094 120.870146,68.9703094 Z M126.612146,67.7463094 C126.612146,64.9203094 128.538146,62.9403094 131.274146,62.9403094 C133.920146,62.9403094 135.342146,64.8663094 135.342146,67.2963094 C135.342146,67.5663094 135.288146,68.1783094 135.288146,68.1783094 L128.952146,68.1783094 C129.096146,69.7803094 130.338146,70.6083094 131.706146,70.6083094 C133.182146,70.6083094 134.352146,69.6003094 134.352146,69.6003094 L135.234146,71.2383094 C135.234146,71.2383094 133.830146,72.5523094 131.544146,72.5523094 C128.502146,72.5523094 126.612146,70.3563094 126.612146,67.7463094 Z M129.024146,66.6123094 L133.038146,66.6123094 C133.002146,65.3703094 132.228146,64.7043094 131.220146,64.7043094 C130.050146,64.7043094 129.240146,65.4243094 129.024146,66.6123094 Z M136.602146,67.7463094 C136.602146,64.8303094 138.330146,62.9403094 140.760146,62.9403094 C142.776146,62.9403094 143.406146,64.1103094 143.406146,64.1103094 L143.442146,64.1103094 C143.442146,64.1103094 143.424146,63.8763094 143.424146,63.5883094 L143.424146,59.5563094 L145.710146,59.5563094 L145.710146,72.3363094 L143.550146,72.3363094 L143.550146,71.5803094 C143.550146,71.2383094 143.586146,70.9863094 143.586146,70.9863094 L143.550146,70.9863094 C143.550146,70.9863094 142.776146,72.5523094 140.670146,72.5523094 C138.186146,72.5523094 136.602146,70.5903094 136.602146,67.7463094 Z M138.906146,67.7463094 C138.906146,69.4923094 139.842146,70.6263094 141.192146,70.6263094 C142.380146,70.6263094 143.496146,69.7623094 143.496146,67.7283094 C143.496146,66.3063094 142.740146,64.9023094 141.210146,64.9023094 C139.950146,64.9023094 138.906146,65.9283094 138.906146,67.7463094 Z" id="Memberisselected" fill-rule="nonzero" transform="translate(65.601146, 66.054309) rotate(-315.000000) translate(-65.601146, -66.054309) "></path>
                                <text id="🎉" font-family="AppleColorEmoji, Apple Color Emoji" font-size="38" font-weight="normal">
                                    <tspan x="84.0584856" y="48">🎉</tspan>
                                </text>
                            </g>
                        </g>
                    </g>
                </g>
            </g>
        </g>
    </g>
</svg>
