
<svg width="124px" height="122px" viewBox="0 0 124 122" version="1.1" xmlns="http://www.w3.org/2000/svg" xmlns:xlink="http://www.w3.org/1999/xlink">
    <g id="2.0" stroke="none" stroke-width="1" fill="none" fill-rule="evenodd">
        <g id="Desktop-HD" transform="translate(-740.000000, -1937.000000)" fill="#FFFFFF">
            <g id="Members" transform="translate(47.000000, 1712.000000)">
                <g id="Card-3" transform="translate(505.000000, 199.000000)">
                    <g id="11893877_999305533445484_5172442191890195981_o" transform="translate(113.303226, 0.000000)">
                        <g id="Hover" transform="translate(-1.000000, 0.000000)">
                            <g id="Active" transform="translate(0.482756, 0.000000)">
                                <g id="Group-3" transform="translate(74.941514, 25.000000)">
                                    <path d="M-18,67.9931637 L-16.956,55.2131637 L-14.472,55.2131637 L-11.97,61.5311637 C-11.682,62.2871637 -11.322,63.4031637 -11.322,63.4031637 L-11.286,63.4031637 C-11.286,63.4031637 -10.944,62.2871637 -10.656,61.5311637 L-8.154,55.2131637 L-5.67,55.2131637 L-4.644,67.9931637 L-6.948,67.9931637 L-7.488,60.8471637 C-7.542,60.0011637 -7.506,58.8671637 -7.506,58.8671637 L-7.542,58.8671637 C-7.542,58.8671637 -7.92,60.1091637 -8.226,60.8471637 L-10.296,65.7971637 L-12.33,65.7971637 L-14.382,60.8471637 C-14.688,60.1091637 -15.084,58.8491637 -15.084,58.8491637 L-15.12,58.8491637 C-15.12,58.8491637 -15.084,60.0011637 -15.138,60.8471637 L-15.678,67.9931637 L-18,67.9931637 Z M-2.808,63.4031637 C-2.808,60.5771637 -0.882,58.5971637 1.854,58.5971637 C4.5,58.5971637 5.922,60.5231637 5.922,62.9531637 C5.922,63.2231637 5.868,63.8351637 5.868,63.8351637 L-0.468,63.8351637 C-0.324,65.4371637 0.918,66.2651637 2.286,66.2651637 C3.762,66.2651637 4.932,65.2571637 4.932,65.2571637 L5.814,66.8951637 C5.814,66.8951637 4.41,68.2091637 2.124,68.2091637 C-0.918,68.2091637 -2.808,66.0131637 -2.808,63.4031637 Z M-0.396,62.2691637 L3.618,62.2691637 C3.582,61.0271637 2.808,60.3611637 1.8,60.3611637 C0.63,60.3611637 -0.18,61.0811637 -0.396,62.2691637 Z M7.812,67.9931637 L7.812,58.8131637 L10.008,58.8131637 L10.008,59.8751637 C10.008,60.2171637 9.972,60.5051637 9.972,60.5051637 L10.008,60.5051637 C10.458,59.6051637 11.556,58.5971637 12.996,58.5971637 C14.4,58.5971637 15.3,59.2451637 15.678,60.4871637 L15.714,60.4871637 C16.218,59.4971637 17.406,58.5971637 18.846,58.5971637 C20.754,58.5971637 21.852,59.6771637 21.852,62.0891637 L21.852,67.9931637 L19.566,67.9931637 L19.566,62.5211637 C19.566,61.4771637 19.368,60.6851637 18.306,60.6851637 C17.136,60.6851637 16.362,61.6211637 16.092,62.7731637 C16.002,63.1331637 15.984,63.5291637 15.984,63.9611637 L15.984,67.9931637 L13.698,67.9931637 L13.698,62.5211637 C13.698,61.5311637 13.536,60.6851637 12.456,60.6851637 C11.268,60.6851637 10.494,61.6211637 10.206,62.7911637 C10.116,63.1331637 10.098,63.5471637 10.098,63.9611637 L10.098,67.9931637 L7.812,67.9931637 Z M24.246,67.9931637 L24.246,55.2131637 L26.532,55.2131637 L26.532,59.1551637 C26.532,59.6051637 26.496,59.9291637 26.496,59.9291637 L26.532,59.9291637 C26.532,59.9291637 27.342,58.5971637 29.286,58.5971637 C31.77,58.5971637 33.354,60.5591637 33.354,63.4031637 C33.354,66.3191637 31.572,68.2091637 29.142,68.2091637 C27.234,68.2091637 26.406,66.8411637 26.406,66.8411637 L26.37,66.8411637 C26.37,66.8411637 26.406,67.1111637 26.406,67.4711637 L26.406,67.9931637 L24.246,67.9931637 Z M26.46,63.4571637 C26.46,64.8791637 27.216,66.2831637 28.746,66.2831637 C30.006,66.2831637 31.05,65.2571637 31.05,63.4391637 C31.05,61.6931637 30.114,60.5591637 28.764,60.5591637 C27.576,60.5591637 26.46,61.4231637 26.46,63.4571637 Z M34.596,63.4031637 C34.596,60.5771637 36.522,58.5971637 39.258,58.5971637 C41.904,58.5971637 43.326,60.5231637 43.326,62.9531637 C43.326,63.2231637 43.272,63.8351637 43.272,63.8351637 L36.936,63.8351637 C37.08,65.4371637 38.322,66.2651637 39.69,66.2651637 C41.166,66.2651637 42.336,65.2571637 42.336,65.2571637 L43.218,66.8951637 C43.218,66.8951637 41.814,68.2091637 39.528,68.2091637 C36.486,68.2091637 34.596,66.0131637 34.596,63.4031637 Z M37.008,62.2691637 L41.022,62.2691637 C40.986,61.0271637 40.212,60.3611637 39.204,60.3611637 C38.034,60.3611637 37.224,61.0811637 37.008,62.2691637 Z M45.216,67.9931637 L45.216,58.8131637 L47.412,58.8131637 L47.412,60.3971637 C47.412,60.7391637 47.376,61.0451637 47.376,61.0451637 L47.412,61.0451637 C47.826,59.7311637 48.924,58.6871637 50.328,58.6871637 C50.544,58.6871637 50.742,58.7231637 50.742,58.7231637 L50.742,60.9731637 C50.742,60.9731637 50.508,60.9371637 50.202,60.9371637 C49.23,60.9371637 48.132,61.4951637 47.7,62.8631637 C47.556,63.3131637 47.502,63.8171637 47.502,64.3571637 L47.502,67.9931637 L45.216,67.9931637 Z M56.664,57.2471637 L56.664,55.2131637 L58.932,55.2131637 L58.932,57.2471637 L56.664,57.2471637 Z M56.664,67.9931637 L56.664,58.8131637 L58.95,58.8131637 L58.95,67.9931637 L56.664,67.9931637 Z M60.696,66.8591637 L61.74,65.2571637 C61.74,65.2571637 62.748,66.2651637 64.242,66.2651637 C64.89,66.2651637 65.448,65.9771637 65.448,65.4371637 C65.448,64.0691637 60.984,64.2491637 60.984,61.2971637 C60.984,59.5871637 62.514,58.5971637 64.494,58.5971637 C66.564,58.5971637 67.572,59.6411637 67.572,59.6411637 L66.726,61.3331637 C66.726,61.3331637 65.88,60.5411637 64.476,60.5411637 C63.882,60.5411637 63.306,60.7931637 63.306,61.3691637 C63.306,62.6651637 67.77,62.5031637 67.77,65.4551637 C67.77,66.9851637 66.438,68.2091637 64.26,68.2091637 C61.974,68.2091637 60.696,66.8591637 60.696,66.8591637 Z M73.206,66.8591637 L74.25,65.2571637 C74.25,65.2571637 75.258,66.2651637 76.752,66.2651637 C77.4,66.2651637 77.958,65.9771637 77.958,65.4371637 C77.958,64.0691637 73.494,64.2491637 73.494,61.2971637 C73.494,59.5871637 75.024,58.5971637 77.004,58.5971637 C79.074,58.5971637 80.082,59.6411637 80.082,59.6411637 L79.236,61.3331637 C79.236,61.3331637 78.39,60.5411637 76.986,60.5411637 C76.392,60.5411637 75.816,60.7931637 75.816,61.3691637 C75.816,62.6651637 80.28,62.5031637 80.28,65.4551637 C80.28,66.9851637 78.948,68.2091637 76.77,68.2091637 C74.484,68.2091637 73.206,66.8591637 73.206,66.8591637 Z M81.468,63.4031637 C81.468,60.5771637 83.394,58.5971637 86.13,58.5971637 C88.776,58.5971637 90.198,60.5231637 90.198,62.9531637 C90.198,63.2231637 90.144,63.8351637 90.144,63.8351637 L83.808,63.8351637 C83.952,65.4371637 85.194,66.2651637 86.562,66.2651637 C88.038,66.2651637 89.208,65.2571637 89.208,65.2571637 L90.09,66.8951637 C90.09,66.8951637 88.686,68.2091637 86.4,68.2091637 C83.358,68.2091637 81.468,66.0131637 81.468,63.4031637 Z M83.88,62.2691637 L87.894,62.2691637 C87.858,61.0271637 87.084,60.3611637 86.076,60.3611637 C84.906,60.3611637 84.096,61.0811637 83.88,62.2691637 Z M91.962,65.1311637 L91.962,55.2131637 L94.23,55.2131637 L94.23,64.7891637 C94.23,65.7971637 94.572,66.0491637 95.166,66.0491637 C95.346,66.0491637 95.508,66.0311637 95.508,66.0311637 L95.508,68.0291637 C95.508,68.0291637 95.166,68.0831637 94.788,68.0831637 C93.528,68.0831637 91.962,67.7591637 91.962,65.1311637 Z M96.552,63.4031637 C96.552,60.5771637 98.478,58.5971637 101.214,58.5971637 C103.86,58.5971637 105.282,60.5231637 105.282,62.9531637 C105.282,63.2231637 105.228,63.8351637 105.228,63.8351637 L98.892,63.8351637 C99.036,65.4371637 100.278,66.2651637 101.646,66.2651637 C103.122,66.2651637 104.292,65.2571637 104.292,65.2571637 L105.174,66.8951637 C105.174,66.8951637 103.77,68.2091637 101.484,68.2091637 C98.442,68.2091637 96.552,66.0131637 96.552,63.4031637 Z M98.964,62.2691637 L102.978,62.2691637 C102.942,61.0271637 102.168,60.3611637 101.16,60.3611637 C99.99,60.3611637 99.18,61.0811637 98.964,62.2691637 Z M106.506,63.4031637 C106.506,60.7931637 108.45,58.5971637 111.492,58.5971637 C113.886,58.5971637 115.02,59.9651637 115.02,59.9651637 L114.012,61.5311637 C114.012,61.5311637 113.058,60.5411637 111.618,60.5411637 C109.926,60.5411637 108.828,61.8191637 108.828,63.3851637 C108.828,64.9331637 109.944,66.2651637 111.69,66.2651637 C113.238,66.2651637 114.39,65.0951637 114.39,65.0951637 L115.272,66.7151637 C115.272,66.7151637 113.958,68.2091637 111.492,68.2091637 C108.45,68.2091637 106.506,66.0671637 106.506,63.4031637 Z M117.378,64.6271637 L117.378,60.7751637 L116.19,60.7751637 L116.19,58.9571637 L117.432,58.9571637 L117.432,56.3111637 L119.664,56.3111637 L119.664,58.9571637 L121.752,58.9571637 L121.752,60.7751637 L119.664,60.7751637 L119.664,64.3391637 C119.664,65.8511637 120.852,66.0671637 121.482,66.0671637 C121.734,66.0671637 121.896,66.0311637 121.896,66.0311637 L121.896,68.0291637 C121.896,68.0291637 121.626,68.0831637 121.194,68.0831637 C119.916,68.0831637 117.378,67.7051637 117.378,64.6271637 Z M123.12,63.4031637 C123.12,60.5771637 125.046,58.5971637 127.782,58.5971637 C130.428,58.5971637 131.85,60.5231637 131.85,62.9531637 C131.85,63.2231637 131.796,63.8351637 131.796,63.8351637 L125.46,63.8351637 C125.604,65.4371637 126.846,66.2651637 128.214,66.2651637 C129.69,66.2651637 130.86,65.2571637 130.86,65.2571637 L131.742,66.8951637 C131.742,66.8951637 130.338,68.2091637 128.052,68.2091637 C125.01,68.2091637 123.12,66.0131637 123.12,63.4031637 Z M125.532,62.2691637 L129.546,62.2691637 C129.51,61.0271637 128.736,60.3611637 127.728,60.3611637 C126.558,60.3611637 125.748,61.0811637 125.532,62.2691637 Z M133.11,63.4031637 C133.11,60.4871637 134.838,58.5971637 137.268,58.5971637 C139.284,58.5971637 139.914,59.7671637 139.914,59.7671637 L139.95,59.7671637 C139.95,59.7671637 139.932,59.5331637 139.932,59.2451637 L139.932,55.2131637 L142.218,55.2131637 L142.218,67.9931637 L140.058,67.9931637 L140.058,67.2371637 C140.058,66.8951637 140.094,66.6431637 140.094,66.6431637 L140.058,66.6431637 C140.058,66.6431637 139.284,68.2091637 137.178,68.2091637 C134.694,68.2091637 133.11,66.2471637 133.11,63.4031637 Z M135.414,63.4031637 C135.414,65.1491637 136.35,66.2831637 137.7,66.2831637 C138.888,66.2831637 140.004,65.4191637 140.004,63.3851637 C140.004,61.9631637 139.248,60.5591637 137.718,60.5591637 C136.458,60.5591637 135.414,61.5851637 135.414,63.4031637 Z" id="Memberisselected" fill-rule="nonzero" transform="translate(62.109000, 61.711164) rotate(-315.000000) translate(-62.109000, -61.711164) "></path>
                                    <text id="🎉" font-family="AppleColorEmoji, Apple Color Emoji" font-size="38" font-weight="normal">
                                        <tspan x="80.0584856" y="43">🎉</tspan>
                                    </text>
                                </g>
                            </g>
                        </g>
                    </g>
                </g>
            </g>
        </g>
    </g>
</svg>
