<?xml version="1.0" encoding="UTF-8"?>
<svg width="128px" height="106px" viewBox="0 0 128 106" version="1.1" xmlns="http://www.w3.org/2000/svg" xmlns:xlink="http://www.w3.org/1999/xlink">
    <!-- Generator: Sketch 54.1 (76490) - https://sketchapp.com -->
    <title>3</title>
    <desc>Created with Sketch.</desc>
    <g id="2.0" stroke="none" stroke-width="1" fill="none" fill-rule="evenodd">
        <g id="Desktop-HD" transform="translate(-976.000000, -3191.000000)" fill="#FF6969" fill-rule="nonzero">
            <g id="Contact" transform="translate(307.000000, 3047.000000)">
                <g id="Form" transform="translate(0.000000, 114.000000)">
                    <g id="3" transform="translate(669.000000, 30.000000)">
                        <path d="M96.959,69.067 L96.466,70.18 L95.569,69.782 C95.773,70.145 95.901,70.501 95.949,70.846 C96.03,71.342 95.957,71.85 95.728,72.37 C95.387,73.14 94.803,73.661 93.976,73.937 C93.15,74.213 92.192,74.109 91.101,73.624 C89.626,72.97 88.743,72.116 88.455,71.061 C88.272,70.393 88.326,69.733 88.614,69.082 C88.842,68.57 89.143,68.19 89.521,67.942 C89.738,67.795 90.055,67.665 90.474,67.552 L87.016,66.018 L87.522,64.88 L96.959,69.067 Z M89.754,70.995 C90.04,71.545 90.627,72.016 91.513,72.409 C92.052,72.648 92.549,72.776 93.008,72.792 C93.885,72.827 94.497,72.45 94.846,71.664 C95.198,70.873 95.043,70.158 94.384,69.516 C94.033,69.172 93.533,68.857 92.885,68.569 C92.361,68.337 91.882,68.218 91.446,68.212 C90.615,68.197 90.025,68.584 89.676,69.37 C89.44,69.903 89.465,70.444 89.754,70.995 Z M88.765,82.011 C87.864,82.165 86.916,81.878 85.92,81.148 C84.958,80.445 84.332,79.63 84.043,78.705 C83.755,77.78 83.97,76.829 84.686,75.849 C85.284,75.033 86.034,74.587 86.942,74.513 C87.849,74.438 88.772,74.743 89.706,75.429 C90.712,76.162 91.325,77 91.551,77.94 C91.776,78.881 91.576,79.779 90.952,80.632 C90.393,81.398 89.665,81.857 88.765,82.011 Z M85.247,78.483 C85.571,79.096 86.043,79.628 86.659,80.079 C87.218,80.486 87.736,80.729 88.215,80.808 C88.969,80.93 89.595,80.649 90.095,79.965 C90.539,79.357 90.627,78.744 90.362,78.126 C90.095,77.508 89.63,76.957 88.969,76.474 C88.333,76.01 87.702,75.761 87.078,75.727 C86.451,75.692 85.919,75.976 85.481,76.576 C85.001,77.235 84.923,77.871 85.247,78.483 Z M82.364,82.591 C82.057,82.308 81.765,82.143 81.488,82.095 C80.982,82.012 80.435,82.235 79.85,82.765 C79.501,83.081 79.261,83.433 79.131,83.821 C79,84.209 79.074,84.559 79.354,84.87 C79.568,85.106 79.836,85.19 80.16,85.122 C80.363,85.074 80.709,84.92 81.199,84.658 L82.111,84.169 C82.692,83.855 83.161,83.669 83.516,83.607 C84.145,83.493 84.659,83.656 85.058,84.097 C85.529,84.618 85.717,85.21 85.628,85.874 C85.539,86.539 85.174,87.16 84.532,87.74 C83.694,88.497 82.87,88.801 82.061,88.651 C81.55,88.553 81.139,88.323 80.822,87.961 L81.695,87.173 C81.9,87.364 82.146,87.484 82.431,87.535 C82.867,87.58 83.354,87.362 83.889,86.877 C84.245,86.554 84.456,86.244 84.52,85.945 C84.584,85.647 84.517,85.388 84.32,85.17 C84.104,84.93 83.812,84.849 83.44,84.924 C83.223,84.965 82.95,85.076 82.62,85.256 L81.863,85.669 C81.042,86.119 80.448,86.372 80.082,86.43 C79.508,86.518 78.995,86.309 78.537,85.803 C78.096,85.314 77.901,84.722 77.956,84.026 C78.01,83.332 78.424,82.636 79.192,81.942 C80.019,81.195 80.773,80.85 81.452,80.91 C82.132,80.97 82.731,81.263 83.25,81.789 L82.364,82.591 Z M80.372,93.384 L79.319,94.071 L78.19,92.339 L77.2,92.986 L76.644,92.135 L77.634,91.489 L74.994,87.44 C74.854,87.224 74.685,87.126 74.491,87.149 C74.382,87.159 74.234,87.227 74.044,87.35 C73.994,87.383 73.939,87.419 73.885,87.459 C73.828,87.5 73.765,87.55 73.695,87.611 L73.153,86.783 C73.252,86.67 73.36,86.564 73.478,86.464 C73.597,86.364 73.732,86.265 73.883,86.167 C74.369,85.85 74.781,85.759 75.118,85.895 C75.453,86.03 75.751,86.297 76.011,86.695 L78.687,90.802 L79.528,90.254 L80.083,91.105 L79.244,91.653 L80.372,93.384 Z M69.695,93.482 C69.448,93.629 69.321,93.816 69.312,94.04 C69.306,94.164 69.346,94.321 69.429,94.512 C69.598,94.902 69.861,95.125 70.214,95.18 C70.567,95.235 71,95.15 71.514,94.925 C72.109,94.666 72.46,94.319 72.569,93.889 C72.629,93.649 72.603,93.344 72.491,92.973 L73.557,92.507 C73.902,93.356 73.887,94.057 73.508,94.613 C73.131,95.169 72.597,95.597 71.911,95.898 C71.113,96.247 70.398,96.378 69.768,96.291 C69.142,96.202 68.688,95.838 68.408,95.195 L66.7,91.286 C66.647,91.168 66.581,91.083 66.502,91.033 C66.422,90.982 66.304,90.992 66.147,91.06 C66.095,91.082 66.041,91.11 65.979,91.145 C65.92,91.179 65.856,91.218 65.79,91.262 L65.421,90.419 C65.576,90.291 65.698,90.2 65.786,90.147 C65.873,90.093 65.997,90.031 66.156,89.961 C66.55,89.789 66.896,89.805 67.194,90.005 C67.353,90.112 67.51,90.293 67.666,90.546 C67.764,90.141 67.982,89.73 68.321,89.317 C68.658,88.902 69.088,88.582 69.612,88.353 C70.241,88.077 70.84,88.044 71.404,88.251 C71.971,88.458 72.379,88.848 72.63,89.423 C72.905,90.051 72.921,90.624 72.679,91.142 C72.437,91.66 72.017,92.098 71.413,92.457 L69.695,93.482 Z M70.749,89.351 C70.426,89.266 70.098,89.297 69.768,89.441 C69.367,89.616 69.019,89.878 68.726,90.229 C68.226,90.813 68.13,91.455 68.437,92.156 L68.836,93.073 C68.937,92.924 69.083,92.771 69.277,92.616 C69.47,92.46 69.665,92.324 69.865,92.207 L70.516,91.817 C70.904,91.581 71.177,91.359 71.335,91.15 C71.602,90.797 71.64,90.405 71.45,89.97 C71.307,89.642 71.074,89.436 70.749,89.351 Z M61.123,98.702 C60.862,98.591 60.581,98.409 60.281,98.153 L60.467,99.069 L59.343,99.297 L58.006,92.696 C57.82,91.774 57.808,91.02 57.968,90.432 C58.274,89.345 59.127,88.66 60.527,88.376 C61.305,88.218 61.996,88.261 62.598,88.503 C63.201,88.746 63.609,89.234 63.823,89.966 L62.583,90.217 C62.459,89.903 62.291,89.676 62.08,89.535 C61.75,89.319 61.294,89.271 60.703,89.39 C59.776,89.579 59.232,90.031 59.079,90.749 C58.987,91.172 59.048,91.882 59.263,92.878 C59.432,92.458 59.667,92.124 59.974,91.873 C60.279,91.623 60.713,91.441 61.276,91.328 C62.06,91.169 62.8,91.31 63.5,91.749 C64.201,92.187 64.68,93.052 64.943,94.339 C65.187,95.554 65.084,96.563 64.63,97.365 C64.177,98.167 63.532,98.652 62.695,98.822 C62.126,98.937 61.603,98.898 61.123,98.702 Z M60.709,97.425 C61.164,97.783 61.68,97.905 62.25,97.79 C63.105,97.617 63.608,97.096 63.759,96.229 C63.837,95.765 63.808,95.187 63.668,94.491 C63.502,93.673 63.211,93.085 62.794,92.724 C62.378,92.364 61.889,92.24 61.333,92.353 C60.46,92.53 59.928,93.049 59.734,93.912 C59.625,94.399 59.632,94.941 59.752,95.538 C59.933,96.436 60.252,97.066 60.709,97.425 Z M50.842,99.477 C50.355,99.223 49.986,98.899 49.733,98.504 C49.491,98.128 49.332,97.69 49.257,97.191 C49.189,96.849 49.159,96.305 49.169,95.558 L54.555,95.629 C54.542,94.876 54.375,94.269 54.051,93.809 C53.728,93.349 53.223,93.115 52.531,93.106 C51.884,93.098 51.367,93.306 50.978,93.731 C50.761,93.978 50.604,94.265 50.51,94.594 L49.285,94.577 C49.321,94.305 49.433,94.004 49.62,93.672 C49.806,93.34 50.013,93.07 50.24,92.861 C50.62,92.497 51.088,92.254 51.644,92.133 C51.942,92.064 52.278,92.031 52.652,92.037 C53.567,92.048 54.341,92.395 54.968,93.074 C55.595,93.752 55.902,94.696 55.886,95.904 C55.869,97.093 55.535,98.054 54.884,98.788 C54.233,99.521 53.389,99.881 52.356,99.868 C51.833,99.86 51.33,99.73 50.842,99.477 Z M50.434,96.564 C50.477,97.104 50.588,97.536 50.766,97.862 C51.097,98.465 51.657,98.773 52.449,98.784 C53.015,98.791 53.492,98.591 53.882,98.183 C54.27,97.776 54.481,97.254 54.512,96.619 L50.434,96.564 Z M41.023,92.894 C41.125,92.49 41.131,92.156 41.041,91.889 C40.871,91.405 40.414,91.032 39.667,90.769 C39.223,90.613 38.8,90.571 38.397,90.642 C37.992,90.713 37.721,90.947 37.583,91.342 C37.477,91.642 37.531,91.917 37.748,92.169 C37.885,92.325 38.187,92.556 38.65,92.86 L39.516,93.427 C40.071,93.787 40.457,94.109 40.681,94.394 C41.082,94.891 41.185,95.421 40.988,95.981 C40.756,96.643 40.327,97.093 39.7,97.333 C39.074,97.572 38.353,97.549 37.538,97.262 C36.472,96.888 35.81,96.309 35.557,95.526 C35.398,95.031 35.402,94.559 35.57,94.109 L36.68,94.499 C36.609,94.771 36.62,95.044 36.712,95.32 C36.881,95.724 37.308,96.045 37.987,96.284 C38.442,96.444 38.815,96.48 39.107,96.393 C39.4,96.306 39.596,96.123 39.694,95.847 C39.8,95.543 39.732,95.246 39.49,94.957 C39.349,94.786 39.121,94.599 38.806,94.394 L38.08,93.927 C37.294,93.421 36.787,93.022 36.56,92.727 C36.209,92.267 36.147,91.715 36.373,91.07 C36.59,90.448 37.017,89.995 37.654,89.711 C38.291,89.426 39.098,89.455 40.076,89.798 C41.128,90.167 41.791,90.665 42.064,91.29 C42.338,91.916 42.366,92.582 42.153,93.289 L41.023,92.894 Z M30.612,96.326 L29.503,95.731 L30.479,93.91 L29.438,93.351 L29.919,92.455 L30.96,93.014 L33.244,88.755 C33.367,88.527 33.373,88.334 33.258,88.174 C33.195,88.083 33.067,87.985 32.867,87.878 C32.814,87.849 32.757,87.82 32.695,87.791 C32.632,87.761 32.558,87.73 32.47,87.697 L32.938,86.826 C33.085,86.857 33.229,86.9 33.374,86.957 C33.518,87.014 33.669,87.084 33.828,87.17 C34.339,87.444 34.617,87.762 34.659,88.122 C34.702,88.482 34.612,88.871 34.387,89.29 L32.068,93.609 L32.952,94.084 L32.471,94.979 L31.587,94.505 L30.612,96.326 Z M25.404,87 C25.155,86.854 24.93,86.831 24.729,86.932 C24.617,86.985 24.5,87.094 24.371,87.259 C24.108,87.596 24.04,87.932 24.16,88.269 C24.28,88.605 24.562,88.945 25.005,89.289 C25.518,89.687 25.99,89.83 26.421,89.719 C26.658,89.658 26.915,89.49 27.188,89.214 L28.104,89.926 C27.524,90.635 26.9,90.957 26.231,90.891 C25.563,90.825 24.932,90.563 24.34,90.103 C23.653,89.57 23.195,89.006 22.97,88.411 C22.748,87.819 22.851,87.245 23.281,86.692 L25.894,83.322 C25.975,83.22 26.016,83.121 26.023,83.027 C26.03,82.933 25.963,82.834 25.829,82.729 C25.786,82.696 25.734,82.66 25.675,82.623 C25.618,82.587 25.552,82.549 25.482,82.511 L26.045,81.785 C26.232,81.86 26.37,81.923 26.458,81.975 C26.546,82.027 26.661,82.105 26.797,82.213 C27.138,82.476 27.289,82.786 27.257,83.145 C27.239,83.335 27.155,83.558 27.007,83.817 C27.411,83.711 27.876,83.707 28.4,83.804 C28.925,83.902 29.413,84.126 29.864,84.476 C30.407,84.897 30.723,85.406 30.812,86.002 C30.901,86.598 30.753,87.144 30.368,87.638 C29.949,88.18 29.454,88.469 28.883,88.504 C28.315,88.54 27.726,88.379 27.123,88.021 L25.404,87 Z M29.536,85.95 C29.455,85.625 29.273,85.353 28.99,85.132 C28.642,84.864 28.244,84.684 27.796,84.592 C27.045,84.433 26.436,84.657 25.968,85.26 L25.353,86.051 C25.533,86.068 25.737,86.124 25.965,86.219 C26.195,86.315 26.409,86.422 26.606,86.542 L27.26,86.926 C27.653,87.155 27.979,87.288 28.238,87.326 C28.675,87.391 29.038,87.237 29.328,86.862 C29.546,86.578 29.616,86.275 29.536,85.95 Z M18.848,85.244 L18.102,84.263 L18.939,83.627 C18.471,83.612 18.098,83.56 17.822,83.47 C17.35,83.313 16.956,83.028 16.64,82.613 C16.284,82.143 16.112,81.677 16.126,81.216 C16.134,80.953 16.217,80.659 16.375,80.332 C15.89,80.352 15.46,80.271 15.082,80.088 C14.705,79.907 14.374,79.631 14.093,79.26 C13.491,78.467 13.368,77.71 13.723,76.989 C13.914,76.601 14.271,76.208 14.79,75.812 L18.716,72.829 L19.498,73.858 L15.403,76.97 C15.009,77.269 14.814,77.572 14.816,77.879 C14.819,78.188 14.928,78.482 15.141,78.765 C15.437,79.155 15.821,79.391 16.296,79.473 C16.77,79.555 17.311,79.365 17.92,78.903 L21.349,76.296 L22.116,77.304 L18.266,80.228 C17.867,80.533 17.611,80.802 17.501,81.038 C17.34,81.397 17.416,81.782 17.729,82.193 C18.013,82.567 18.416,82.798 18.94,82.884 C19.461,82.97 20.104,82.724 20.863,82.147 L23.989,79.77 L24.743,80.761 L18.848,85.244 Z M11.041,73.659 L10.577,72.535 L11.485,72.16 C11.079,72.057 10.735,71.905 10.451,71.703 C10.033,71.419 9.719,71.014 9.501,70.489 C9.181,69.711 9.205,68.929 9.576,68.141 C9.945,67.353 10.684,66.732 11.787,66.276 C13.277,65.66 14.505,65.613 15.466,66.131 C16.076,66.46 16.516,66.954 16.789,67.614 C17.003,68.131 17.068,68.612 16.987,69.056 C16.944,69.314 16.818,69.634 16.611,70.014 L20.107,68.572 L20.583,69.722 L11.041,73.659 Z M14.622,67.116 C14.024,66.944 13.278,67.043 12.384,67.412 C11.838,67.638 11.402,67.909 11.075,68.231 C10.445,68.841 10.293,69.544 10.622,70.339 C10.95,71.139 11.575,71.521 12.494,71.488 C12.986,71.471 13.558,71.327 14.213,71.056 C14.744,70.838 15.159,70.573 15.466,70.263 C16.05,69.672 16.177,68.978 15.847,68.183 C15.628,67.643 15.219,67.288 14.622,67.116 Z M35.631,49.065 C34.787,49.769 33.582,50.121 32.017,50.121 L29.015,50.121 L29.015,55.303 L26.023,55.303 L26.023,40.89 L32.211,40.89 C33.637,40.89 34.776,41.262 35.623,42.005 C36.472,42.748 36.895,43.898 36.895,45.457 C36.896,47.158 36.475,48.361 35.631,49.065 Z M33.333,43.873 C32.95,43.554 32.417,43.394 31.729,43.394 L29.015,43.394 L29.015,47.637 L31.729,47.637 C32.416,47.637 32.95,47.464 33.333,47.119 C33.713,46.773 33.904,46.226 33.904,45.476 C33.904,44.726 33.713,44.192 33.333,43.873 Z M50.409,54.022 C49.321,55.143 47.745,55.704 45.686,55.704 C43.627,55.704 42.052,55.143 40.963,54.022 C39.503,52.647 38.773,50.665 38.773,48.077 C38.773,45.437 39.504,43.456 40.963,42.132 C42.051,41.011 43.627,40.45 45.686,40.45 C47.745,40.45 49.32,41.011 50.409,42.132 C51.863,43.455 52.589,45.437 52.589,48.077 C52.59,50.665 51.863,52.647 50.409,54.022 Z M48.528,51.832 C49.228,50.952 49.578,49.7 49.578,48.077 C49.578,46.46 49.227,45.211 48.528,44.327 C47.827,43.444 46.88,43.002 45.687,43.002 C44.494,43.002 43.542,43.442 42.832,44.322 C42.122,45.202 41.766,46.454 41.766,48.077 C41.766,49.7 42.122,50.952 42.832,51.832 C43.542,52.712 44.494,53.152 45.687,53.152 C46.879,53.152 47.826,52.712 48.528,51.832 Z M57.058,50.854 C57.152,51.513 57.335,52.004 57.607,52.33 C58.107,52.923 58.962,53.22 60.173,53.22 C60.898,53.22 61.487,53.142 61.94,52.985 C62.798,52.685 63.228,52.128 63.228,51.313 C63.228,50.837 63.018,50.469 62.597,50.208 C62.177,49.954 61.51,49.729 60.597,49.533 L59.037,49.191 C57.503,48.852 56.449,48.484 55.876,48.086 C54.904,47.421 54.419,46.381 54.419,44.967 C54.419,43.676 54.894,42.604 55.845,41.75 C56.795,40.896 58.19,40.469 60.031,40.469 C61.569,40.469 62.879,40.871 63.966,41.677 C65.05,42.482 65.62,43.651 65.673,45.182 L62.779,45.182 C62.726,44.315 62.338,43.699 61.617,43.334 C61.135,43.093 60.537,42.972 59.822,42.972 C59.027,42.972 58.392,43.128 57.918,43.441 C57.443,43.754 57.206,44.19 57.206,44.751 C57.206,45.266 57.441,45.651 57.907,45.905 C58.209,46.075 58.846,46.273 59.822,46.501 L62.352,47.097 C63.461,47.358 64.291,47.707 64.844,48.143 C65.704,48.821 66.133,49.802 66.133,51.086 C66.133,52.402 65.623,53.496 64.606,54.366 C63.588,55.236 62.15,55.671 60.293,55.671 C58.395,55.671 56.902,55.242 55.815,54.385 C54.728,53.528 54.185,52.35 54.185,50.85 L57.058,50.85 L57.058,50.854 Z M78.715,40.89 L78.715,43.442 L74.403,43.442 L74.403,55.302 L71.372,55.302 L71.372,43.442 L67.041,43.442 L67.041,40.89 L78.715,40.89 Z M34.189,71.218 C34.561,70.453 35.285,69.757 36.364,69.131 L37.973,68.201 C38.694,67.782 39.199,67.424 39.49,67.128 C39.948,66.663 40.177,66.131 40.177,65.532 C40.177,64.832 39.967,64.277 39.548,63.866 C39.129,63.455 38.57,63.249 37.872,63.249 C36.838,63.249 36.123,63.642 35.727,64.426 C35.515,64.846 35.397,65.429 35.375,66.174 L33.841,66.174 C33.858,65.129 34.051,64.277 34.419,63.618 C35.073,62.456 36.226,61.875 37.88,61.875 C39.254,61.875 40.259,62.247 40.893,62.99 C41.527,63.733 41.844,64.56 41.844,65.471 C41.844,66.432 41.506,67.253 40.83,67.935 C40.439,68.332 39.738,68.812 38.726,69.377 L37.578,70.014 C37.03,70.316 36.6,70.603 36.287,70.877 C35.728,71.363 35.376,71.902 35.231,72.495 L41.785,72.495 L41.785,73.92 L33.547,73.92 C33.604,72.883 33.818,71.983 34.189,71.218 Z M50.57,63.834 C51.106,64.823 51.375,66.178 51.375,67.899 C51.375,69.53 51.132,70.88 50.646,71.947 C49.942,73.478 48.791,74.243 47.193,74.243 C45.751,74.243 44.679,73.617 43.975,72.366 C43.388,71.321 43.095,69.919 43.095,68.159 C43.095,66.796 43.271,65.625 43.623,64.647 C44.282,62.826 45.475,61.915 47.202,61.915 C48.754,61.915 49.877,62.555 50.57,63.834 Z M49.051,71.83 C49.516,71.137 49.748,69.847 49.748,67.958 C49.748,66.595 49.58,65.473 49.244,64.593 C48.909,63.713 48.256,63.273 47.288,63.273 C46.398,63.273 45.747,63.691 45.337,64.526 C44.925,65.361 44.72,66.592 44.72,68.218 C44.72,69.442 44.851,70.425 45.114,71.168 C45.518,72.302 46.206,72.869 47.18,72.869 C47.963,72.869 48.588,72.522 49.051,71.83 Z M53.746,65.418 L53.746,64.261 C54.836,64.155 55.595,63.977 56.026,63.729 C56.456,63.48 56.777,62.892 56.99,61.965 L58.18,61.965 L58.18,73.916 L56.57,73.916 L56.57,65.418 L53.746,65.418 L53.746,65.418 Z M70.625,62.116 L70.625,63.432 C70.239,63.806 69.727,64.457 69.087,65.385 C68.447,66.312 67.882,67.313 67.39,68.385 C66.904,69.43 66.535,70.382 66.284,71.243 C66.122,71.796 65.912,72.687 65.655,73.916 L63.987,73.916 C64.367,71.625 65.205,69.346 66.501,67.077 C67.266,65.747 68.071,64.599 68.915,63.632 L62.277,63.632 L62.277,62.115 L70.625,62.115 L70.625,62.116 Z M128,28.942 L126.055,26.839 C115.156,36.908 107.69,32.031 99.766,26.853 C99.323,26.567 98.865,26.267 98.407,25.981 C95.804,21.604 92.586,17.642 88.867,14.195 C91.985,15.153 95.003,17.127 98.207,19.23 C102.884,22.291 107.905,25.581 113.74,25.581 C118.017,25.581 122.708,23.822 128,18.93 L126.055,16.827 C115.156,26.896 107.69,22.019 99.766,16.841 C95.232,13.88 90.34,10.676 84.762,10.748 C75.894,4.054 64.866,0.078 52.923,0.078 C23.743,0.078 0,23.821 0,53 C0,82.179 23.743,105.922 52.922,105.922 C82.101,105.922 105.844,82.179 105.844,53 C105.844,49.682 105.529,46.421 104.943,43.274 C107.689,44.647 110.593,45.605 113.74,45.605 C118.017,45.605 122.708,43.846 128,38.954 L126.055,36.851 C117.158,45.061 110.565,43.33 104.128,39.597 C103.356,36.665 102.34,33.819 101.096,31.101 C104.944,33.504 109.092,35.592 113.74,35.592 C118.016,35.593 122.708,33.834 128,28.942 Z M100.466,37.324 C100.223,37.167 99.994,37.024 99.765,36.866 C94.315,33.304 88.322,29.4 81.285,31.259 C79.983,29.557 78.524,27.969 76.937,26.525 C84.332,21.218 90.053,24.022 96.289,27.998 C97.992,30.93 99.393,34.048 100.466,37.324 Z M75.049,38.025 C76.865,36.437 78.582,35.35 80.212,34.635 C83.746,39.884 85.82,46.206 85.82,53 C85.82,71.137 71.059,85.898 52.922,85.898 C34.785,85.898 20.025,71.137 20.025,53 C20.025,34.863 34.786,20.102 52.923,20.102 C63.221,20.102 72.433,24.865 78.469,32.303 C76.767,33.104 75.008,34.263 73.177,35.865 L75.049,38.025 Z M101.639,41.457 C102.526,45.162 102.984,49.023 102.984,53 C102.984,80.605 80.528,103.061 52.923,103.061 C25.318,103.061 2.861,80.605 2.861,53 C2.861,25.395 25.317,2.939 52.922,2.939 C63.206,2.939 72.761,6.057 80.728,11.392 C78.339,12.121 75.822,13.523 73.176,15.84 L75.049,18 C78.239,15.225 81.114,13.924 83.831,13.638 C87.178,16.284 90.196,19.345 92.785,22.735 C87.464,20.218 81.557,19.417 74.677,24.637 C68.655,20.003 61.118,17.242 52.922,17.242 C33.198,17.242 17.164,33.276 17.164,53 C17.164,72.71 33.198,88.758 52.922,88.758 C72.646,88.758 88.68,72.71 88.68,53 C88.68,45.934 86.62,39.326 83.059,33.776 C88.394,32.846 93.057,35.893 98.206,39.254 C99.336,39.984 100.481,40.742 101.639,41.457 Z" id="_x3C_Path_x3E__2_"></path>
                    </g>
                </g>
            </g>
        </g>
    </g>
</svg>