<?xml version="1.0" encoding="UTF-8"?>
<svg width="82px" height="71px" viewBox="0 0 82 71" version="1.1" xmlns="http://www.w3.org/2000/svg" xmlns:xlink="http://www.w3.org/1999/xlink">
    <!-- Generator: Sketch 54.1 (76490) - https://sketchapp.com -->
    <title>13</title>
    <desc>Created with Sketch.</desc>
    <g id="2.0" stroke="none" stroke-width="1" fill="none" fill-rule="evenodd">
        <g id="Desktop-HD" transform="translate(-884.000000, -3209.000000)" fill="#7B6CFF" fill-rule="nonzero">
            <g id="Contact" transform="translate(307.000000, 3047.000000)">
                <g id="Form" transform="translate(0.000000, 114.000000)">
                    <g id="13" transform="translate(577.000000, 48.000000)">
                        <path d="M57.0523035,70.6354909 L51.3976606,70.6354909 L51.4857767,69.5185088 C51.4895803,68.5073927 50.6730803,67.6908927 49.6695713,67.6908927 C48.6660624,67.6908927 47.8501963,68.5073927 47.8501963,69.5102677 L47.8685803,69.6471963 L47.9541606,70.6354909 L42.2995178,70.6354909 L42.3876339,69.5185088 C42.3914374,68.5073927 41.5749374,67.6908927 40.5714285,67.6908927 C39.5679196,67.6908927 38.7520535,68.5073927 38.7520535,69.5102677 L38.7704374,69.6471963 L38.8560178,70.6354909 L33.2013749,70.6354909 L33.289491,69.5185088 C33.2932946,68.5073927 32.4767946,67.6908927 31.4732857,67.6908927 C30.4704107,67.6908927 29.6539107,68.5073927 29.6539107,69.5102677 L29.6722946,69.6471963 L29.7578749,70.6354909 L24.1032321,70.6354909 L24.1913482,69.5185088 C24.1951517,68.5073927 23.3786517,67.6908927 22.3751428,67.6908927 C21.7025446,67.6908927 21.0876339,68.0693481 20.7706696,68.6779195 L20.0048839,70.1486338 L17.4095803,65.6521785 L18.0320982,65.1653213 C18.7420982,64.6099999 18.9398839,63.6077588 18.4929643,62.8330981 C18.0460446,62.0571695 17.0780357,61.7294285 16.2425178,62.0654106 L15.5096964,62.3601874 L12.8611428,57.7737142 L13.4836607,57.2862231 C14.1936607,56.7315356 14.3914464,55.7286606 13.9445268,54.9539999 C13.4976071,54.1780713 12.5295982,53.8515981 11.6940803,54.1863124 L10.9612589,54.4810892 L8.31270534,49.894616 L8.9352232,49.4071249 C9.6452232,48.8524374 9.84300891,47.8495624 9.39608927,47.0749017 C8.9485357,46.300241 7.98052677,45.9712321 7.14564284,46.3072142 L6.41282142,46.601991 L3.76426785,42.0155178 L4.38678571,41.5280267 C5.09678571,40.9733392 5.29457142,39.9704642 4.84765178,39.1958035 C4.40073214,38.4211428 3.43272321,38.0921339 2.59720535,38.428116 L1.86438393,38.7228928 L0,35.4999999 L1.59623214,32.7341696 L2.37976785,33.174116 C3.24634821,33.6590714 4.35001785,33.3554196 4.84511606,32.499616 C5.33894642,31.6431785 5.04797321,30.5344374 4.19660714,30.0279285 L3.42511607,29.5683303 L6.14593749,24.8550714 L6.9294732,25.2950178 C7.79668749,25.7793392 8.90035713,25.4763214 9.39482141,24.6205178 C9.88865177,23.7640803 9.59767855,22.6553392 8.74631248,22.1488303 L7.97482141,21.6892321 L10.6956428,16.9759732 L11.4791786,17.4159196 C12.3457589,17.900241 13.4500625,17.5978571 13.9445268,16.7414196 C14.4383571,15.8849821 14.1473839,14.776241 13.2960178,14.2697321 L12.5245268,13.8101339 L15.2453482,9.09687498 L16.0288839,9.53682141 C16.8922946,10.019875 17.9991339,9.71875891 18.4942321,8.86232141 C18.9886964,8.00588391 18.6983571,6.89714285 17.8463571,6.39063392 L17.0735982,5.93230356 L20.0232678,0.823473213 L20.8125089,2.18134821 C21.1446875,2.75378571 21.7304375,3.09483928 22.3770446,3.09483928 C23.3799196,3.09483928 24.1964196,2.27833928 24.1964196,1.27546428 L24.1964196,0.364508928 L29.6551785,0.364508928 L29.6551785,1.27419643 C29.6551785,2.27707142 30.4716785,3.09357142 31.4745535,3.09357142 C32.4774285,3.09357142 33.2939285,2.27707142 33.2939285,1.27419643 L33.2939285,0.364508928 L38.7526874,0.364508928 L38.7526874,1.27419643 C38.7526874,2.27707142 39.5691874,3.09357142 40.5720624,3.09357142 C41.5749374,3.09357142 42.3914374,2.27707142 42.3914374,1.27419643 L42.3914374,0.364508928 L47.8501963,0.364508928 L47.8501963,1.27419643 C47.8501963,2.27707142 48.6666963,3.09357142 49.6695713,3.09357142 C50.6724463,3.09357142 51.4889463,2.27707142 51.4889463,1.27419643 L51.4889463,0.364508928 L56.9477053,0.364508928 L56.9477053,1.27419643 C56.9477053,2.27707142 57.7642053,3.09357142 58.7670803,3.09357142 C59.4149553,3.09357142 60.0000713,2.75251785 60.3328838,2.18008035 L61.1221249,0.822205356 L64.0717945,5.9310357 L63.2990356,6.38936606 C62.4470356,6.89587499 62.1566963,8.00461606 62.6511606,8.86105356 C63.1462588,9.71749105 64.2530981,10.0186071 65.115241,9.53555355 L65.8987767,9.09560713 L68.620866,13.8101339 L67.848107,14.2684643 C66.996107,14.7749732 66.7057677,15.8837143 67.200232,16.7401518 C67.6940624,17.5965893 68.8015356,17.8977053 69.6643124,17.4146518 L70.4478481,16.9747053 L73.1699374,21.6892321 L72.3971784,22.1475625 C71.5451784,22.6540714 71.2548392,23.7628125 71.7493034,24.61925 C72.2431338,25.4756875 73.350607,25.7768035 74.2133838,25.29375 L74.9969195,24.8538035 L77.7183749,29.5670624 L76.9462499,30.0266607 C76.0942499,30.5331696 75.8039106,31.6419107 76.2983749,32.4983482 C76.7922052,33.3541517 77.9003124,33.6559017 78.7624552,33.1728482 L79.5459909,32.7329017 L81.142857,35.4999999 L79.2822766,38.7228928 L78.5494552,38.428116 C77.717107,38.0934017 76.7459284,38.4211428 76.2990088,39.1958035 C75.8514552,39.9704642 76.0492409,40.9727053 76.7592409,41.5292946 L77.3823927,42.0161517 L74.7338392,46.6026249 L74.0010177,46.3078481 C73.1686695,45.971866 72.1974909,46.2996071 71.7505713,47.0755356 C71.3030177,47.8501963 71.5008034,48.8524374 72.2108034,49.4090267 L72.8339552,49.8958838 L70.1854017,54.482357 L69.4525802,54.1875803 C68.620232,53.852866 67.6490535,54.180607 67.2021338,54.9552678 C66.7545802,55.7299285 66.952366,56.7321695 67.662366,57.2887588 L68.2855177,57.775616 L65.6369642,62.3620892 L64.9041427,62.0673124 C64.0724285,61.7313302 63.100616,62.0590713 62.6536963,62.8349999 C62.2061427,63.6096606 62.4039285,64.6119017 63.1139285,65.168491 L63.7358124,65.6553481 L61.1424106,70.1505356 L60.375357,68.6817231 C60.0571249,68.0725177 59.4422142,67.6934285 58.769616,67.6934285 C57.766741,67.6934285 56.950241,68.5099285 56.950241,69.5128034 L56.9686249,69.649732 L57.0523035,70.6354909 Z M53.2423928,68.816116 L55.1955267,68.816116 C55.520732,67.1406427 56.9990535,65.8715177 58.7683481,65.8715177 C59.6114731,65.8715177 60.4083213,66.1637588 61.0422499,66.6785088 L61.414366,66.0331695 C60.4812231,64.8851249 60.3151338,63.2407142 61.0758481,61.9227767 C61.8384642,60.6048392 63.3465802,59.9220981 64.804616,60.1610892 L65.9634374,58.1528035 C65.0302945,57.0060267 64.8642052,55.360982 65.6249195,54.0436785 C66.3862677,52.725741 67.893116,52.0442678 69.3536874,52.281991 L70.5125088,50.2737053 C69.5793659,49.1269285 69.4132767,47.4818838 70.1739909,46.1645803 C70.9353392,44.8466428 72.4434552,44.1664374 73.9027588,44.4028928 L75.0615802,42.3946071 C74.1284374,41.2478303 73.9617142,39.6027856 74.7230624,38.2854821 C75.4844106,36.9675446 76.9931606,36.2848035 78.4518302,36.5237946 L79.0426516,35.4999999 L78.8125356,35.1018928 C77.2600445,35.5114107 75.5579463,34.8546607 74.7230624,33.4093035 C73.8881784,31.9639464 74.1702767,30.1585178 75.3024731,29.0212499 L74.2640981,27.2227946 C72.7109731,27.6323125 71.0101427,26.9755625 70.1746249,25.5302053 C69.3397409,24.0835803 69.6218392,22.2781517 70.7527677,21.1421517 L69.7150267,19.3436964 C68.1619017,19.7532143 66.4604374,19.0964643 65.6255535,17.6511071 C64.7906695,16.2044821 65.0727677,14.3990535 66.2036963,13.2630535 L65.1659552,11.4645982 C63.6179017,11.8741161 61.9119999,11.2173661 61.076482,9.77200891 C60.2415981,8.32538391 60.5236963,6.51995535 61.6546249,5.38395535 L60.9554017,4.17188392 C60.3335178,4.64479463 59.5664642,4.91358035 58.768982,4.91358035 C57.0763928,4.91358035 55.6494195,3.75222321 55.2449731,2.18388392 L53.1929463,2.18388392 C52.7884999,3.75222321 51.3615267,4.91358035 49.6689374,4.91358035 C47.9763481,4.91358035 46.5493749,3.75222321 46.1449285,2.18388392 L44.0941696,2.18388392 C43.6897231,3.75222321 42.2627499,4.91358035 40.5701606,4.91358035 C38.8775714,4.91358035 37.4505981,3.75222321 37.0461517,2.18388392 L34.9953928,2.18388392 C34.5909464,3.75222321 33.1639732,4.91358035 31.4713839,4.91358035 C29.7787946,4.91358035 28.3518214,3.75222321 27.947375,2.18388392 L25.896616,2.18388392 C25.4921696,3.75222321 24.0651964,4.91358035 22.3726071,4.91358035 C21.5757589,4.91358035 20.8087053,4.64416071 20.1868214,4.17188392 L19.4875982,5.38395535 C20.6185267,6.52058927 20.9012589,8.32601784 20.065741,9.77200891 C19.2302232,11.2173661 17.527491,11.8753839 15.9756339,11.4645982 L14.9378928,13.2630535 C16.0688214,14.4003214 16.3509196,16.20575 15.5166696,17.6511071 C14.6817857,19.0964643 12.9796875,19.7544821 11.4265625,19.3436964 L10.3888214,21.1421517 C11.51975,22.2794196 11.8018482,24.0848482 10.9675982,25.5302053 C10.1327143,26.9755625 8.43251784,27.6323125 6.87749106,27.2227946 L5.84165178,29.0212499 C6.97258034,30.1585178 7.25467856,31.9639464 6.42042856,33.4093035 C5.58554463,34.8546607 3.88217856,35.5114107 2.33095535,35.1018928 L2.10147321,35.4999999 L2.69229464,36.5237946 C4.14779464,36.2848035 5.65908035,36.9681785 6.42106249,38.2854821 C7.18177677,39.6040535 7.01505356,41.2484642 6.08254463,42.3946071 L7.24136606,44.4028928 C8.69813391,44.1664374 10.2081518,44.8472767 10.9701339,46.1645803 C11.7308482,47.4831517 11.564125,49.1275624 10.6316161,50.2737053 L11.7904375,52.281991 C13.2446696,52.0449017 14.7572232,52.7263749 15.5192053,54.0436785 C16.2799196,55.3622499 16.1131964,57.0066606 15.1806875,58.1528035 L16.3395089,60.1610892 C17.793741,59.9220981 19.3069285,60.6054731 20.0682768,61.9227767 C20.828991,63.2407142 20.6629017,64.8857588 19.7297589,66.0331695 L20.101875,66.677241 C20.7351696,66.1637588 21.5313839,65.8715177 22.3745089,65.8715177 C24.1438035,65.8715177 25.622125,67.1400088 25.9473303,68.816116 L27.9004642,68.816116 C28.2256696,67.1406427 29.703991,65.8715177 31.4732857,65.8715177 C33.2425803,65.8715177 34.7209017,67.1400088 35.0461071,68.816116 L36.999241,68.816116 C37.3244464,67.1406427 38.8027678,65.8715177 40.5720624,65.8715177 C42.3413571,65.8715177 43.8196785,67.1400088 44.1448839,68.816116 L46.0980178,68.816116 C46.4232231,67.1406427 47.9015446,65.8715177 49.6708392,65.8715177 C51.4401338,65.8715177 52.9171874,67.1406427 53.2423928,68.816116 Z M56.9305892,63.8340713 L24.2135357,63.8340713 L7.85374106,35.4999999 L24.2129017,7.16592856 L56.9299553,7.16592856 L73.288482,35.4999999 L56.9305892,63.8340713 Z M25.2633214,62.0146963 L55.8801695,62.0146963 L71.1882767,35.4999999 L55.8801695,8.98530356 L25.2633214,8.98530356 L9.95521427,35.4999999 L25.2633214,62.0146963 Z M46.5018303,55.609482 L41.578741,38.321616 L31.1639285,48.2483035 L31.6444464,51.6068571 L29.0973214,54.4081874 L26.1673035,48.8638481 L20.6229642,45.9344642 L23.4242946,43.3860714 L26.7828482,43.8665892 L36.7089017,33.4517767 L19.4210357,28.5286874 L23.4629642,25.3533392 L43.1965267,27.1384821 C48.8391249,20.4815982 52.885491,17.6992857 55.227857,18.8600089 C55.423107,18.9576339 55.5968035,19.0787143 55.760991,19.232125 L55.9327856,19.4197678 C56.0145624,19.5281696 56.0919017,19.6479821 56.1654374,19.7899821 C57.3337678,22.1443928 54.5501874,26.1913928 47.8933035,31.8333571 L49.6771785,51.5669196 L46.5018303,55.609482 Z M42.5042767,34.9262946 L47.2745892,51.6810267 L47.8007499,51.0122321 L45.9953213,31.052991 L46.3598303,30.7474374 C55.4269106,23.1434642 54.6585892,20.8492767 54.5413124,20.6121875 C54.5318035,20.5944375 54.5197588,20.5741517 54.5064463,20.5545 C54.5020088,20.5494285 54.4969374,20.544991 54.4924999,20.5392857 C54.4677767,20.519 54.4436874,20.5031517 54.4170624,20.4898392 C54.1875803,20.376366 51.8895892,19.604875 44.2843481,28.6732232 L43.9787946,29.0377321 L24.0195535,27.2297678 L23.3507589,27.7559285 L40.105491,32.526241 L27.4535446,45.8007053 L24.015116,45.3094106 L23.7653482,45.536991 L27.5150357,47.5173838 L29.4966964,51.2670713 L29.7230089,51.0173035 L29.2317142,47.5788749 L42.5042767,34.9262946 Z" id="_x3C_Path_x3E__12_"></path>
                    </g>
                </g>
            </g>
        </g>
    </g>
</svg>