<svg xmlns="http://www.w3.org/2000/svg" xmlns:xlink="http://www.w3.org/1999/xlink" width="1251.76" height="1004.39"><defs><style>.cls-2{fill:#d6aac6}.cls-3{fill:#85004a}.cls-6{fill:#ffaf7d}.cls-25{fill:#46082b}.cls-34{fill:#c02800}.cls-36{fill:#ff9c68}.cls-37{fill:#53002c}.cls-50{fill:#671243}</style><linearGradient id="linear-gradient" x1="567.22" y1="-73.71" x2="781.06" y2="-73.71" gradientTransform="translate(-167.81 509.68) rotate(-4.92)" gradientUnits="userSpaceOnUse"><stop offset="0" stop-color="#ffa804"/><stop offset="1" stop-color="#ff5304"/></linearGradient><linearGradient id="linear-gradient-2" x1="1634.9" y1="-1269.33" x2="1789.38" y2="-1269.33" gradientTransform="translate(-406.73 2246.39) rotate(-20.39)" gradientUnits="userSpaceOnUse"><stop offset="0" stop-color="#f21f00"/><stop offset="1" stop-color="#b71400"/></linearGradient><linearGradient id="linear-gradient-3" x1="4252.08" y1="-3560.42" x2="4200.34" y2="-3556.79" gradientTransform="translate(1881.02 6004.61) rotate(-64.72)" gradientUnits="userSpaceOnUse"><stop offset="0" stop-color="#7d0046"/><stop offset="1" stop-color="#39001e"/></linearGradient><linearGradient id="linear-gradient-4" x1="7453.87" y1="683.76" x2="7419.04" y2="672.82" gradientTransform="matrix(-1, 0, 0, 1, 8203.35, 0)" xlink:href="#linear-gradient-2"/><linearGradient id="linear-gradient-5" x1="11470.29" y1="1407.4" x2="11386.71" y2="1379.54" gradientTransform="matrix(-0.98, -0.2, -0.2, 0.98, 11772.81, 1216.56)" xlink:href="#linear-gradient"/><linearGradient id="linear-gradient-6" x1="10184.61" y1="5543.65" x2="10186.93" y2="5578.49" gradientTransform="matrix(-0.52, -0.85, -0.85, 0.52, 10419.45, 6097.71)" xlink:href="#linear-gradient-3"/><linearGradient id="linear-gradient-7" x1="11146.96" y1="350.66" x2="11146.96" y2="455.73" gradientTransform="matrix(-1, 0, 0, 1, 11456.71, 0)" xlink:href="#linear-gradient-2"/><linearGradient id="linear-gradient-8" x1="11397.15" y1="1402.3" x2="11400.3" y2="1449.55" gradientTransform="matrix(-0.98, -0.2, -0.2, 0.98, 11772.81, 1216.56)" xlink:href="#linear-gradient-3"/><linearGradient id="linear-gradient-9" x1="11381.49" y1="1384.12" x2="11372.22" y2="1374.43" gradientTransform="matrix(-0.98, -0.2, -0.2, 0.98, 11772.81, 1216.56)" gradientUnits="userSpaceOnUse"><stop offset="0" stop-color="#ffaf7d"/><stop offset="1" stop-color="#ff8a36"/></linearGradient><linearGradient id="linear-gradient-10" x1="11122.88" y1="350.66" x2="11122.88" y2="455.73" gradientTransform="matrix(-1, 0, 0, 1, 11456.71, 0)" xlink:href="#linear-gradient-2"/><linearGradient id="linear-gradient-11" x1="11427.08" y1="1400.31" x2="11430.23" y2="1447.56" gradientTransform="matrix(-0.98, -0.2, -0.2, 0.98, 11772.81, 1216.56)" xlink:href="#linear-gradient-3"/><linearGradient id="linear-gradient-12" x1="11078.99" y1="493.06" x2="11083.39" y2="491.65" gradientTransform="matrix(-1, 0, 0, 1, 11456.71, 0)" gradientUnits="userSpaceOnUse"><stop offset="0" stop-color="#671243"/><stop offset="1" stop-color="#2c0f1f"/></linearGradient><linearGradient id="linear-gradient-13" x1="11672.73" y1="672.23" x2="11668.06" y2="686.01" gradientTransform="matrix(-0.97, -0.13, -0.24, 0.79, 11776.79, 1240.85)" xlink:href="#linear-gradient-9"/><linearGradient id="linear-gradient-14" x1="11373.23" y1="1369.45" x2="11377.13" y2="1358.13" xlink:href="#linear-gradient-9"/><linearGradient id="linear-gradient-15" x1="11467.78" y1="1386.89" x2="11391.54" y2="1361.48" gradientTransform="matrix(-0.98, -0.2, -0.2, 0.98, 11772.81, 1216.56)" xlink:href="#linear-gradient"/><linearGradient id="linear-gradient-16" x1="11378.61" y1="1371.3" x2="11382.51" y2="1359.98" xlink:href="#linear-gradient-9"/><linearGradient id="linear-gradient-17" x1="11067.47" y1="490.96" x2="11082.93" y2="490.96" xlink:href="#linear-gradient-12"/><linearGradient id="linear-gradient-18" x1="11158.91" y1="493.06" x2="11163.31" y2="491.65" xlink:href="#linear-gradient-12"/><linearGradient id="linear-gradient-19" x1="11147.39" y1="490.96" x2="11162.85" y2="490.96" xlink:href="#linear-gradient-12"/><linearGradient id="linear-gradient-20" x1="11149.72" y1="5170.61" x2="11170.02" y2="5110.69" gradientTransform="matrix(-0.7, -0.71, -0.71, 0.7, 12386.68, 4693.53)" xlink:href="#linear-gradient"/><linearGradient id="linear-gradient-21" x1="135.79" y1="-587.79" x2="133.93" y2="-595.23" gradientTransform="translate(872.55 933.81) rotate(-9.07)" xlink:href="#linear-gradient-9"/><linearGradient id="linear-gradient-22" x1="-221.32" y1="446.26" x2="-221.32" y2="565.68" gradientTransform="translate(1139.05)" xlink:href="#linear-gradient-3"/><linearGradient id="linear-gradient-23" x1="-195.19" y1="446.26" x2="-195.19" y2="565.68" gradientTransform="translate(1139.05)" xlink:href="#linear-gradient-3"/><linearGradient id="linear-gradient-24" x1="-209.54" y1="446.26" x2="-209.54" y2="565.68" gradientTransform="translate(1139.05)" xlink:href="#linear-gradient-3"/><linearGradient id="linear-gradient-25" x1="136.07" y1="-510.28" x2="136.07" y2="-579.23" gradientTransform="translate(872.55 933.81) rotate(-9.07)" xlink:href="#linear-gradient"/><linearGradient id="linear-gradient-26" x1="183.46" y1="-510.28" x2="183.46" y2="-579.23" gradientTransform="translate(872.55 933.81) rotate(-9.07)" xlink:href="#linear-gradient"/><linearGradient id="linear-gradient-27" x1="119.79" y1="-628.93" x2="129.01" y2="-610.65" gradientTransform="translate(872.55 933.81) rotate(-9.07)" gradientUnits="userSpaceOnUse"><stop offset="0" stop-color="#85004a"/><stop offset="1" stop-color="#3d0020"/></linearGradient><linearGradient id="linear-gradient-28" x1="137.25" y1="-601.3" x2="135.65" y2="-608.62" gradientTransform="translate(872.55 933.81) rotate(-9.07)" xlink:href="#linear-gradient-9"/><linearGradient id="linear-gradient-29" x1="575.55" y1="608.38" x2="668.81" y2="829.26" gradientTransform="translate(26.47 -1.73) rotate(0.67)" gradientUnits="userSpaceOnUse"><stop offset="0" stop-color="#b5a435"/><stop offset="1" stop-color="#dac32d"/></linearGradient><linearGradient id="linear-gradient-30" x1="7356.99" y1="740.31" x2="7390.31" y2="651.36" gradientTransform="matrix(-1, 0, 0, 1, 8203.35, 0)" xlink:href="#linear-gradient-3"/><linearGradient id="linear-gradient-31" x1="7423.48" y1="808.43" x2="7398.47" y2="724.5" gradientTransform="matrix(-1, 0, 0, 1, 8203.35, 0)" xlink:href="#linear-gradient"/><linearGradient id="linear-gradient-32" x1="7367.68" y1="841.27" x2="7415.25" y2="747" gradientTransform="matrix(-1, 0, 0, 1, 8203.35, 0)" xlink:href="#linear-gradient"/><linearGradient id="linear-gradient-33" x1="7402.09" y1="672.61" x2="7396.77" y2="704.52" gradientTransform="matrix(-1, 0, 0, 1, 8203.35, 0)" xlink:href="#linear-gradient-2"/><linearGradient id="linear-gradient-34" x1="7394.9" y1="614.82" x2="7393.87" y2="620.87" gradientTransform="matrix(-1, 0, 0, 1, 8203.35, 0)" gradientUnits="userSpaceOnUse"><stop offset="0" stop-color="#f33900"/><stop offset="1" stop-color="#c02800"/></linearGradient><linearGradient id="linear-gradient-35" x1="7399.77" y1="642.92" x2="7399.77" y2="635.14" gradientTransform="matrix(-1, 0, 0, 1, 8203.35, 0)" xlink:href="#linear-gradient-9"/><linearGradient id="linear-gradient-36" x1="7397.06" y1="628.48" x2="7406.9" y2="628.48" gradientTransform="matrix(-1, 0, 0, 1, 8203.35, 0)" xlink:href="#linear-gradient-9"/><linearGradient id="linear-gradient-37" x1="7417.15" y1="616.38" x2="7395.81" y2="629.4" gradientTransform="matrix(-1, 0, 0, 1, 8203.35, 0)" xlink:href="#linear-gradient-27"/><linearGradient id="linear-gradient-38" x1="5044.19" y1="6174.45" x2="5029.6" y2="6189.24" gradientTransform="matrix(-0.45, -0.89, -0.89, 0.45, 8587.76, 2383.28)" xlink:href="#linear-gradient-2"/><linearGradient id="linear-gradient-39" x1="7399.98" y1="651.92" x2="7404.48" y2="668.95" gradientTransform="matrix(-1, 0, 0, 1, 8203.35, 0)" xlink:href="#linear-gradient-9"/><linearGradient id="linear-gradient-40" x1="455.41" y1="627.31" x2="445.03" y2="637.54" gradientTransform="matrix(1, 0, 0, 1, 0, 0)" xlink:href="#linear-gradient-2"/><linearGradient id="linear-gradient-41" x1="455.52" y1="623.83" x2="444.02" y2="631.98" gradientTransform="matrix(1, 0, 0, 1, 0, 0)" xlink:href="#linear-gradient-2"/><linearGradient id="linear-gradient-42" x1="490.38" y1="792.78" x2="444.07" y2="854.52" gradientTransform="matrix(1, 0, 0, 1, 0, 0)" xlink:href="#linear-gradient-2"/><linearGradient id="linear-gradient-43" x1="425.71" y1="790.51" x2="425.71" y2="886.72" gradientTransform="matrix(1, 0, 0, 1, 0, 0)" xlink:href="#linear-gradient-2"/><linearGradient id="linear-gradient-44" x1="448.37" y1="694.8" x2="441.07" y2="780.19" gradientTransform="matrix(1, 0, 0, 1, 0, 0)" xlink:href="#linear-gradient-3"/><linearGradient id="linear-gradient-45" x1="448.46" y1="660.69" x2="447.31" y2="651.94" gradientTransform="matrix(1, 0, 0, 1, 0, 0)" xlink:href="#linear-gradient-9"/><linearGradient id="linear-gradient-46" x1="449.65" y1="642.51" x2="446.78" y2="633.76" gradientTransform="matrix(1, 0, 0, 1, 0, 0)" xlink:href="#linear-gradient-9"/><linearGradient id="linear-gradient-47" x1="456.12" y1="624.66" x2="444.61" y2="632.81" gradientTransform="translate(306.75 -129.16) rotate(24.85)" xlink:href="#linear-gradient-2"/><linearGradient id="linear-gradient-48" x1="443.63" y1="644.49" x2="440.76" y2="635.73" gradientTransform="matrix(1, 0, 0, 1, 0, 0)" xlink:href="#linear-gradient-9"/><linearGradient id="linear-gradient-49" x1="457.49" y1="708.43" x2="419.46" y2="784" gradientTransform="matrix(1, 0, 0, 1, 0, 0)" xlink:href="#linear-gradient-3"/></defs><g id="elements"><path class="cls-2" d="M967.76 241.9L961 230.11l11.8-6.81 6.8 11.79zM963 230.66l5.31 9.19 9.19-5.31-5.3-9.19zM664.93 126.15a12.85 12.85 0 1 1 2.69-.28 13 13 0 0 1-2.69.28zM665 102a11.39 11.39 0 0 0-9.53 5.16A11.33 11.33 0 1 0 665 102zM642.44 129.37a5.55 5.55 0 0 1-3.06-.91 5.63 5.63 0 0 1-1.65-7.8 5.63 5.63 0 1 1 4.71 8.71zm-3.44-7.89a4.14 4.14 0 1 0 7.51 1.4 4.13 4.13 0 0 0-4.9-3.19 4.16 4.16 0 0 0-2.61 1.79zM461.03 194.75l-1.51-10.9-7.7 10.82-5.85-9.13-8.07 5.17-.81-1.26 9.33-5.99 5.47 8.53 8.59-12.08 2.04 14.63-1.49.21z"/><path class="cls-3" d="M68.04 912.05h1110.52v1.5H68.04z"/><path class="cls-2" d="M387.66 502.79h1.5v408.55h-1.5zM335.92 502.79h1.5v408.06h-1.5z"/><path class="cls-3" transform="matrix(0.16, -0.99, 0.99, 0.16, -429.14, 910.2)" d="M113.83 706.22h411.62v1.5H113.83z"/><path class="cls-3" transform="translate(-474.99 859.01) rotate(-81)" d="M59.01 706.81H471.7v1.5H59.01z"/><path class="cls-3" d="M238.52 876.5h53.61v1.5h-53.61zM243.28 841.36h54.14v1.5h-54.14zM249.79 806.23h54.67v1.5h-54.67zM255 771.09h53.88v1.5H255zM260.85 735.95h54.19v1.5h-54.19zM266.06 700.82h55.15v1.5h-55.15zM271.92 665.68h54.58v1.5h-54.58zM277.77 630.55h53.15v1.5h-53.15zM283.41 595.41h54.07v1.5h-54.07zM288.7 560.27h54.94v1.5H288.7zM294.87 525.14h54.94v1.5h-54.94zM405.69 504.52H266.78v-10.61h138.91zM268.28 503h135.91v-7.61H268.28z"/><path class="cls-2" d="M106.9 577.72a7.43 7.43 0 0 1-.5-14.85 7.44 7.44 0 0 1 1 14.84zm-.4-13.36a5.94 5.94 0 0 0-5.51 6.33 5.94 5.94 0 0 0 6.33 5.52 5.94 5.94 0 0 0-.82-11.85z"/><path class="cls-3" d="M994.9 606.91H869.09V596.3H994.9zm-124.31-1.5H993.4v-7.61H870.59z"/><path class="cls-3" d="M891.28 911.94l-.9-1.2 81.52-60.52-82.33-61.11L971.9 728l-82.33-61.11 83.14-61.71.9 1.2-81.52 60.51L974.42 728l-82.33 61.11 82.33 61.11-.81.61-82.33 61.11z"/><path class="cls-3" d="M972.71 911.94l-83.14-61.72.81-.6 81.52-60.51L889.57 728l82.33-61.11-81.52-60.51.9-1.2 83.14 61.71L892.09 728l82.33 61.11-82.33 61.11 81.52 60.52-.9 1.2z"/><path class="cls-2" d="M608.81 886.4l-1.19-.91.59.46-.6-.45c.46-.72 1.45-6.67 2.14-12l.14-1.08 11.59 6.28 3.75-10.21h10.33V870h-9.28l-4 10.86-11.19-6.07c-.5 3.81-1.5 10.59-2.28 11.61zM1084 911.9l-1.42-.47.71.24-.73-.19c.05-.24.06-1.55.08-3.08.78-65.69 18.17-116.74 49-143.73l.87-.77.34 1.12c.07.22 6.67 22.48 6.28 52.61v.27l-.18.21c-6.28 7.22-15.71 19.81-14.27 22.86a.94.94 0 0 0 .79.46c1.08.05 4.34-.95 11.64-11.75v-.45h1.5v.79l-.1.15c-1.59 20.9-6.37 51.73-28.37 81.35l-1.21-.89c20.73-27.92 26-56 27.87-78-5 7.05-8.91 10.48-11.57 10.26a2.38 2.38 0 0 1-2-1.33c-2.24-4.71 11.13-20.57 14.32-24.25a196.91 196.91 0 0 0-5.9-50.75c-29.91 26.91-46.79 77.21-47.56 141.83a18.81 18.81 0 0 1-.09 3.51zM1019 911.9c-15-22.75-24.21-49.84-27.52-80.53l1.49-.16c3.29 30.45 12.47 57.32 27.29 79.86z"/><g><path class="cls-2" d="M1061.91 912.51l-1.45-.38c22.56-86.1-6.32-151.72-11-161.55-9.52 17.94-9.63 46.25-9.63 46.54h-1.5c0-.3.12-30.35 10.51-48.53l.68-1.19.64 1.21c.09.17 9.23 17.67 15.2 46.49a258.3 258.3 0 0 1-3.45 117.41z"/><path class="cls-2" d="M1050.4 910.11l-1.49-.17c7-62.75-6.84-106.59-19.67-132.31-12-24.07-25.35-37.16-28.84-40.34a269.81 269.81 0 0 0-8.76 71.07l.25.46c5.53 10.78 8.6 20.49 7.48 23.61a1.92 1.92 0 0 1-1 1.18c-1.12.48-2.57.07-4.44-1.25l.86-1.23c1.34.94 2.43 1.34 3 1.1.07 0 .14-.14.2-.31.82-2.27-1.5-10.9-7.41-22.42l-.23-.42-.18-.33v-.19c-.49-40.74 9.05-72.52 9.15-72.83l.33-1.08.86.72c.16.13 16.09 13.48 30.11 41.59 12.88 25.9 26.81 70.04 19.78 133.15z"/></g><g><path class="cls-2" d="M163 912.82c-42.6-46.93-31.77-137.61-24.62-165.67l.39-1.51.94 1.24c.43.57 41.74 55.78 47.35 92.31l5.94-11.74.54 1.82c.08.3 8.84 30.57 7.49 80.35h-1.5c1.15-42.52-5.08-70.66-6.93-78l-6.36 12.72-.28-2.52c-3.67-33-40.07-84-46.44-92.73-7.08 29.5-16.75 117.13 24.66 162.75z"/><path class="cls-2" d="M181.27 912.68c-41-73.32-42.18-160.4-42.19-161.27h1.5c0 .87 1.16 87.57 42 160.55zM133.2 912.15c-21.43-25.33-17.14-77.47-17.1-78l.16-1.83 1.17 1.42a295.13 295.13 0 0 1 23.5 34.59l-1.3.76a301 301 0 0 0-22.16-32.89c-.54 9.62-1.84 52.87 16.87 75z"/></g><g><path class="cls-2" d="M855.36 912l-1.33-.71c22.42-41.88 2-86.51-1.48-93.4-3.45 3.69-18.6 21.67-23.14 57.4l-1.49-.19c5.18-40.79 24.12-58.85 24.31-59l.71-.66.46.85c.27.49 26.6 49.71 1.96 95.71z"/><path class="cls-2" d="M839.73 902.91l-1.31-.72c15.34-28.12 13.59-85 13.57-85.52h1.5c.02.52 1.78 57.76-13.76 86.24z"/></g><path class="cls-3" d="M608.57 844.35v-1.5h2v1.5zm8 0v-1.5h2v1.5zm8 0v-1.5h2v1.5zm8 0v-1.5h2v1.5zm8 0v-1.5h2v1.5zm8 0v-1.5h.36l1.22-.53.6 1.37-1.5.66zm-46-1.36l-1.87-.72.55-1.4 1.86.73zm53.66-1.72l-.6-1.37 1.83-.81.6 1.37zM595.11 840l-1.86-.73.54-1.4 1.86.73zm68.44-2.05l-.6-1.38 1.83-.8.6 1.37zm-75.9-.85l-1.86-.72.54-1.4 1.87.72zm83.22-2.38l-.6-1.37 1.83-.81.6 1.37zm-90.67-.52l-1.87-.72.55-1.4 1.86.73zm98-2.71l-.6-1.37 1.83-.8.61 1.37zm-105.45-.18l-1.87-.73.55-1.39 1.86.72zm-7.46-2.9l-1.86-.72.54-1.4 1.86.72zm120.24-.14l-.61-1.37 1.83-.81.61 1.37zm-127.7-2.76l-1.86-.72.54-1.4 1.87.73zm135-.46l-.61-1.38 1.83-.8.61 1.37zm-142.47-2.43l-1.87-.73.55-1.39 1.86.72zm149.79-.8l-.6-1.37 1.83-.81.62 1.36zm-157.25-2.1l-1.86-.72.54-1.4 1.86.72zm164.57-1.12l-.6-1.38 1.83-.8.6 1.37zm-172-1.78l-1.86-.72.54-1.4 1.87.73zm179.35-1.45l-.6-1.37 1.83-.81.6 1.37zm-186-3.3l-1.42-1.41 1.06-1.07 1.44 1.41zm193.43-.2l-1.07-1.06 1.41-1.42 1.07 1.06zm-199.11-5.44l-1.4-1.43 1.06-1.06 1.42 1.4zm204.74-.24l-1.06-1.06 1.41-1.42 1.06 1.06zm-210.41-5.4l-1.42-1.41 1-1.06 1.42 1.41zm216-.28l-1.06-1.06 1.41-1.42 1.18.97zm-221.73-5.35l-1.42-1.41 1.05-1.07 1.42 1.41zm227.37-.33l-1.07-1 1.41-1.42 1.07 1.05zm-233-5.31l-1.42-1.41 1.06-1.06 1.42 1.41zm238.68-.37l-1.06-1.05 1.41-1.42 1.06 1.06zm5.64-5.67l-1.07-1.06 1.41-1.42 1.07 1.06zm-249.39-.35l-.81-1.83 1.37-.6.81 1.83zm253.07-7l-1.41-.52.69-1.87 1.41.52zm-256.3-.36l-.81-1.83 1.38-.6.8 1.83zm259.06-7.15l-1.41-.51.69-1.88 1.41.52zm-262.28-.17l-.81-1.83 1.37-.61.81 1.84zm-3.23-7.32l-.81-1.83 1.38-.61.8 1.83zm268.27 0l-1.41-.51.69-1.88 1.41.52zm-271.49-7.3l-.81-1.83 1.37-.61.81 1.83zm274.25-.2l-1.41-.52.69-1.88 1.41.52zm-277.48-7.12l-.8-1.83 1.37-.61.81 1.83zm280.24-.39l-1.41-.52.69-1.88 1.41.52zm-283.46-6.94l-.81-1.83 1.37-.6.81 1.83zm286.22-.57l-1.41-.52.69-1.88 1.41.52zm-289.45-6.75l-.8-1.83 1.37-.6.81 1.83zm292.21-.76l-1.41-.52.69-1.87 1.41.51zm-295.43-6.56l-.81-1.83 1.37-.6.81 1.83zm298.19-1L772 723l.69-1.87 1.41.52zM472 717.19l-.8-1.83 1.37-.6.81 1.83zm304.18-1.14l-1.41-.51.69-1.88 1.41.52zm-306.94-6.47l-.51-1.93 1.45-.38.51 1.93zm309.7-1l-1.41-.51.69-1.88 1.41.52zm-311.74-6.69l-.52-1.93 1.46-.39.51 1.94zm314.26-1l-1.46-.39.52-1.93 1.48.43zm-316.31-6.78l-.51-1.93 1.45-.38.51 1.93zm318.37-1l-1.45-.39.52-1.93 1.45.39zm-320.41-6.78l-.51-1.93 1.45-.39.51 1.94zm322.47-1l-1.44-.39.51-1.93 1.45.39zm-324.52-6.78l-.51-1.94 1.45-.38.51 1.93zm326.59-.95l-1.45-.39.51-1.93 1.45.39zm-328.63-6.79l-.51-1.93 1.45-.38.51 1.93zm330.72-.81l-1.45-.39.51-1.93 1.45.39zM457 663.18l-.51-1.94 1.45-.38.51 1.93zm334.8-.94l-1.45-.39.52-1.93 1.45.39zm-336.8-6.8l-.51-1.93 1.45-.38.51 1.93zm338.9-.93l-1.45-.39.52-1.93 1.45.39zm-340.95-6.8l-.51-1.94 1.45-.38.51 1.94zm343-.93l-1.45-.39.52-1.93 1.45.39zm-345-6.81l-.51-1.93 1.45-.38.51 1.93zm347.05-.92l-1.44-.39.51-1.93 1.45.39zm-349.16-6.81l-.51-1.93 1.46-.39.51 1.94zm351.23-.92l-1.45-.39.51-1.93 1.45.39zm-353.27-6.81l-.51-1.94 1.45-.38.51 1.93zm355.33-.92l-1.45-.39.51-1.93 1.45.39zm-357.37-6.82l-.51-1.93 1.45-.38.51 1.93zm359.43-.91l-1.45-.39.52-1.93 1.45.39zM442.69 609l-.51-1.94 1.45-.38.51 1.93zm363.54-.91l-1.45-.39.52-1.93 1.45.39zm-365.58-6.79l-.51-1.93 1.45-.38.51 1.93zm367.64-.9l-1.45-.38.52-1.94 1.45.39zm-369.69-6.83l-.51-1.93 1.45-.39.51 1.94zm371.76-.9l-1.45-.38.51-1.94 1.45.39zm-373.8-6.84l-.51-1.93 1.45-.38.51 1.93zm375.86-.89l-1.45-.38.51-1.94 1.45.39zm-377.91-6.84l-.51-1.93 1.45-.39.51 1.94zm380-.89l-1.45-.38.52-1.94 1.44.39zm-382-6.84l-.51-1.94 1.45-.38.51 1.93zm384.07-.89l-1.45-.38.52-1.94 1.45.39zm-386.12-6.85l-.51-1.93 1.45-.39.52 1.94zm388.18-.88l-1.45-.38.52-1.94 1.45.39zm-390.26-6.85l-.51-1.94 1.45-.38.51 1.93zm392.28-.9l-1.45-.38.52-1.94 1.45.39zm-394.32-6.86l-.52-1.93 1.46-.38.51 1.93zm396.39-.87l-1.45-.38.51-1.94 1.45.39zm-398.44-6.86l-.51-1.94 1.45-.38.51 1.93zm400.5-.87l-1.45-.38.51-1.94 1.45.39zm-402.54-6.87l-.51-1.93 1.45-.38.51 1.93zm404.6-.86l-1.45-.38.52-1.94 1.44.39zM420.2 524l-.51-1.93 1.45-.39.51 1.94zm408.71-.86l-1.45-.38.52-1.94 1.45.39zm-410.75-6.87l-.51-1.94 1.45-.38.51 1.93zm412.84-.9l-1.45-.38.52-1.93 1.45.38zm-414.86-6.88l-.51-1.93 1.45-.39.51 1.94zm416.86-.85l-1.45-.38.52-1.93 1.45.38zm-419-6.88l-.51-1.94 1.45-.38.51 1.93zm421-.85l-1.45-.38.51-1.93 1.45.38zM412 493l-.51-1.93 1.45-.38.52 1.93zm425.14-.83l-1.45-.39.51-1.93 1.45.38zM410 485.29l-.51-1.94 1.45-.38.51 1.93zm429.24-.83l-1.45-.39.52-1.93 1.44.38zm-431.28-6.91l-.52-1.93 1.46-.38.51 1.93zm432.25-1.16l-1.5-.05.06-2 1.5.05zm-434.3-6.57l-.51-1.93 1.45-.39.51 1.94zm434.57-1.42l-1.5-.06.07-2h1.5zm-436.61-6.32l-.51-1.93 1.45-.38.51 1.93zm436.89-1.68h-1.5l.06-2h1.5zm-438.94-6l-.51-1.93 1.45-.39.51 1.94zM841 452.41l-1.5-.06.07-2 1.5.06zm-441.25-5.79l-.51-1.94 1.45-.38.51 1.93zm441.53-2.21l-1.5-.05.06-2 1.5.05zm-443.58-5.53l-.5-1.88 1.45-.39.51 1.94zm440.81-1.94l-.74-1.86 1.39-.55.74 1.86zm-442.85-5.79l-.51-1.94 1.45-.38.51 1.93zm439.9-1.64l-.74-1.86 1.4-.56.78 1.91zm-441.94-6.1l-.52-1.93 1.45-.38.51 1.93zm439-1.34l-.42-1.07-.39-.4 1.09-1 .59.62.53 1.34zm-5-5.82l-1.37-1.45 1.08-1 1.38 1.44zm-436.09-.57l-.51-1.94 1.45-.38.51 1.94zm430.58-5.23l-1.33-1.45 1.09-1 1.38 1.45zm-432.62-2.51L389 406l1.45-.38.52 1.93zm427.11-3.28l-1.38-1.45 1.08-1 1.38 1.45zm-429.16-4.45l-.51-1.93 1.45-.39.51 1.94zm423.64-1.35l-1.38-1.45 1.09-1 1.38 1.44zm-5.51-5.8l-1.08-1.13-.14-.06.64-1.36.39.18 1.32 1.31zm-420.18-.59v-2.25h1.5v2h-.65zM799 389.33l-1.81-.84.63-1.36 1.82.84zm-7.29-3.33l-1.81-.84.63-1.36 1.82.84zM387 384.23h-1.5v-2h1.5zm397.51-1.64l-1.83-.81.61-1.37 1.83.81zm-7.32-3.24l-1.82-.81.6-1.37 1.83.81zM387 376.23h-1.5v-2h1.5zm382.82-.12l-1.82-.81.61-1.37 1.83.81zm-7.32-3.24l-1.82-.81.6-1.37 1.83.81zm-7.31-3.24l-1.83-.81.61-1.37 1.83.81zm-368.14-1.4h-1.5v-2h1.5zm360.85-1.83l-1.83-.82.6-1.37 1.83.81zm-7.32-3.24l-1.83-.81.61-1.38 1.83.81zm-353.46-2.93h-1.5v-2h1.5zm346.15-.31l-1.83-.81.6-1.38 1.83.82zm-7.27-3.24l-1.83-.81.61-1.37 1.83.81zm-7.31-3.24l-1.83-.81.6-1.37 1.83.81zm-331.46-1.21h-1.5v-2h1.5zm324.14-2l-1.83-.81.61-1.37 1.83.81zM704 347l-1.83-.81.6-1.37 1.83.81zm-316.78-2.73h-1.5v-2h1.5zm309.46-.51l-1.83-.81.61-1.37 1.83.81zm-7.31-3.24l-1.83-.81.6-1.37 1.83.81zm-7.32-3.24l-1.83-.81.61-1.37 1.83.81zM388.49 337l-1.26-.81 1.07-1.69 1.26.81zm286.26-3l-1.83-.81.6-1.37 1.83.81zm-7.32-3.24l-1.83-.76.61-1.37 1.83.81zm-274.65-.5l-1.26-.8 1.07-1.69 1.26.8zm267.34-2.74l-1.83-.81.61-1.37 1.82.81zm-7.32-3.24l-1.83-.81.61-1.37 1.83.81zm-255.73-.77l-1.27-.81 1.07-1.68 1.27.8zM645.49 321l-1.83-.81.61-1.37 1.82.81zm-7.32-3.23l-1.83-.81.61-1.38 1.83.81zm-236.81-1.06l-1.27-.8 1.07-1.69 1.27.81zm229.5-2.18l-1.83-.81.61-1.37 1.82.8zm-7.32-3.24l-1.83-.81.61-1.37 1.83.81zm-217.88-1l-1-1.14 1.52-1.3 1 1.14zm210.57-2.22l-1.83-.81.61-1.37 1.82.81zm-204.49-3l-1-1.14 1.52-1.3 1 1.14zm197.17-.26l-1.83-.81.61-1.37 1.83.81zm-7.31-3.24l-1.83-.81.61-1.37 1.83.81zm-183.77-1.69l-1-1.14 1.52-1.3 1 1.14zm176.45-1.55l-1.83-.81.61-1.37 1.83.81zm-7.28-3.2l-1.83-.81.61-1.37 1.83.81zm-163.06-.41l-1-1.14 1.52-1.3 1 1.14zm155.74-2.83l-1.83-.81.61-1.37 1.83.81zM430 289.53l-1-1.14 1.52-1.3 1 1.14zm142.35-.88l-1.83-.81.61-1.37 1.83.81zm-7.35-3.24l-1.83-.81.61-1.37 1.83.81zm-128.94-1.08l-1-1.14 1.53-1.3 1 1.14zm121.63-2.16l-1.83-.81.61-1.37 1.83.81zm-115.55-3l-1-1.14 1.52-1.3 1 1.14zm108.23-.21l-1.83-.81.61-1.37 1.83.81zm-7.31-3.24l-1.83-.8.61-1.38 1.83.81zm-94.92-1.26l-.43-1.43 1.91-.59.44 1.44zm87.6-2l-1.82-.81.6-1.38 1.83.81zm-79.94-.36l-.44-1.43 1.91-.59.44 1.44zm72.65-1.92l-2-.16.12-1.49 2 .16zm-65-.41l-.44-1.43 1.92-.59.43 1.44zm57-.22l-2-.15.11-1.5 2 .16zm-8-.63l-2-.15.12-1.5 2 .16zm-8-.62l-2-.16.11-1.5 2 .16zm-8-.63l-2-.16.12-1.5 2 .16zm-25.44-.23l-.43-1.43 1.91-.59.44 1.44zm17.47-.4l-2-.16.11-1.5 2 .16zm-8-.63l-2-.16.12-1.49 2 .15z"/><g><path class="cls-2" d="M1076.4 741.75c-38.25 0-56.58-34.92-63.07-51.31l-.36-.9c-2.77-1.1-24.33-10.26-32.26-30.53-5.25-13.44-3.53-28.84 5.12-45.76l1.34.69c-8.45 16.51-10.15 31.49-5.06 44.51 8.18 20.94 31.43 29.71 31.66 29.79l.23.09.14.2a9 9 0 0 1 .58 1.36c7.14 18 28.84 58.84 76.09 48.77 46.29-9.86 65.8-38.36 58-84.68-1.36-8-7.12-26.16-12.2-42.16-3.18-10-6.19-19.45-7.49-24.54-4.35-17 .46-31.66 5.1-45.84 4.15-12.7 8.45-25.83 6.55-41-2.51-20-11.84-38.59-20.85-56.55-2.3-4.57-4.67-9.3-6.89-14-15.13-31.82-31.45-108.14-31.62-108.9-3.59-20.41-15.5-25.23-21.33-25-27.87 1.39-29.48 31.54-31.35 66.45-1.44 26.79-3.06 57.16-16.67 80.54-1.65 2.82-4 6.65-6.82 11.07-7.07 11.27-16.75 26.71-19.49 34.84-8.62 25.69-1.64 41.72 4 54.6 4.6 10.55 8.56 19.66 1.7 30.18l-1.26-.82c6.43-9.85 2.79-18.19-1.81-28.76-5.71-13.12-12.82-29.44-4-55.67 2.79-8.31 12.13-23.2 19.64-35.16 2.77-4.42 5.16-8.23 6.79-11 13.43-23.06 15-53.23 16.47-79.86 1.91-35.63 3.55-66.41 32.77-67.87 6.22-.32 19.12 4.74 22.88 26.16.16.74 16.45 76.89 31.5 108.55 2.22 4.65 4.58 9.37 6.88 13.94 9.07 18.07 18.45 36.76 21 57 1.94 15.49-2.41 28.78-6.62 41.63-4.78 14.63-9.3 28.45-5.06 45 1.29 5 4.28 14.47 7.46 24.46 5.09 16 10.87 34.24 12.25 42.36 3.31 19.66 1.65 36.46-4.93 49.94-9 18.45-27.26 30.71-54.22 36.46a71.15 71.15 0 0 1-14.79 1.72z"/><path class="cls-2" d="M1077.12 911.11h-1.5c.2-15.89-.3-102.63-4.3-126.68-4.93-29.58-5.37-96.85-5.37-97.53l-.69-14.11c-3.38-69.4-4.65-95.36 3-132.17 4.17-20.07 4.47-62-2.33-94.8-4.9-23.65-8.21-58.05-7.69-80h1.5c-.52 21.87 2.77 56.12 7.66 79.68 6.83 32.95 6.53 75.18 2.33 95.41-7.6 36.62-6.33 62.53-3 131.79l.69 14.14c0 .71.44 67.86 5.35 97.33 4.11 24.53 4.56 110.39 4.35 126.94z"/><path class="cls-2" d="M1065.6 675.31c-28.6-28.8-43.41-57.91-49.6-97.31l1.48-.23c6.14 39.07 20.85 67.92 49.19 96.48zM1069.8 704.57l-.15-1.49c22.24-2.33 38.68-13.88 48.87-34.33a89.57 89.57 0 0 0 8.7-30.27l1.5.1a91.17 91.17 0 0 1-8.83 30.8c-7.18 14.41-21.69 32.21-50.09 35.19zM1066.69 560.57l-.73-1.31c.46-.26 45.73-25.83 50.16-64.62l1.49.17c-4.51 39.56-50.46 65.5-50.92 65.76z"/><path class="cls-2" d="M1103 686.51c-9.71-43.19-1.41-94.09-1.32-94.6l1.48.24c-.09.51-8.34 51.13 1.3 94z"/></g><g><path class="cls-2" d="M208 743.25c-26.43 0-52.06-6.21-71.45-18-15.8-9.64-32.68-27.64-32.68-49.21 0-35.89 16.1-51.38 30.32-65 8.66-8.33 16.15-15.53 18.45-26.09 4.13-18.94-7.8-34.05-18.32-47.37-2.43-3.07-4.72-6-6.79-8.88-15.87-22.22-19-50.64-7.86-70.71 3.78-6.78 9.31-12.45 14.67-17.93 6-6.1 12.14-12.42 15.7-20.19 7.17-15.65 2.72-32.56-2-50.45-4.27-16.23-8.69-33-3.48-48.64 5.53-16.58 22.15-28.54 39.62-28.54h.29c18.86.15 31.51 10.26 39.83 31.81 7 18 6.09 30.71 5.32 41.89-.89 12.74-1.65 23.74 8.55 39.76 6.26 9.82 15.77 17 25 23.87l1.25.94a87.26 87.26 0 0 1 12.35 11.27c1.15.84 12 9.66 11.4 43.06h-1.5c.64-33.55-10.71-41.76-10.82-41.84l-.14-.12a85.12 85.12 0 0 0-12.19-11.14l-1.25-.94c-9.29-7-18.91-14.22-25.31-24.26-10.47-16.44-9.66-28.21-8.79-40.67.77-11 1.63-23.52-5.21-41.25-8.19-21.19-20-30.7-38.45-30.85h-.29c-16.83 0-32.86 11.53-38.19 27.51-5.07 15.2-.7 31.77 3.51 47.79 4.57 17.36 9.3 35.31 1.9 51.46-3.67 8-9.93 14.41-16 20.61-5.28 5.41-10.75 11-14.43 17.61-10.72 19.27-7.53 47.69 7.77 69.11 2.05 2.87 4.33 5.76 6.75 8.82 10.72 13.59 22.88 29 18.6 48.62-2.39 11-10.4 18.7-18.88 26.85-14 13.45-29.85 28.7-29.85 64 0 21 16.51 38.5 32 47.93 29.85 18.22 74.66 22.94 114.19 12l.4 1.45a165.8 165.8 0 0 1-43.99 5.72z"/><path class="cls-2" d="M218.93 684.29l-1.49-.17c3.63-31.77-4.13-51-12.34-71.3-4.18-10.34-8.5-21-11.62-33.94-5.56-22.93-5.76-32.39-5.51-56.36.15-13.56 2.29-23.59 4.55-34.21 2-9.2 4-18.72 4.59-30.76a400.38 400.38 0 0 0-11.85-118.43l1.45-.37a401.68 401.68 0 0 1 11.9 118.87c-.61 12.17-2.65 21.74-4.62 31-2.25 10.54-4.37 20.5-4.52 33.92-.25 23.83-.05 33.23 5.46 56 3.11 12.79 7.4 23.44 11.56 33.73 8.29 20.5 16.11 39.87 12.44 72.02z"/><path class="cls-2" d="M191.29 562.13l-1-1.11c.49-.44 48.43-44.93 50.45-97.09l1.5.06c-2.06 52.79-50.47 97.69-50.95 98.14z"/><path class="cls-2" d="M225.12 518.72l-.45-1.43c.25-.07 24.89-7.94 32.54-27.57l1.4.54c-7.92 20.31-33.24 28.39-33.49 28.46zM187.8 535.41c-27.94-25.9-39.43-81.36-39.54-81.92l1.47-.3c.11.55 11.51 55.55 39.09 81.12z"/><path class="cls-2" d="M167.71 507.5c-26.77-6.86-37.8-32.38-37.91-32.63l1.39-.59c.1.25 10.86 25.09 36.9 31.77zM210 626c0-.37-1.94-36.92 21.29-63.57l1.13 1c-22.83 26.18-20.94 62.13-20.92 62.49zM217.8 693.07c-45.07-26.63-44.23-89.77-44.21-90.41h1.5c0 .62-.83 62.89 43.47 89.08z"/><path class="cls-2" d="M199.66 677.55c-42.49-1.37-57.39-40.65-57.54-41l1.41-.52c.14.39 14.72 38.73 56.18 40.06zM222 595a57.05 57.05 0 0 1-7.32-.46l.21-1.49c.1 0 9.53 1.33 16.83-.66l.39 1.44A39.39 39.39 0 0 1 222 595zM209.43 909.21c0-.33-3.52-33.53-3.52-82.27 0-28.43 2.76-49.46 6-73.81 2.32-17.74 5-37.84 6.92-64l1.5.11c-2 26.23-4.6 46.36-6.94 64.12-3.18 24.29-5.94 45.28-5.94 73.61 0 48.66 3.48 81.78 3.51 82.11z"/></g><g><path class="cls-2" d="M617 257.43c-5.76 0-12-2.4-18.27-7.09-16.54 8.17-30.17 7.77-40.5-1.18-20.23-17.55-22.22-66-11.36-98.51l.53-1.6.83 1.47c.11.19 11 18.89 60.49 42.28 18.16 8.59 29.11 23.28 29.29 39.28.13 10.51-4.6 19.44-12.34 23.32a19.22 19.22 0 0 1-8.67 2.03zm-18.11-8.85l.37.29c9.22 7 18.36 8.89 25.74 5.19 7.22-3.62 11.63-12 11.51-22-.17-15.42-10.81-29.6-28.43-37.94-42.93-20.31-56.91-36.8-60.27-41.55-10.17 32-8.08 78.52 11.41 95.41 9.91 8.6 23.12 8.86 39.25.77z"/><path class="cls-2" d="M639 306.42c-11.8-25.85-27.61-42.52-37.06-52.48a167.75 167.75 0 0 1-3.73-4c-42-46.2-40.4-69.06-40.31-70l1.5.13-.75-.07.75.07c0 .23-1.47 23.28 39.92 68.87 1 1.15 2.3 2.46 3.71 3.95 9.51 10 25.43 26.81 37.34 52.89z"/></g><g><path d="M603.26 360.12l-8.52-28-25.38 3a84.07 84.07 0 0 0-17.31-21.83l7.31-22.62-25.81-13.77-14.22 18.1a84.09 84.09 0 0 0-30.33-3.21l-9.78-19.13-28 8.52 2.54 21.34A84.05 84.05 0 0 0 429.67 323l-19.85-6.42-13.76 25.81 17.3 13.61a83.77 83.77 0 0 0-1.74 30.55l-19.84 10.14 8.52 28 24.13-2.87a84.45 84.45 0 0 0 18.88 20.69l-7.63 23.61 25.81 13.76 16.65-21.15a84 84 0 0 0 25.37 1.4l12.29 24 28-8.52-3.35-28.13a84.08 84.08 0 0 0 18.46-15.75l26.32 8.51L599 414.43l-21.8-17.16a83.92 83.92 0 0 0 2.63-25.16zm-90.87 67.1a51 51 0 1 1 34-63.68 51 51 0 0 1-34 63.68z" fill="url(#linear-gradient)"/><path class="cls-3" d="M497.52 408a29.55 29.55 0 1 1 29.55-29.55A29.58 29.58 0 0 1 497.52 408zm0-57.6a28 28 0 1 0 28.05 28 28.08 28.08 0 0 0-28.05-28.05z"/></g><g><path d="M797.16 394.27l-19.22-8.95-10.66 15.15a60.76 60.76 0 0 0-20.15-1.24l-8.65-14.9-19.92 7.26 2.85 16.41A60.66 60.66 0 0 0 705 422.79l-15.06-4L681 438l12.73 9a61 61 0 0 0-.64 22.91L680 477.48l7.25 19.92 15.75-2.73a60.85 60.85 0 0 0 15.63 15.73l-4.15 15.6 19.22 9 10.13-14.41a60.9 60.9 0 0 0 20.3-.16l9 15.55 19.91-7.26-3.34-19.22a60.65 60.65 0 0 0 13-13l18.91 5 8.95-19.21-16.79-11.82a60.71 60.71 0 0 0 .44-17.58l17.33-10.07-7.25-19.92-19.81 3.45a61.16 61.16 0 0 0-12.29-13.6zm-7.82 81.49a37 37 0 1 1-17.9-49.14 37 37 0 0 1 17.9 49.14z" fill="url(#linear-gradient-2)"/><path class="cls-3" d="M755.82 480.43a20.29 20.29 0 1 1 20.29-20.29 20.31 20.31 0 0 1-20.29 20.29zm0-39.08a18.79 18.79 0 1 0 18.79 18.79 18.81 18.81 0 0 0-18.79-18.79z"/></g><g><path class="cls-3" d="M470.68 589.43l-1.28-.79a180.64 180.64 0 0 1 154-86.11c5.77 0 11.6.27 17.32.82l-.14 1.49c-5.67-.54-11.45-.81-17.18-.81a178.23 178.23 0 0 0-152.72 85.4z"/><path class="cls-3" d="M636.02 508.59l-.88-1.22 4.73-3.44-3.66-5.02 1.21-.89 4.55 6.24-5.95 4.33z"/></g><g><path class="cls-3" d="M755.82 560.27a100.15 100.15 0 0 1-39-192.4l.59 1.38a98.67 98.67 0 0 0 65.82 185.66l.42 1.44a100.41 100.41 0 0 1-27.83 3.92z"/><path class="cls-3" d="M716.44 374.76l-1.39-.55 2.16-5.44-5.78-2.29.56-1.4 7.16 2.85-2.71 6.83z"/></g><g><path class="cls-3" d="M498.47 507a126.83 126.83 0 0 1-69.83-20.83l.82-1.25a126 126 0 0 0 184.09-156.55l1.37-.61A127.47 127.47 0 0 1 498.47 507z"/><path class="cls-3" d="M428.79 491.94l-1.09-7.63 7.28-1.04.21 1.48-5.79.83.87 6.15-1.48.21z"/></g><g><path class="cls-2" d="M811.21 349.27c-19.3 0-38.12-9.13-55-26.81a146.69 146.69 0 0 1-23-32.34c-15 5.66-48.24.82-65.65-19.73-10.72-12.67-18.73-35.44 4-72a125 125 0 0 1 19-23.63l1.07-1 .19 1.47c3 21.94 19.67 49.16 26 51.5 1.47.55 2.62.53 3.4-.05 1.38-1 1.58-3.65 1.54-4.74-12.2-27-10.43-50.66-6.8-65.79l.08-.32.29-.16c13.71-7.74 29.44-13.51 48.09-17.65l1.06-.23-.16 1.08c-3.13 21.53 3.81 41.77 4.43 43.52.81.93 3 2.93 4.63 2.34 1.21-.44 3.24-2.75 3.2-13.31a96.79 96.79 0 0 1 6.92-36.71l.16-.4.42-.06c10.91-1.63 21.32-2.7 31.38-3.74 16.66-1.72 31.05-3.21 41.54-6.64l1.31-.43-.35 1.33c-.06.22-5.58 21.7-4.67 50.37v.31l-.21.23c-6.53 7-11.82 11.64-16.18 14.09-2.89 1.63-4.18 3.62-3.37 5.2 1.43 2.77 8.62 4.17 18.44-.41l2.72-1.41.14 1.06a171.56 171.56 0 0 0 5 24.42c.12.4.23.81.33 1.22l.35 1.27-.43.3a186 186 0 0 1-26.69 16.37 120.63 120.63 0 0 1-26 9.11h-.18c-1.61.37-5 1.15-5.71 2.73a1.88 1.88 0 0 0 .18 1.71c1.22 2.39 8.47 1.56 11.95 1.17.88-.1 1.61-.18 2.11-.21a138.34 138.34 0 0 0 22.44-3.22 143.3 143.3 0 0 0 25.58-8.41l.89-.39.15 1c4 25.62 2.44 50.23-4.27 69.29-7.61 21.62-21.38 34.7-39.8 37.84a62.66 62.66 0 0 1-10.52.86zm-77.27-61.06l.3.64a143.52 143.52 0 0 0 23.1 32.6c13.62 14.27 35.78 30.26 64.07 25.45 39.3-6.69 49.81-58.64 43-104.47a143.71 143.71 0 0 1-24.95 8.11 139.12 139.12 0 0 1-22.68 3.26c-.49 0-1.19.11-2 .2-4.4.5-11.75 1.34-13.46-2a3.32 3.32 0 0 1-.2-3c1-2.25 4.74-3.1 6.73-3.56h.18a119.48 119.48 0 0 0 25.71-9 183.52 183.52 0 0 0 26.06-15.94l-.08-.27-.32-1.18a171.22 171.22 0 0 1-4.91-23.59l-.86.44c-10.26 4.8-18.44 3.64-20.43-.24-1-1.86-.42-4.73 4-7.19 4.17-2.35 9.27-6.8 15.6-13.59a203.52 203.52 0 0 1 4.42-49.18c-10.52 3.19-24.5 4.64-40.58 6.3a669.6 669.6 0 0 0-30.89 3.67 95.52 95.52 0 0 0-6.75 35.7c0 8.88-1.33 13.7-4.19 14.73-3 1.1-6.24-2.73-6.38-2.89l-.12-.22c-.08-.21-7.62-20.92-4.7-43.3-17.91 4.05-33.09 9.65-46.34 17.08-3.54 14.95-5.17 38.19 6.84 64.64l.06.26c0 .18.25 4.41-2.13 6.17-1.22.91-2.85 1-4.82.26-7.12-2.66-23.21-29.63-26.69-51.24a123 123 0 0 0-17.71 22.31c-22.27 35.8-14.55 58-4.14 70.25 17.23 20.35 50.28 24.95 64.58 19.06z"/><path class="cls-2" d="M695.05 333.87l-1.09-1q4-4.24 8-8.35c11.94-12.43 23.21-24.17 31.42-36.4a490.3 490.3 0 0 1 38.91-62.18C796.73 192.43 857 124.72 857.61 124l1.12 1c-.6.68-60.83 68.33-85.25 101.76a489.82 489.82 0 0 0-38.83 62.05c-8.32 12.42-19.64 24.2-31.62 36.68-2.63 2.78-5.3 5.51-7.98 8.38zM757.24 244.94c-26.66-49-19.19-91.83-19.11-92.26l1.47.27c-.07.42-7.44 42.8 19 91.27zM813.26 301.77a51.86 51.86 0 0 1-17.07-2.8l.55-1.4c.19.08 19.85 7.6 38.09-2.76 15.07-8.57 25-26.59 29.42-53.57l1.48.24c-4.53 27.46-14.68 45.85-30.18 54.64a44.76 44.76 0 0 1-22.29 5.65z"/></g></g><g id="people"><path class="cls-6" d="M514.77 621.18l-2.36 5.82-1.41-1s2-4.48 2.42-4.94 1.24-.89 1.35.12z"/><path class="cls-6" d="M515.51 627.32l-3.38-2.26-3.52 2.94v2.31a1 1 0 0 0 .61 1l3.71 1.6a1 1 0 0 0 1.18-.29c.66-.9 1.6-2.29 1.4-5.3z"/><path class="cls-6" d="M509.37 631.34l-2.27 3.38 3.63 1.72 2.11-4.72-3.47-.38zM510.17 628.31s1.87-1.87 1.85-2.71a1.42 1.42 0 0 0-.77-1.2l-2.64 3.6s.81 1.12 1.56.31z"/><path d="M427.85 670.93c-.47-.9 38.49-8.07 49.23-12.35 14.88-12.22 30.43-26.49 30.43-26.49l8 6.68s-16.6 31-25.11 38.08c-14.1 8.91-36.53 18.55-36.53 18.55s-18.02-9.14-26.02-24.47z" fill="url(#linear-gradient-3)"/><path class="cls-6" d="M738.55 690.39l.19-3.49-4.74.69-.4 3.42 4.95-.62z"/><path class="cls-6" d="M734.9 687.86l-.9-.27s-11.1-.7-12-1.11-1.11 1-.09 1.27 7.4 1.53 8.1 2.52-1.28 1.64-1.67 2-.08.83 1.42.45a22.9 22.9 0 0 0 3.84-1.72z"/><path d="M794.3 650.67c-14.36 8.16-21.84 25.05-27.79 33.25-8.51 0-29.39 2.73-29.39 2.73l.8 7.07s19 3.07 29.13 3.09a9.51 9.51 0 0 0 3.89-.83 86.79 86.79 0 0 0 21.28-14s7.05-22.41 2.08-31.31z" fill="url(#linear-gradient-4)"/><g><path class="cls-6" d="M295.55 482.46l2.15 2.28-.33 4-2.6-.78-.57-3.22 1.35-2.28zM393.53 346.53l6.82 2.88 1.88-1.15-6.92-4z"/><path class="cls-6" d="M400.21 348.45l.14.96 5.9.48.35-.82-4.37-.81-2.02.19zM398.07 345.88l2.22-.1 1.88.8s.89-.95.45-1.06-2.35-1-2.35-1l-3.27-1.39-1.67 1.17z"/><path class="cls-6" d="M397 343.13s-2.08.66-5.14-1-2.61 1.49-2.61 1.49a23.06 23.06 0 0 0 4.3 2.93c1.7.71 3.45-3.42 3.45-3.42z"/><path d="M325.12 320c.86 0 42.71.46 46.28-16.74 1.12-5.39-4.53-7.18-3.53-12s13.54-1.86 15.51-11.35c3.23-15.53-13.13-24.4-13.13-24.4s12.88-5.28 10.75-20.1-13.83-12.2-13.83-12.2 1.8-24.86-44.52-34.48S297 231.19 297 231.19s-2.07 7.77-18.35 4.39c-7.62-1.58-14.92-6.92-24.74-9s-21.18 1.11-23.1 10.34 3.81 16.24 3.81 16.24-18.1-5.6-21.45 10.53 21.31 28.44 40.37 32.4 54.68-.42 54.68-.42z" fill="url(#linear-gradient-5)"/><path d="M361.71 277.17s2.55 32 1 38.07C373.52 318.79 392 342 392 342l-.81 4.94s-24.52-12.07-39.43-20.48a11.36 11.36 0 0 1-5.39-6.94c-4.53-16.62-14.56-37-14.56-37z" fill="url(#linear-gradient-6)"/><path class="cls-6" d="M258.93 350.16c0 .18-1.5 7.25-1.5 7.25l1.49 1.61 2.55-7.56z"/><path class="cls-6" d="M258.35 357.07l-.92.34.67 5.87.87.18-.05-4.44-.57-1.95zM260.45 354.48l.53 2.16-.42 2s1.1.69 1.13.24.52-2.5.52-2.5l.72-3.5-1.46-1.42z"/><path class="cls-6" d="M262.93 352.88s-1-1.92 0-5.24-2-2.28-2-2.28a23.13 23.13 0 0 0-2 4.8c-.38 1.84 4 2.72 4 2.72zM372.84 481.8l3.28 3.33 1.38 3.3-2.77-.84-2.06-2.46.17-3.33z"/><path d="M323.85 323.08l7.49 4.65s-7.82 61.52-10.75 78.41-22.89 78.6-22.89 78.6h-3.5s-3.92-22.45-1.44-40.78 14.82-36.86 14.82-36.86-23.58-34.8-18.78-64.87 11-25.74 11-25.74z" fill="url(#linear-gradient-7)"/><path d="M329.44 330.93s3.92-15.14 12.82-23.16 17-17.69 19.16-28.09-14.36-20.35-29-23.39-37.52 6.44-40.53 20.95.34 42.66.34 42.66 19.77 14.63 37.21 11.03z" fill="url(#linear-gradient-8)"/><path d="M354.92 247s-8.37 7.35-8.93 19-12.08-2.61-12.08-2.61 3.8-14.94 17.85-19.44 3.16 3.05 3.16 3.05z" fill="url(#linear-gradient-9)"/><path d="M293.8 325l37.54 3s18 55.77 26.67 89.29 18.11 67.81 18.11 67.81h-3.46s-18.32-23.36-23.37-38.86a116.06 116.06 0 0 1-5.16-31s-27.17-16.5-43-46.72S293.8 325 293.8 325z" fill="url(#linear-gradient-10)"/><path class="cls-3" d="M322 402.26l-1.48-.23c.07-.49 7.77-49 8.87-59.34l1.49.16c-1.11 10.38-8.81 58.92-8.88 59.41z"/><path d="M316.17 263.73l-9.46-3s-19.71 10.36-37.09 33.41a199.35 199.35 0 0 0-11 53.08l5.59 1.17s15.93-23.52 19.81-40.7c16.29-2.45 29.56-14.68 29.56-14.68z" fill="url(#linear-gradient-11)"/><path fill="url(#linear-gradient-12)" d="M375.91 491.37l-2-1.58.86 4.38 2.55.05.65-1.93-2.06-.92z"/><path d="M348.62 266.94c1 5.51.2 11.39-4.65 12.24s-9.47-3.9-10.44-9.41 1.17-10.68 6-11.53 8.12 3.19 9.09 8.7z" fill="url(#linear-gradient-13)"/><path d="M352.39 243.28c-.21 5.39 2.43 9.87 5.9 10s6.44-4.13 6.64-9.52-2.43-9.88-5.89-10-6.44 4.13-6.65 9.52z" fill="url(#linear-gradient-14)"/><path d="M345.26 228.57c-.83 4 2.92 9 8.58 10.12s11.06-1.88 11.89-5.87-3.08-8.17-8.73-9.34-10.91 1.1-11.74 5.09z" fill="url(#linear-gradient-15)"/><path d="M351.08 239.88c-.23 1.1.22 2.11 1 2.28s1.6-.59 1.83-1.69a1.81 1.81 0 0 0-1-2.28c-.78-.19-1.6.6-1.83 1.69z" fill="url(#linear-gradient-16)"/><path class="cls-1" d="M291.45 306.47L291 305c.09 0 9-2.75 22.09-12.62l.9 1.2c-13.28 10.08-22.17 12.78-22.54 12.89z"/><path class="cls-6" d="M377.6 490.25a10.85 10.85 0 0 1-3.36-2.13c.63-1.62 4.62-.4 7.82 1.73.49.32 1 .61 1.41.86a10.39 10.39 0 0 1-5.87-.46z"/><path d="M374.43 487.75a13.67 13.67 0 0 0 3.81 1.87c2.38.76 3.36 1.18 4.63.74 3.19 1.79 6.7 1.75 6.35 2.84-.4 1.24-3.19 1.23-8 .31-5.05-1-7.21-2.79-7.41-4.07a1.69 1.69 0 0 1 .62-1.69z" fill="url(#linear-gradient-17)"/><path fill="url(#linear-gradient-18)" d="M295.99 491.37l-2-1.58.86 4.38 2.55.05.65-1.93-2.06-.92z"/><path class="cls-6" d="M297.68 490.25a10.85 10.85 0 0 1-3.36-2.13c.63-1.62 4.62-.4 7.82 1.73.49.32 1 .61 1.41.86a10.39 10.39 0 0 1-5.87-.46z"/><path d="M294.5 487.75a13.74 13.74 0 0 0 3.82 1.87c2.38.76 3.36 1.18 4.63.74 3.18 1.79 6.69 1.75 6.35 2.84-.4 1.24-3.19 1.23-8 .31-5.05-1-7.21-2.79-7.41-4.07a1.67 1.67 0 0 1 .61-1.69z" fill="url(#linear-gradient-19)"/></g><g><path class="cls-6" d="M838.34 440.22l-6.16 4.1-2.06-.78 6.06-5.18 1.87.74z"/><path class="cls-6" d="M832.14 443.35l.04.97-5.7 1.58-.5-.75 4.15-1.6 2.01-.2zM833.76 440.43l-2.2.32-1.7 1.13s-1.05-.76-.64-1 2.13-1.41 2.13-1.41l2.92-1.64 1.91.49zM838.34 440.22l3.62-2.17-1.12-2.72-4.08 3.79 1.58 1.1z"/><path d="M908.47 344.64l5.23 6.92s-5.82 39.7-34 64.67c-6.59 11.53-41.38 24.33-41.38 24.33l-3.45-3s20.15-20.95 30.36-31.08c3.31-15.78 12-58.19 12.52-57.63s30.72-4.21 30.72-4.21z" fill="url(#linear-gradient-20)"/><path class="cls-6" d="M983.13 462.82l1.16 7.31-1.56 1.55-2.2-7.67z"/><path class="cls-6" d="M983.39 469.76l.9.37-.94 5.84-.88.15.26-4.44.66-1.92zM981.41 467.07l-.63 2.14.33 2s-1.13.64-1.14.19-.4-2.53-.4-2.53l-.57-3.53 1.53-1.34zM913.03 579.02l-.54 3.44.83 12.79 2.07.86.94-2.53-.51-12.31-2.79-2.25z"/><path class="cls-25" d="M914.63 593.85l-1.69-.1s-6.13.61-9.35 2.34a.65.65 0 0 0 .32 1.22h12.42v-4.12z"/><path class="cls-6" d="M940.5 579.02l-.53 3.44.83 12.79 2.07.86.94-2.53-.51-12.31-2.8-2.25z"/><path class="cls-25" d="M942.1 593.85l-1.69-.1s-6.12.61-9.34 2.34a.65.65 0 0 0 .32 1.22h12.42v-4.12z"/><path d="M910.83 341.65l11.69-1.86a258.11 258.11 0 0 0-7.61-22.59l-5.79.93a84.49 84.49 0 0 1 1.71 23.52z" fill="url(#linear-gradient-21)"/><path d="M910 423l-2.9 91.25s4.56 59.08 4.56 68.73h5.17s3.83-42.56 1.24-65.66c4.35-28.37 10.25-88.62 10.25-88.62z" fill="url(#linear-gradient-22)"/><path d="M934.06 426.18v88.1s4.55 59.08 4.55 68.73h5.18s3.83-42.56 1.24-65.66c4.35-28.37 8.64-97.54 8.64-97.54z" fill="url(#linear-gradient-23)"/><path d="M919.21 434.52s5.1 6.09 17.34 9.71 5-32.17 5-32.17l-26.13 3z" fill="url(#linear-gradient-24)"/><path d="M870.67 354.68s2-12.64 44.52-21 47.66 6.32 47.66 6.32 10.46 67.21-12.63 82.42-39 7-43.1 5.06-35.89-55.48-36.45-72.8z" fill="url(#linear-gradient-25)"/><path d="M953.41 339.51l8.27-1.32S991 367.54 986 412.3c3.41 12.84-2.33 51.77-2.33 51.77l-5.33 1.52s-7.32-33.36-7.17-47.74c-8.72-13.55-18.36-50.81-17.57-50.8s-.19-27.54-.19-27.54z" fill="url(#linear-gradient-26)"/><path class="cls-6" d="M912.61 334.06c-2.38.47-4.63.94-6.78 1.43 0 0-.21 11.66 7.93 10.36s12-13.83 12-13.85c-3.95.45-8.32 1.12-13.15 2.06z"/><path d="M891.19 289s-.89-6.19 3.52-6.89 5.72 3.1 6.33 6.92-1 11.8 5.37 10.79 12.16 2.17 13.36 9.71-35.67 13.63-39.21-8.53c-1.33-8.33 1.36-14.78 5-15.36s5.63 3.36 5.63 3.36z" fill="url(#linear-gradient-27)"/><path d="M917.17 310.65a1.16 1.16 0 0 0-.48.21 10.24 10.24 0 0 0-1.63-3.16 12.6 12.6 0 0 1-9.88 5.26 14 14 0 0 0-.18 2.18c0 5.3 2.68 9.62 6.09 9.65s6.2-4.25 6.24-9.56v-.57a1.2 1.2 0 0 0 .5 0c.8-.13 1.31-1.14 1.13-2.26s-.96-1.88-1.79-1.75z" fill="url(#linear-gradient-28)"/><path class="cls-34" d="M961.86 398.87a286 286 0 0 1-8.86-31.21c0-.24-.09-.38-.1-.43l1.45-.37s0 .2.11.47a285.27 285.27 0 0 0 8.83 31zM912.52 346.7a6 6 0 0 1-4.77-2.18l1.13-1a4.83 4.83 0 0 0 4.76 1.57c5.42-.87 8.87-7.15 10.45-10.82l1.38.59c-1.7 3.95-5.47 10.73-11.59 11.71a9.22 9.22 0 0 1-1.36.13z"/></g><g><path d="M774.51 701.6l-.16-41.49-35.71-6.25A119.05 119.05 0 0 0 724 617.15l19.17-27.74-29.45-29.23-26.68 18.73a119 119 0 0 0-39.86-16.73l-5.48-30-41.49.15-5.25 30a119 119 0 0 0-41.11 17.94l-24.3-16.77-29.23 29.5 17.94 25.55a119 119 0 0 0-14.83 40.79L472.35 665l.15 41.49 33.95 5.94a119.41 119.41 0 0 0 17.2 35.81l-20 28.95 29.44 29.23 31.25-21.94a118.88 118.88 0 0 0 33.89 12.26l6.88 37.65 41.49-.15 6.93-39.57a119.36 119.36 0 0 0 31.47-13.9l32.26 22.3 29.23-29.45-22.61-32.21a119.19 119.19 0 0 0 13.85-33.09zM623.7 755.66A72.38 72.38 0 1 1 695.8 683a72.38 72.38 0 0 1-72.1 72.66z" fill="url(#linear-gradient-29)"/><path class="cls-3" d="M623.43 724a40.72 40.72 0 1 1 40.71-40.72A40.76 40.76 0 0 1 623.43 724zm0-79.93a39.22 39.22 0 1 0 39.21 39.21 39.26 39.26 0 0 0-39.21-39.21z"/></g><g><path class="cls-36" d="M817.15 900.26l-1.65 3.03v7.29l1.65.23 1.69-.46.17-7.06-1.86-3.03z"/><path class="cls-37" d="M815.5 908.9c.64.59.87 1.12 1.58 1.12.83 0 1.22-.42 1.89-1.12a8.14 8.14 0 0 1 1.52 2c.2.52.12 2-.11 2h-6.28c-.23 0-.31-1.45-.11-2a10.61 10.61 0 0 1 1.51-2z"/><path class="cls-36" d="M765.85 894.05l-1.65 3.03-3.51 12.24 1.65 1.49 1.72-2.05 3.65-11.68-1.86-3.03z"/><path class="cls-37" d="M762.37 909.42l-1.68-.1s-6.09.6-9.28 2.32a.65.65 0 0 0 .32 1.21h12.33v-4.09z"/><path class="cls-6" d="M767.14 701.79l.73 3.42-4.79.06-.93-3.31 4.99-.17z"/><path class="cls-6" d="M763.93 704.86l-.85.41s-10.84 2.45-11.68 3-1.25-.81-.29-1.25 7.07-2.67 7.6-3.76-1.52-1.42-2-1.68-.22-.81 1.32-.66a22.22 22.22 0 0 1 4.07 1z"/><path d="M815.9 612.79c10 0 25.65 17 25.65 36.34 0 48.68 24.54 49.48 24.54 61.65s-10.78 14-18.16 14-22.35-20.94-22.35-20.94l-.58-50.12z" fill="#3d0020"/><path d="M803.75 623.93c12.56 0 16.42 6.4 16.42 19.8 0 14.12-14.3 26.45-14.3 50.95 0 29.32 13.22 62.23 48.1 62.23 15.39 0 21.4-6.15 21.4-13.63 0-17-40.89-19.49-40.89-63 0-15 2.49-24.77 2.49-36.79s-6.3-31.21-24.62-31.21-8.6 11.65-8.6 11.65z" fill="url(#linear-gradient-30)"/><path d="M786.78 708.71c-13.86 37.78-13.16 75.14-14.53 109.39s-10.2 86.69-10.2 86.69l3.08.38S800 863.76 787 820.38c0 0 24.51-36.39 24.51-80.15s-18.73-39.54-24.73-31.52z" fill="url(#linear-gradient-31)"/><path d="M798 712.56l3.14 112.15 14.34 78.58H819s11.41-64.55-1.23-87.42c24.11-48.86 11.77-100.21-2-111.91s-17.77 8.6-17.77 8.6z" fill="url(#linear-gradient-32)"/><path d="M814.34 704.51a161.63 161.63 0 0 1-27.53 4.22c-5.44-7.4-8.24-20.36-5.14-34.13 4.41-19.57 14.78-31.45 26.33-28.84s19.9 18.69 15.49 38.26a54.34 54.34 0 0 1-9.15 20.49z" fill="url(#linear-gradient-33)"/><ellipse cx="809.24" cy="619.48" rx="7.83" ry="7.68" fill="url(#linear-gradient-34)"/><path d="M802.05 636.42s1.08 11.39-2.92 19.5c6.2 8.23 8.88-2.62 8.88-2.62a148.18 148.18 0 0 0-3-17.95c-2.01-7.63-2.96 1.07-2.96 1.07z" fill="url(#linear-gradient-35)"/><path d="M796.61 629.28c.69 4.09 3.37 7.05 6 6.61s4.21-4.12 3.52-8.21-3.37-7-6-6.61-4.21 4.11-3.52 8.21z" fill="url(#linear-gradient-36)"/><path d="M803.48 625.94a3.92 3.92 0 0 0-3.81-3.13h-.08c-4.2 0-3.51 8.1-10.2 8.1s-8.84-4.49-8.84-6.8 1.5-4.49 3.27-4.49 2.52 1.55 5.57 1.55 3.94-7.7 11.55-7.7 12 4.44 12 10c0 2.92-1.93 7.31-5 7.31-1.12.05-3.57-.53-4.46-4.84z" fill="url(#linear-gradient-37)"/><path d="M822.1 724.52c-5-4.39-7.63-12.14-7.74-12.47l1.42-.48c0 .07 2.66 7.7 7.31 11.83z" fill="#ff9700"/><path d="M823.9 667.44a37.38 37.38 0 0 1-9.11 34c-1.17 1.25-2 2.77-3.66 3.12-27.6 5.85-46.51 1-46.51 1l1.69-4.23s25.37-7.75 34.09-6.9c0 0 6.9-13.49 12.5-19.62a30.52 30.52 0 0 1 11-7.37z" fill="url(#linear-gradient-38)"/><path class="cls-1" d="M767.93 701.53l-.51-1.41c13.49-4.92 29.86-6.2 32.73-6.39a214.5 214.5 0 0 1 12.74-21.68l1.24.84a212.09 212.09 0 0 0-12.83 21.89l-.19.4h-.44c-.18.03-18.19 1.05-32.74 6.35z"/><path class="cls-34" d="M799.58 794.19c-.68-5.32-1.48-55.57-1.57-61.54a13 13 0 0 1-3.15-2.16l1-1.13a9.78 9.78 0 0 0 3.11 2l.53.16v.55c0 .57.87 56.42 1.57 61.88z"/><path class="cls-3" d="M779.45 690c-1.08-12.07 4-24.7 4.27-25.23l1.38.57c-.05.13-5.2 12.83-4.16 24.53z"/><ellipse class="cls-36" cx="805.13" cy="627.41" rx="1.59" ry="1.69"/><path d="M793.21 654.8c-2.12 7 0 10.47 4.8 11.93s10.5.32 12.61-6.67-.08-13.83-4.88-15.29-10.42 3.04-12.53 10.03z" fill="url(#linear-gradient-39)"/><path class="cls-50" d="M801.19 668a15 15 0 0 1-2.17-.17l.22-1.48a9.49 9.49 0 0 0 7.37-1.57c3.45-2.64 4.06-7.5 4.07-7.54l1.49.17c0 .22-.68 5.52-4.64 8.55a10.15 10.15 0 0 1-6.34 2.04zM812.26 656.42l-1.49-.08v-1.05l1.49-.06s.03.65 0 1.19z"/></g><g><path class="cls-6" d="M512.19 724.7l-5.59 2.56-.33-1.62s4.49-1.85 5.07-1.93 1.46.19.85.99z"/><path class="cls-6" d="M512.79 725.52l-.49-.92-9.15.86-1.6 1.63a1 1 0 0 0-.2 1.09l1.6 3.67a1 1 0 0 0 1 .59c1.12-.15 6.95-4.62 8.84-6.92z"/><path class="cls-6" d="M501.43 728.37l-3.87 1.03-.39 4.19 6.51-2.59-2.25-2.63zM504.07 726.73s1.9-.21 2.45-.83 1-1.5.53-1.6-3.9 1.16-3.9 1.16-.15 1.35.92 1.27zM469.84 894.44l.54 3.44-.83 12.83-2.08.85-.94-2.53.51-12.34 2.8-2.25z"/><path class="cls-25" d="M468.24 909.3l1.69-.1s6.15.61 9.37 2.35a.65.65 0 0 1-.32 1.22h-12.45v-4.13z"/><path class="cls-6" d="M409.68 894.44l.53 3.44-.83 12.83-2.07.85-.95-2.53.52-12.34 2.8-2.25z"/><path class="cls-25" d="M408.07 909.3l1.7-.1s6.14.61 9.37 2.35a.65.65 0 0 1-.32 1.22h-12.46v-4.13z"/><path d="M435.56 640.13c-1.31 4.41-.11 8.67 2.7 9.5s8.09-.08 9.41-4.49-3.71-12.72-6.51-13.55-4.28 4.12-5.6 8.54z" fill="url(#linear-gradient-40)"/><path d="M450.12 633.54a13.15 13.15 0 0 0 8.46 2.88c4.09 0 5.64-1.73 5.64-3.41 0-2.26-2.52-3.31-2.52-5.11s7.8-.3 7.8-5.1-1.98-11.8-6.5-11.8c-2.28 0-.06 4.38-.06 6.6s-1.56 4-6.6 4-5.92-3.07-12.38-3.07-11.33 3.19-11.33 10.15S444 640.56 444 640.56z" fill="url(#linear-gradient-41)"/><path d="M482.75 773.74s1.4 56.19 0 74.61c-3 24-11.62 55.89-11.62 55.89h-5.36s-9.83-31.41-6.8-54.73c-16.79-30.77-18.66-75.77-18.66-75.77z" fill="url(#linear-gradient-42)"/><path d="M451.44 780.57l-17.22 61c-2.35 8.34-23.26 62.64-23.26 62.64h-5.64s-5.8-50 4.89-65.57C403.84 808.1 400 767.72 400 767.72s34.77.45 51.44 12.85z" fill="url(#linear-gradient-43)"/><path d="M447.28 660.15s-10.38 2.91-17.6 5.48a21.84 21.84 0 0 0-10.54 8c-20.25 28.66-24.76 102.69-24.76 102.69s14.1 12.86 49.42 12.86 44.14-6.55 44.14-6.55-2.62-75.25-18.9-105.9a11.37 11.37 0 0 0-2.88-3.48c-16.16-13.1-18.88-13.1-18.88-13.1z" fill="url(#linear-gradient-44)"/><path d="M451.94 640.13s-1.38 14.6 3 26.76a6.35 6.35 0 0 1-2.66 7.73c-3.28 1.87-5.66 0-7.24-2.5a13.93 13.93 0 0 1-2-9.27 212.88 212.88 0 0 1 4.33-24.39c3.08-11.91 4.57 1.67 4.57 1.67z" fill="url(#linear-gradient-45)"/><path d="M442.41 643.26c1 6.1 5 10.52 8.95 9.86s6.27-6.14 5.25-12.24-5-10.52-9-9.86-6.22 6.14-5.2 12.24z" fill="url(#linear-gradient-46)"/><ellipse cx="446.46" cy="631.5" rx="9.36" ry="5.94" transform="translate(-224.06 246.12) rotate(-24.85)" fill="url(#linear-gradient-47)"/><path d="M440.21 639.81c0 1.45.85 2.63 1.89 2.63s1.88-1.18 1.88-2.63-.84-2.62-1.88-2.62-1.89 1.17-1.89 2.62z" fill="url(#linear-gradient-48)"/><path d="M419.06 676.84c.46-.89 30.18 31.2 39.82 37.57a602.03 602.03 0 0 1 38.86 12.81l-1 11.19s-34.57.28-45.26-2.64c-15.37-6.5-36.09-19.42-36.09-19.42s-4.39-24.19 3.67-39.51z" fill="url(#linear-gradient-49)"/><path class="cls-34" d="M493.94 739.17c-8.51 0-33.66-.22-42.66-2.68a180.16 180.16 0 0 1-25-12.72l.82-1.26a176.48 176.48 0 0 0 24.71 12.57c9.56 2.61 39.39 2.59 44.29 2.58l.27-3 1.49.13-.39 4.39h-3.49z"/><path class="cls-3" d="M445.29 805.13l-1.44-.43c0-.06 1.86-6.27 2.69-9.52l1.45.37c-.84 3.28-2.68 9.52-2.7 9.58zM407.86 901l-1.49-.08c.1-1.85 2.6-45.36 12.71-61.17-.17-5-2.69-48.29-2.72-48.74l1.5-.08c.11 1.85 2.64 45.38 2.73 49v.24l-.12.19c-10.01 15.26-12.58 60.14-12.61 60.64z"/></g></g></svg>
