<?xml version="1.0" standalone="no"?>
<!DOCTYPE svg PUBLIC "-//W3C//DTD SVG 20010904//EN"
 "http://www.w3.org/TR/2001/REC-SVG-20010904/DTD/svg10.dtd">
<svg version="1.0" xmlns="http://www.w3.org/2000/svg"
 width="700.000000pt" height="700.000000pt" viewBox="0 0 700.000000 700.000000"
 preserveAspectRatio="xMidYMid meet">
<metadata>
Created by potrace 1.11, written by Peter Selinger 2001-2013
</metadata>
<g transform="translate(0.000000,700.000000) scale(0.100000,-0.100000)"
fill="#000000" stroke="none">
<path d="M750 6981 c-362 -77 -657 -374 -731 -738 -19 -89 -19 -182 -17 -2775
l3 -2683 23 -79 c98 -336 350 -586 683 -678 l84 -23 2705 0 2705 0 84 23 c333
92 585 342 683 678 l23 79 3 2683 c2 2593 2 2686 -17 2775 -74 366 -370 663
-736 738 -86 18 -194 19 -2750 18 -2519 0 -2664 -1 -2745 -18z m3360 -1406
c431 -68 815 -240 1104 -498 l50 -44 -28 -109 c-114 -444 -248 -681 -373 -661
-33 6 -56 21 -272 176 -182 131 -364 209 -565 243 -111 19 -394 16 -496 -6
-235 -49 -418 -143 -566 -291 -212 -212 -326 -505 -327 -845 0 -170 18 -288
68 -437 131 -391 407 -659 782 -760 90 -25 114 -27 293 -27 187 0 200 1 310
31 255 70 488 200 725 407 30 27 57 47 59 45 28 -35 496 -710 496 -717 0 -5
-26 -33 -57 -63 -513 -483 -1226 -696 -1958 -585 -601 91 -1119 424 -1422 911
-301 484 -397 1117 -256 1695 68 283 214 575 395 798 342 418 855 690 1418
751 125 14 495 5 620 -14z"/>
</g>
</svg>
