<svg width="271px" height="207px" viewBox="0 0 271 207" version="1.1" xmlns="http://www.w3.org/2000/svg" xmlns:xlink="http://www.w3.org/1999/xlink">
  <defs>
      <linearGradient x1="50%" y1="0%" x2="50%" y2="100%" id="linearGradient-1">
          <stop stop-color="#00AEFF" offset="0%"></stop>
          <stop stop-color="#0076FF" offset="100%"></stop>
      </linearGradient>
  </defs>
  <g id="Page-1" stroke="none" stroke-width="1" fill="none" fill-rule="evenodd">
      <path d="M209.562333,-18.7599278 C206.311333,-26.8489278 200.982333,-33.4639278 193.572333,-38.6039278 C188.961333,-41.8549278 183.934333,-43.8959278 178.491333,-44.7279278 C170.251333,-45.8619278 162.426333,-44.5769278 155.017333,-40.8719278 C150.632333,-38.8319278 147.004333,-36.1469278 144.131333,-32.8209278 C138.386333,-25.8659278 135.437333,-17.8529278 135.286333,-8.78092782 C135.211024,-4.23776723 135.400345,0.305923944 135.853333,4.82707218 C136.15692,8.4618082 136.918966,12.0435587 138.121333,15.4870722 C140.01551,20.8650444 142.134032,26.1613495 144.471333,31.3620722 C148.024333,39.1490722 150.103333,47.3520722 150.708333,55.9700722 C151.313333,64.2100722 149.990333,72.1480722 146.739333,79.7830722 C146.223944,81.0361343 145.694912,82.2835417 145.152333,83.5250722 C141.522333,91.3880722 137.062333,98.6450722 131.771333,105.298072 C129.120438,108.781195 126.320501,112.148326 123.379333,115.390072 C118.205077,121.09594 112.950554,126.728501 107.617333,132.286072 C101.719105,138.335524 95.897639,144.459348 90.1543325,150.656072 C85.0007962,156.113961 80.0823289,161.789115 75.4123325,167.666072 C70.1203325,174.168072 66.5293325,181.463072 64.6393325,189.552072 C62.8253325,197.717072 62.9003325,205.806072 64.8663325,213.820072 C66.7563325,221.682072 70.4603325,228.410072 75.9793325,234.004072 C82.5563325,240.581072 90.3433325,245.080072 99.3393325,247.499072 C108.259333,249.993072 117.180333,250.523072 126.101333,249.086072 C134.341333,247.726072 141.674333,244.361072 148.100333,238.994072 C154.17664,233.907078 159.418521,227.899582 163.635333,221.190072 C167.945333,214.235072 171.195333,206.864072 173.388333,199.078072 C174.510009,195.199373 175.41837,191.262141 176.109333,187.284072 C177.236652,181.3684 177.956677,175.382337 178.264333,169.368072 C178.717767,160.832298 178.755478,152.279513 178.377333,143.740072 C177.998946,135.566344 177.469856,127.400289 176.790333,119.246072 C176.185333,111.232072 176.600333,103.181072 178.037333,95.0920722 C179.552032,86.5392752 181.985112,78.17487 185.294333,70.1440722 C188.318333,62.5840722 191.494333,55.0620722 194.820333,47.5780722 C197.390333,41.8330722 199.960333,36.1250722 202.531333,30.4550722 C204.402516,26.4909873 206.179679,22.4832 207.861333,18.4350722 C211.187333,10.7240722 212.661333,2.59707218 212.283333,-5.94492782 C212.14543,-10.3443928 211.224003,-14.6840034 209.562333,-18.7599278 L209.562333,-18.7599278 Z" id="b" fill="url(#linearGradient-1)" fill-rule="nonzero" transform="translate(137.837133, 102.373477) rotate(107.000000) translate(-137.837133, -102.373477) "></path>
  </g>
</svg>