<svg width="50" height="45" xmlns="http://www.w3.org/2000/svg"><path d="M43.75 0A6.257 6.257 0 0 1 50 6.25v25a6.257 6.257 0 0 1-6.25 6.25H32.573c.344 3.28 2.014 5 3.677 5a1.25 1.25 0 0 1 0 2.5h-22.5a1.25 1.25 0 0 1 0-2.5c1.663 0 3.333-1.72 3.677-5H6.25A6.257 6.257 0 0 1 0 31.25v-25A6.257 6.257 0 0 1 6.25 0h37.5zM6.25 2.5A3.754 3.754 0 0 0 2.5 6.25V30h45V6.25a3.754 3.754 0 0 0-3.75-3.75H6.25zm25.454 40a9.94 9.94 0 0 1-1.625-5H19.92a9.94 9.94 0 0 1-1.625 5h13.408zM43.75 35a3.744 3.744 0 0 0 3.52-2.5H2.73A3.744 3.744 0 0 0 6.25 35h37.5zM17.5 24a7.508 7.508 0 0 1-7.5-7.5 7.5 7.5 0 1 1 7.5 7.5zm4.823-8.75a4.992 4.992 0 0 0-3.573-3.573v3.573h3.573zm-6.073-3.573a4.99 4.99 0 1 0 6.073 6.073H17.5a1.25 1.25 0 0 1-1.25-1.25v-4.823zm15 1.323c-.69 0-1.25-.672-1.25-1.5s.56-1.5 1.25-1.5h7.5c.69 0 1.25.672 1.25 1.5s-.56 1.5-1.25 1.5h-7.5zm0 5c-.69 0-1.25-.672-1.25-1.5s.56-1.5 1.25-1.5h7.5c.69 0 1.25.672 1.25 1.5s-.56 1.5-1.25 1.5h-7.5zm0 5c-.69 0-1.25-.672-1.25-1.5s.56-1.5 1.25-1.5h7.5c.69 0 1.25.672 1.25 1.5s-.56 1.5-1.25 1.5h-7.5z" fill="#FFF" fill-rule="nonzero"/></svg>