<svg width="50" height="52" xmlns="http://www.w3.org/2000/svg"><path d="M5 36a5 5 0 1 1 0 10 5 5 0 0 1 0-10zm0 7.5a2.5 2.5 0 1 0 0-5 2.5 2.5 0 0 0 0 5zM45 36a5 5 0 1 1 0 10 5 5 0 0 1 0-10zm0 7.5a2.5 2.5 0 1 0 0-5 2.5 2.5 0 0 0 0 5zM11 28c.01-7.728 6.272-13.99 14-14 7.732 0 14 6.268 14 14s-6.268 14-14 14-14-6.268-14-14zm2.545 0c0 1.023 1.953 2.337 5.254 3.127A31.399 31.399 0 0 1 18.636 28c0-1.042.06-2.093.163-3.127-3.301.79-5.254 2.104-5.254 3.127zm.834 4.237a11.483 11.483 0 0 0 6.383 6.383 18.723 18.723 0 0 1-1.568-4.814 18.72 18.72 0 0 1-4.815-1.569zm4.815-10.043c.302-1.668.83-3.288 1.568-4.814a11.483 11.483 0 0 0-6.383 6.383 18.72 18.72 0 0 1 4.815-1.57zM25 39.454c1.022 0 2.337-1.952 3.127-5.253a31.394 31.394 0 0 1-3.127.163c-1.042 0-2.092-.06-3.127-.163.79 3.301 2.105 5.254 3.127 5.254zM36.455 28c0-1.023-1.953-2.337-5.254-3.127.104 1.034.163 2.085.163 3.127 0 1.042-.06 2.093-.163 3.127 3.301-.79 5.254-2.104 5.254-3.127zm-.834-4.237a11.483 11.483 0 0 0-6.383-6.383 18.723 18.723 0 0 1 1.568 4.814 18.72 18.72 0 0 1 4.815 1.569zm-4.815 10.043a18.723 18.723 0 0 1-1.568 4.814 11.483 11.483 0 0 0 6.383-6.383 18.72 18.72 0 0 1-4.815 1.57zM28.818 28a28.925 28.925 0 0 0-.234-3.584 27.507 27.507 0 0 0-7.168 0 27.487 27.487 0 0 0 0 7.168c2.38.312 4.789.312 7.168 0 .152-1.189.23-2.386.234-3.584zm-.691-6.2c-.79-3.302-2.105-5.255-3.127-5.255-1.022 0-2.337 1.953-3.127 5.254A31.394 31.394 0 0 1 25 21.636c1.042 0 2.092.06 3.127.163zM25 10a5 5 0 1 1 0-10 5 5 0 0 1 0 10zm0-7.5a2.5 2.5 0 1 0 0 5 2.5 2.5 0 0 0 0-5zM2.594 33c-.587-.001-1.09-.442-1.197-1.048C-.619 20.663 5.198 9.442 15.32 5.097a1.17 1.17 0 0 1 1.206.168c.345.28.522.73.464 1.182a1.27 1.27 0 0 1-.742 1.013C7.187 11.342 1.98 21.388 3.795 31.49c.12.695-.318 1.362-.98 1.489a1.103 1.103 0 0 1-.221.021zm31.18-25.531c-.41-.169-.702-.556-.762-1.014a1.31 1.31 0 0 1 .468-1.195c.35-.28.816-.338 1.22-.154 10.107 4.343 15.917 15.561 13.904 26.846-.107.606-.61 1.046-1.195 1.048a1.1 1.1 0 0 1-.221-.021c-.661-.127-1.1-.794-.979-1.49 1.812-10.097-3.387-20.14-12.436-24.02zm3.237 37.785a1.234 1.234 0 0 1 1.75.283 1.301 1.301 0 0 1-.277 1.79 23.242 23.242 0 0 1-27.957 0 1.294 1.294 0 0 1-.52-1.175 1.28 1.28 0 0 1 .74-1.043c.413-.186.891-.13 1.253.145a21.102 21.102 0 0 0 25.011 0z" fill="#FFF" fill-rule="nonzero"/></svg>