<svg width="50" height="50" xmlns="http://www.w3.org/2000/svg"><path d="M34 18.752c0 .331-.135.649-.376.883a1.305 1.305 0 0 1-.91.365H17.286c-.341 0-.668-.131-.91-.365a1.228 1.228 0 0 1-.376-.883v-2.495c.008-2.614 1.697-4.946 4.23-5.838-2.324-2.495-2.19-6.328.302-8.666 2.491-2.337 6.444-2.337 8.936 0 2.492 2.338 2.625 6.17.302 8.666 2.533.892 4.222 3.224 4.23 5.838v2.495zM25 2.534c-2.13.002-3.855 1.677-3.857 3.743 0 2.067 1.727 3.742 3.857 3.742s3.857-1.675 3.857-3.742S27.13 2.534 25 2.534zm6.429 14.97v-1.247c-.003-2.066-1.728-3.74-3.858-3.742H22.43c-2.13.002-3.855 1.676-3.858 3.742v1.248H31.43zM45.77 40.42c2.532.892 4.222 3.224 4.229 5.838v2.495c0 .331-.135.649-.376.883a1.305 1.305 0 0 1-.91.365H33.286c-.341 0-.668-.131-.91-.365a1.228 1.228 0 0 1-.376-.883v-2.495c.007-2.614 1.697-4.946 4.23-5.838-2.324-2.495-2.19-6.329.302-8.666 2.492-2.337 6.444-2.337 8.936 0s2.626 6.17.303 8.666zM41 32.534c-2.13.002-3.855 1.676-3.857 3.743 0 2.067 1.727 3.742 3.857 3.742s3.857-1.675 3.857-3.742c0-2.068-1.727-3.743-3.857-3.743zm6.429 14.97v-1.247c-.003-2.066-1.728-3.74-3.858-3.743H38.43c-2.13.003-3.855 1.677-3.858 3.743v1.248H47.43zM13.77 40.42c2.532.892 4.222 3.224 4.229 5.838v2.495c0 .331-.135.649-.376.883a1.305 1.305 0 0 1-.91.365H1.286c-.341 0-.668-.131-.91-.365A1.228 1.228 0 0 1 0 48.752v-2.495c.007-2.614 1.697-4.946 4.23-5.838-2.324-2.495-2.19-6.329.302-8.666 2.492-2.337 6.444-2.337 8.936 0s2.626 6.17.303 8.666zM9 32.534c-2.13.002-3.855 1.676-3.857 3.743 0 2.067 1.727 3.742 3.857 3.742s3.857-1.675 3.857-3.742c0-2.068-1.727-3.743-3.857-3.743zm6.429 14.97v-1.247c-.003-2.066-1.728-3.74-3.858-3.743H6.43c-2.13.003-3.855 1.677-3.858 3.743v1.248H15.43zm10.37-16.232l4.68 3.436c.372.272.567.718.512 1.17-.055.452-.353.84-.78 1.02-.427.178-.919.12-1.29-.152L24.5 33.5l-4.42 3.246a1.319 1.319 0 0 1-1.82-.256 1.256 1.256 0 0 1 .261-1.782l4.68-3.436v-7c0-.702.581-1.272 1.299-1.272s1.3.57 1.3 1.273v6.999z" fill="#FFF" fill-rule="nonzero"/></svg>